<svg width="94" height="94" viewBox="0 0 94 94" fill="none" xmlns="http://www.w3.org/2000/svg">
    <g filter="url(#filter0_dd_811_3319)">
        <rect x="17" y="17" width="60" height="60" rx="4" fill="white"/>
        <path d="M45.573 61.3334C44.933 61.3334 44.293 61.1734 43.7064 60.8534C42.5197 60.1867 41.813 59 41.813 57.6534V50.5201C41.813 49.8401 41.373 48.84 40.9596 48.32L35.893 43C35.053 42.16 34.3997 40.6934 34.3997 39.6134V36.5201C34.3997 34.3734 36.0264 32.6934 38.093 32.6934H55.8796C57.9196 32.6934 59.573 34.3467 59.573 36.3867V39.3467C59.573 40.7467 58.733 42.36 57.933 43.1467C57.5464 43.5334 56.9064 43.5334 56.5197 43.1467C56.133 42.76 56.133 42.12 56.5197 41.7334C57.013 41.24 57.573 40.1334 57.573 39.3467V36.3867C57.573 35.4534 56.813 34.6934 55.8796 34.6934H38.093C37.1464 34.6934 36.3997 35.4934 36.3997 36.5201V39.6134C36.3997 40.1067 36.7997 41.0801 37.3197 41.6001L42.453 47C43.133 47.84 43.7996 49.2534 43.7996 50.5201V57.6534C43.7996 58.5334 44.3997 58.96 44.6663 59.1067C45.2397 59.4267 45.9197 59.4134 46.453 59.0934L48.3197 57.8934C48.7063 57.6667 49.0797 56.9334 49.0797 56.44C49.0797 55.8934 49.533 55.44 50.0797 55.44C50.6263 55.44 51.0797 55.8934 51.0797 56.44C51.0797 57.64 50.333 59.0134 49.3863 59.5867L47.533 60.7867C46.933 61.1467 46.253 61.3334 45.573 61.3334Z" fill="url(#paint0_linear_811_3319)"/>
        <path d="M52.4268 54.0265C49.5202 54.0265 47.1602 51.6665 47.1602 48.7598C47.1602 45.8532 49.5202 43.4932 52.4268 43.4932C55.3335 43.4932 57.6935 45.8532 57.6935 48.7598C57.6935 51.6665 55.3335 54.0265 52.4268 54.0265ZM52.4268 45.4932C50.6268 45.4932 49.1602 46.9598 49.1602 48.7598C49.1602 50.5598 50.6268 52.0265 52.4268 52.0265C54.2268 52.0265 55.6935 50.5598 55.6935 48.7598C55.6935 46.9598 54.2268 45.4932 52.4268 45.4932Z" fill="url(#paint1_linear_811_3319)"/>
        <path d="M57.4933 54.8271C57.24 54.8271 56.9867 54.7337 56.7867 54.5337L55.4533 53.2004C55.0667 52.8137 55.0667 52.1737 55.4533 51.7871C55.84 51.4004 56.48 51.4004 56.8667 51.7871L58.2 53.1204C58.5867 53.5071 58.5867 54.1471 58.2 54.5337C58.0133 54.7204 57.7466 54.8271 57.4933 54.8271Z" fill="url(#paint2_linear_811_3319)"/>
    </g>
    <defs>
        <filter id="filter0_dd_811_3319" x="0" y="0" width="94" height="94" filterUnits="userSpaceOnUse" color-interpolation-filters="sRGB">
            <feFlood flood-opacity="0" result="BackgroundImageFix"/>
            <feColorMatrix in="SourceAlpha" type="matrix" values="0 0 0 0 0 0 0 0 0 0 0 0 0 0 0 0 0 0 127 0" result="hardAlpha"/>
            <feOffset dx="5" dy="5"/>
            <feGaussianBlur stdDeviation="6"/>
            <feColorMatrix type="matrix" values="0 0 0 0 0 0 0 0 0 0 0 0 0 0 0 0 0 0 0.08 0"/>
            <feBlend mode="normal" in2="BackgroundImageFix" result="effect1_dropShadow_811_3319"/>
            <feColorMatrix in="SourceAlpha" type="matrix" values="0 0 0 0 0 0 0 0 0 0 0 0 0 0 0 0 0 0 127 0" result="hardAlpha"/>
            <feOffset dx="-5" dy="-5"/>
            <feGaussianBlur stdDeviation="6"/>
            <feColorMatrix type="matrix" values="0 0 0 0 0.0823529 0 0 0 0 0.254902 0 0 0 0 0.87451 0 0 0 0.12 0"/>
            <feBlend mode="normal" in2="effect1_dropShadow_811_3319" result="effect2_dropShadow_811_3319"/>
            <feBlend mode="normal" in="SourceGraphic" in2="effect2_dropShadow_811_3319" result="shape"/>
        </filter>
        <linearGradient id="paint0_linear_811_3319" x1="34.3997" y1="47.0134" x2="55.1456" y2="56.5973" gradientUnits="userSpaceOnUse">
            <stop stop-color="#1541DF"/>
            <stop offset="1" stop-color="#0E30A7"/>
        </linearGradient>
        <linearGradient id="paint1_linear_811_3319" x1="47.1602" y1="48.7598" x2="55.4136" y2="53.0977" gradientUnits="userSpaceOnUse">
            <stop stop-color="#1541DF"/>
            <stop offset="1" stop-color="#0E30A7"/>
        </linearGradient>
        <linearGradient id="paint2_linear_811_3319" x1="55.1633" y1="53.1621" x2="57.7711" y2="54.5313" gradientUnits="userSpaceOnUse">
            <stop stop-color="#1541DF"/>
            <stop offset="1" stop-color="#0E30A7"/>
        </linearGradient>
    </defs>
</svg>
