<svg width="394" height="462" viewBox="0 0 394 462" fill="none" xmlns="http://www.w3.org/2000/svg">
<g opacity="0.8" clip-path="url(#clip0_141_1545)" filter="url(#filter0_dd_141_1545)">
<g style="mix-blend-mode:overlay" opacity="0.6">
<path d="M92.5414 303.39C89.425 304.243 86.1575 304.39 82.9757 303.82C79.7938 303.251 76.7772 301.98 74.1444 300.099C71.7526 298.429 69.7118 296.304 68.1387 293.845C66.5656 291.386 65.491 288.641 64.9762 285.767C64.4615 282.893 64.5167 279.946 65.1387 277.095C65.7607 274.244 66.9373 271.544 68.6014 269.15L202.876 76.5485C205.848 72.208 210.269 69.0744 215.344 67.7112C220.419 66.348 225.815 66.8446 230.561 69.1117L439.496 164.759C442.155 165.999 444.544 167.751 446.529 169.915C448.513 172.08 450.053 174.614 451.061 177.374C452.069 180.134 452.524 183.065 452.402 186C452.28 188.935 451.582 191.816 450.349 194.479C449.115 197.142 447.37 199.535 445.212 201.521C443.055 203.507 440.528 205.047 437.776 206.054C435.024 207.06 432.1 207.513 429.171 207.387C426.243 207.261 423.367 206.558 420.708 205.318L228.648 117.24L104.95 294.7C101.95 298.957 97.5619 302.03 92.5414 303.39Z" fill="#ECECF3"/>
<path d="M234.719 140.21L124.954 295.874L159.549 424.663C160.821 429.399 163.918 433.437 168.158 435.888C172.397 438.34 177.433 439.004 182.157 437.735L314.307 402.237L286.968 300.464C286.598 299.135 286.495 297.746 286.663 296.378C286.832 295.009 287.269 293.688 287.95 292.491C288.631 291.293 289.542 290.243 290.631 289.401C291.72 288.559 292.965 287.942 294.293 287.585L339.051 275.562C340.38 275.205 341.766 275.115 343.13 275.298C344.494 275.482 345.809 275.934 346.999 276.629C348.188 277.324 349.229 278.248 350.06 279.348C350.892 280.448 351.498 281.702 351.844 283.037L379.182 384.81L428.554 371.548C433.255 370.259 437.253 367.156 439.674 362.918C442.096 358.68 442.743 353.652 441.475 348.932L406.681 219.403L234.719 140.21Z" fill="#ECECF3"/>
<path d="M351.044 162.926C344.224 164.732 336.966 163.754 330.858 160.208C324.749 156.661 320.289 150.834 318.455 144.004L300.536 77.2968C299.382 73.8396 298.945 70.1833 299.253 66.5526C299.561 62.922 300.606 59.3938 302.325 56.1848C304.044 52.9758 306.4 50.1539 309.248 47.8925C312.096 45.6311 315.377 43.9781 318.888 43.035C322.399 42.0918 326.066 41.8786 329.664 42.4083C333.262 42.9381 336.715 44.1996 339.81 46.1154C342.906 48.0311 345.579 50.5606 347.664 53.5484C349.75 56.5362 351.204 59.9191 351.938 63.4892L369.807 130.012C370.746 133.41 371.005 136.961 370.569 140.459C370.133 143.957 369.011 147.333 367.267 150.392C365.523 153.452 363.191 156.134 360.407 158.286C357.623 160.437 354.44 162.014 351.044 162.926Z" fill="#ECECF3"/>
</g>
<g style="mix-blend-mode:overlay" opacity="0.8">
<path d="M72.1596 291.605C69.0432 292.458 65.7757 292.605 62.5939 292.036C59.412 291.466 56.3954 290.195 53.7626 288.314C51.3708 286.644 49.33 284.52 47.7569 282.061C46.1838 279.601 45.1092 276.857 44.5944 273.982C44.0797 271.108 44.1349 268.162 44.7569 265.31C45.3789 262.459 46.5555 259.759 48.2196 257.365L182.495 64.7637C185.479 60.4385 189.9 57.3172 194.97 55.9554C200.04 54.5935 205.429 55.0796 210.18 57.3269L419.114 152.974C424.479 155.413 428.661 159.888 430.739 165.413C432.817 170.938 432.621 177.061 430.194 182.435C427.767 187.809 423.308 191.995 417.798 194.07C412.288 196.145 406.178 195.941 400.812 193.502L208.266 105.455L84.5429 282.823C81.6069 287.151 77.2098 290.269 72.1596 291.605Z" fill="#888888"/>
<path d="M214.337 128.425L104.572 284.089L139.167 412.878C140.44 417.614 143.536 421.651 147.776 424.103C152.016 426.555 157.051 427.219 161.775 425.95L293.463 390.576L266.125 288.803C265.4 286.104 265.774 283.228 267.165 280.808C268.556 278.388 270.85 276.622 273.542 275.899L318.761 263.752C321.454 263.029 324.324 263.407 326.74 264.805C329.156 266.202 330.921 268.503 331.646 271.202L358.985 372.975L408.264 359.738C410.614 359.12 412.818 358.042 414.75 356.567C416.682 355.091 418.304 353.248 419.522 351.142C420.74 349.035 421.53 346.708 421.847 344.294C422.165 341.879 422.003 339.425 421.371 337.072L386.576 207.543L214.337 128.425Z" fill="#888888"/>
<path d="M330.495 150.889C323.676 152.694 316.417 151.717 310.309 148.17C304.201 144.623 299.741 138.797 297.906 131.967L280.037 65.4443C278.883 61.9871 278.446 58.3307 278.754 54.7001C279.062 51.0695 280.107 47.5412 281.826 44.3322C283.545 41.1232 285.901 38.3013 288.749 36.0399C291.597 33.7786 294.878 32.1255 298.389 31.1824C301.9 30.2393 305.567 30.0261 309.165 30.5558C312.763 31.0855 316.216 32.3471 319.311 34.2628C322.407 36.1786 325.079 38.7081 327.165 41.6959C329.251 44.6836 330.705 48.0665 331.439 51.6366L349.308 118.159C351.147 125.005 350.198 132.3 346.67 138.438C343.142 144.576 337.323 149.054 330.495 150.889Z" fill="#888888"/>
</g>
<path d="M81.9777 296.11C77.5172 297.417 72.758 297.284 68.3729 295.732C63.9878 294.18 60.1987 291.286 57.5412 287.46C54.8837 283.634 53.4922 279.069 53.5635 274.411C53.6347 269.752 55.1651 265.236 57.9383 261.5L192.245 69.386C195.23 65.0608 199.651 61.9395 204.721 60.5777C209.79 59.2158 215.18 59.7018 219.93 61.9492L428.772 157.621C434.142 160.125 438.302 164.663 440.337 170.237C442.373 175.81 442.117 181.963 439.625 187.342C437.134 192.72 432.611 196.884 427.053 198.916C421.494 200.949 415.354 200.684 409.985 198.18L218.11 110.053L94.4782 287.396C91.4771 291.697 87.0462 294.786 81.9777 296.11Z" fill="#EBEFFF"/>
<path d="M224.273 132.998L114.416 288.687L148.986 417.383C150.261 422.127 153.357 426.176 157.598 428.643C161.839 431.109 166.88 431.794 171.619 430.548L303.676 395.074L276.338 293.301C275.702 290.647 276.118 287.851 277.498 285.5C278.878 283.15 281.115 281.429 283.738 280.7L328.403 268.702C331.071 267.985 333.915 268.36 336.309 269.745C338.703 271.129 340.452 273.41 341.171 276.084L368.509 377.857L418.065 364.545C422.791 363.25 426.81 360.131 429.244 355.871C431.678 351.611 432.329 346.556 431.055 341.812L396.26 212.283L224.273 132.998Z" fill="#EBEFFF"/>
<path d="M340.529 155.831C333.717 157.661 326.455 156.71 320.334 153.185C314.213 149.661 309.732 143.85 307.873 137.027L289.929 70.2266C288.558 63.5542 289.78 56.6121 293.345 50.8184C296.91 45.0248 302.549 40.8168 309.111 39.0542C315.673 37.2915 322.662 38.1072 328.65 41.3346C334.639 44.562 339.174 49.9575 341.331 56.419L359.225 123.034C360.148 126.421 360.396 129.955 359.956 133.436C359.516 136.917 358.396 140.277 356.66 143.322C354.924 146.368 352.606 149.04 349.838 151.186C347.07 153.332 343.907 154.911 340.529 155.831Z" fill="#EBEFFF"/>
</g>
<defs>
<filter id="filter0_dd_141_1545" x="-17" y="-17" width="532.413" height="495.211" filterUnits="userSpaceOnUse" color-interpolation-filters="sRGB">
<feFlood flood-opacity="0" result="BackgroundImageFix"/>
<feColorMatrix in="SourceAlpha" type="matrix" values="0 0 0 0 0 0 0 0 0 0 0 0 0 0 0 0 0 0 127 0" result="hardAlpha"/>
<feOffset dx="5" dy="5"/>
<feGaussianBlur stdDeviation="6"/>
<feColorMatrix type="matrix" values="0 0 0 0 0 0 0 0 0 0 0 0 0 0 0 0 0 0 0.08 0"/>
<feBlend mode="normal" in2="BackgroundImageFix" result="effect1_dropShadow_141_1545"/>
<feColorMatrix in="SourceAlpha" type="matrix" values="0 0 0 0 0 0 0 0 0 0 0 0 0 0 0 0 0 0 127 0" result="hardAlpha"/>
<feOffset dx="-5" dy="-5"/>
<feGaussianBlur stdDeviation="6"/>
<feColorMatrix type="matrix" values="0 0 0 0 0.0823529 0 0 0 0 0.254902 0 0 0 0 0.87451 0 0 0 0.12 0"/>
<feBlend mode="normal" in2="effect1_dropShadow_141_1545" result="effect2_dropShadow_141_1545"/>
<feBlend mode="normal" in="SourceGraphic" in2="effect2_dropShadow_141_1545" result="shape"/>
</filter>
<clipPath id="clip0_141_1545">
<rect width="417.958" height="365.288" fill="white" transform="translate(0 108.429) rotate(-15.0359)"/>
</clipPath>
</defs>
</svg>
