<svg width="273" height="237" viewBox="0 0 273 237" fill="none" xmlns="http://www.w3.org/2000/svg">
<g opacity="0.4" clip-path="url(#clip0_178_2392)" filter="url(#filter0_dd_178_2392)">
<g style="mix-blend-mode:overlay" opacity="0.6">
<path d="M-10.7049 144.442C-12.8066 143.889 -14.759 142.876 -16.4206 141.474C-18.0821 140.073 -19.4113 138.32 -20.3119 136.341C-21.1433 134.566 -21.617 132.644 -21.706 130.686C-21.7949 128.727 -21.4974 126.771 -20.8304 124.927C-20.1634 123.083 -19.14 121.389 -17.8186 119.941C-16.4972 118.493 -14.9038 117.32 -13.1294 116.489L129.86 49.7151C133.051 48.1921 136.68 47.8579 140.094 48.7727C143.508 49.6875 146.484 51.7913 148.485 54.7057L237.992 180.58C239.124 182.195 239.926 184.017 240.353 185.943C240.781 187.868 240.825 189.859 240.484 191.802C240.142 193.745 239.422 195.602 238.363 197.267C237.305 198.932 235.929 200.371 234.315 201.504C232.701 202.637 230.879 203.441 228.955 203.87C227.031 204.298 225.041 204.343 223.099 204.002C221.158 203.661 219.303 202.941 217.639 201.883C215.976 200.824 214.538 199.448 213.407 197.833L131.181 82.0348L-0.555348 143.566C-3.73413 145.03 -7.32329 145.34 -10.7049 144.442Z" fill="url(#paint0_linear_178_2392)"/>
<path d="M126.99 97.4267L10.7006 150.976L-12.4745 237.467C-13.3267 240.647 -12.8816 244.036 -11.2371 246.887C-9.59262 249.738 -6.88343 251.818 -3.70556 252.67L85.1986 276.491L103.512 208.144C103.744 207.247 104.151 206.405 104.709 205.666C105.268 204.927 105.967 204.307 106.766 203.84C107.566 203.373 108.45 203.069 109.367 202.946C110.284 202.823 111.217 202.883 112.111 203.122L142.221 211.19C143.115 211.43 143.953 211.844 144.686 212.409C145.419 212.975 146.032 213.68 146.491 214.484C146.95 215.288 147.245 216.175 147.36 217.094C147.474 218.013 147.405 218.946 147.157 219.838L128.844 288.186L162.058 297.086C165.23 297.918 168.602 297.46 171.438 295.811C174.274 294.163 176.342 291.458 177.192 288.288L200.5 201.3L126.99 97.4267Z" fill="url(#paint1_linear_178_2392)"/>
<path d="M187.095 149.761C182.516 148.517 178.618 145.507 176.253 141.391C173.889 137.275 173.252 132.388 174.481 127.801L186.485 83.0022C186.975 80.6047 187.951 78.3328 189.352 76.3261C190.752 74.3195 192.548 72.6205 194.628 71.3336C196.709 70.0467 199.03 69.1991 201.45 68.8429C203.869 68.4867 206.336 68.6295 208.698 69.2624C211.06 69.8952 213.267 71.0049 215.185 72.5232C217.102 74.0414 218.688 75.9361 219.847 78.0909C221.005 80.2456 221.711 82.6148 221.92 85.0529C222.13 87.4909 221.839 89.9463 221.065 92.2681L209.095 136.943C208.498 139.234 207.455 141.385 206.024 143.271C204.594 145.157 202.804 146.742 200.759 147.934C198.715 149.125 196.454 149.9 194.109 150.214C191.764 150.527 189.38 150.373 187.095 149.761Z" fill="url(#paint2_linear_178_2392)"/>
</g>
<g style="mix-blend-mode:overlay" opacity="0.8">
<path d="M-18.6108 130.737C-20.7125 130.184 -22.6649 129.171 -24.3265 127.769C-25.9881 126.368 -27.3173 124.615 -28.2178 122.636C-29.0492 120.861 -29.5229 118.939 -29.6119 116.981C-29.7009 115.023 -29.4033 113.066 -28.7363 111.222C-28.0693 109.378 -27.0459 107.684 -25.7245 106.236C-24.4031 104.788 -22.8097 103.615 -21.0353 102.784L121.954 36.0101C125.148 34.5003 128.772 34.1733 132.183 35.0871C135.593 36.001 138.569 38.0966 140.579 41.0007L230.086 166.875C232.39 170.097 233.321 174.104 232.672 178.015C232.024 181.925 229.85 185.418 226.629 187.725C223.407 190.032 219.403 190.965 215.496 190.317C211.588 189.67 208.099 187.496 205.794 184.274L123.275 68.3298L-8.44463 129.799C-11.6103 131.326 -15.2202 131.66 -18.6108 130.737Z" fill="#ECECF3"/>
<path d="M119.084 83.7217L2.79437 137.271L-20.3808 223.762C-21.233 226.942 -20.7879 230.331 -19.1434 233.182C-17.4989 236.033 -14.7897 238.113 -11.6118 238.964L76.9819 262.703L95.2956 194.355C95.7813 192.543 96.9667 190.997 98.5908 190.058C100.215 189.12 102.145 188.865 103.956 189.351L134.377 197.502C136.189 197.987 137.733 199.173 138.67 200.798C139.607 202.423 139.861 204.354 139.375 206.167L121.061 274.514L154.214 283.397C155.791 283.829 157.437 283.944 159.059 283.736C160.68 283.529 162.245 283.003 163.662 282.188C165.08 281.374 166.323 280.287 167.32 278.99C168.317 277.694 169.048 276.213 169.472 274.633L192.78 187.645L119.084 83.7217Z" fill="#ECECF3"/>
<path d="M179.177 135.852C174.598 134.607 170.699 131.597 168.335 127.481C165.971 123.365 165.333 118.479 166.562 113.892L178.533 69.2171C179.024 66.8196 179.999 64.5476 181.4 62.541C182.8 60.5343 184.596 58.8353 186.677 57.5484C188.757 56.2615 191.079 55.4139 193.498 55.0578C195.918 54.7016 198.384 54.8443 200.746 55.4772C203.108 56.1101 205.316 57.2198 207.233 58.738C209.15 60.2562 210.737 62.151 211.895 64.3057C213.054 66.4604 213.759 68.8297 213.969 71.2677C214.178 73.7058 213.887 76.1612 213.114 78.483L201.143 123.158C199.911 127.755 196.905 131.676 192.785 134.056C188.666 136.437 183.771 137.083 179.177 135.852Z" fill="#ECECF3"/>
</g>
<path d="M-14.4081 136.659C-17.4453 135.918 -20.1725 134.24 -22.2041 131.862C-24.2358 129.485 -25.4691 126.529 -25.7298 123.411C-25.9904 120.293 -25.2652 117.172 -23.6567 114.489C-22.0482 111.805 -19.6377 109.695 -16.766 108.457L126.078 41.9773C129.272 40.4675 132.896 40.1404 136.307 41.0543C139.717 41.9682 142.693 44.0637 144.703 46.9679L234.148 172.825C236.433 176.087 237.329 180.124 236.64 184.048C235.95 187.972 233.731 191.462 230.471 193.75C227.211 196.038 223.176 196.936 219.255 196.248C215.334 195.559 211.848 193.34 209.563 190.079L127.462 74.3136L-4.19648 135.799C-7.39102 137.289 -11.0106 137.594 -14.4081 136.659Z" fill="#1541DF"/>
<path d="M123.332 89.7227L6.98041 143.255L-16.1781 229.684C-17.0319 232.87 -16.5905 236.265 -14.9504 239.125C-13.3103 241.986 -10.605 244.079 -7.42578 244.949L81.4163 268.754L99.73 200.406C100.252 198.65 101.435 197.164 103.03 196.262C104.624 195.361 106.506 195.113 108.279 195.571L138.327 203.623C140.122 204.104 141.652 205.278 142.581 206.889C143.51 208.499 143.761 210.412 143.28 212.209L124.966 280.556L158.305 289.49C161.493 290.326 164.883 289.865 167.733 288.208C170.584 286.551 172.663 283.832 173.517 280.646L196.825 193.658L123.332 89.7227Z" fill="#1541DF"/>
<path d="M183.358 142.101C178.775 140.873 174.866 137.877 172.487 133.769C170.108 129.662 169.453 124.778 170.665 120.186L182.686 75.3254C184.132 70.9861 187.178 67.3622 191.203 65.1941C195.229 63.0261 199.929 62.4774 204.343 63.6603C208.758 64.8431 212.554 67.6682 214.955 71.5584C217.357 75.4486 218.184 80.1104 217.266 84.5913L205.279 129.328C204.677 131.607 203.633 133.745 202.206 135.62C200.778 137.495 198.996 139.07 196.96 140.257C194.925 141.443 192.676 142.216 190.342 142.532C188.008 142.849 185.635 142.702 183.358 142.101Z" fill="#1541DF"/>
</g>
<defs>
<filter id="filter0_dd_178_2392" x="-92.4995" y="-30" width="395.037" height="369.682" filterUnits="userSpaceOnUse" color-interpolation-filters="sRGB">
<feFlood flood-opacity="0" result="BackgroundImageFix"/>
<feColorMatrix in="SourceAlpha" type="matrix" values="0 0 0 0 0 0 0 0 0 0 0 0 0 0 0 0 0 0 127 0" result="hardAlpha"/>
<feOffset dx="10" dy="10"/>
<feGaussianBlur stdDeviation="10"/>
<feColorMatrix type="matrix" values="0 0 0 0 0.823529 0 0 0 0 0.823529 0 0 0 0 0.823529 0 0 0 0.4 0"/>
<feBlend mode="normal" in2="BackgroundImageFix" result="effect1_dropShadow_178_2392"/>
<feColorMatrix in="SourceAlpha" type="matrix" values="0 0 0 0 0 0 0 0 0 0 0 0 0 0 0 0 0 0 127 0" result="hardAlpha"/>
<feOffset dx="-10" dy="-10"/>
<feGaussianBlur stdDeviation="10"/>
<feColorMatrix type="matrix" values="0 0 0 0 0.054902 0 0 0 0 0.188235 0 0 0 0 0.654902 0 0 0 0.06 0"/>
<feBlend mode="normal" in2="effect1_dropShadow_178_2392" result="effect2_dropShadow_178_2392"/>
<feBlend mode="normal" in="SourceGraphic" in2="effect2_dropShadow_178_2392" result="shape"/>
</filter>
<linearGradient id="paint0_linear_178_2392" x1="-8.07397" y1="77.1093" x2="77.5404" y2="239.322" gradientUnits="userSpaceOnUse">
<stop stop-color="#1541DF"/>
<stop offset="1" stop-color="#0E30A7"/>
</linearGradient>
<linearGradient id="paint1_linear_178_2392" x1="8.09509" y1="160.7" x2="130.594" y2="280.311" gradientUnits="userSpaceOnUse">
<stop stop-color="#1541DF"/>
<stop offset="1" stop-color="#0E30A7"/>
</linearGradient>
<linearGradient id="paint2_linear_178_2392" x1="180.591" y1="104.875" x2="211.55" y2="121.159" gradientUnits="userSpaceOnUse">
<stop stop-color="#1541DF"/>
<stop offset="1" stop-color="#0E30A7"/>
</linearGradient>
<clipPath id="clip0_178_2392">
<rect width="281.134" height="245.275" fill="white" transform="translate(0.982422) rotate(15)"/>
</clipPath>
</defs>
</svg>
