<svg width="13" height="13" viewBox="0 0 13 13" fill="none" xmlns="http://www.w3.org/2000/svg">
<path d="M6.495 1.49805C3.735 1.49805 1.5 3.73805 1.5 6.49805C1.5 9.25805 3.735 11.498 6.495 11.498C9.26 11.498 11.5 9.25805 11.5 6.49805C11.5 3.73805 9.26 1.49805 6.495 1.49805ZM8.5 8.49805C8.45374 8.5444 8.3988 8.58117 8.33831 8.60626C8.27783 8.63135 8.21298 8.64427 8.1475 8.64427C8.08202 8.64427 8.01717 8.63135 7.95669 8.60626C7.8962 8.58117 7.84126 8.5444 7.795 8.49805L6.15 6.85305C6.10276 6.80674 6.06517 6.75152 6.03942 6.69058C6.01367 6.62964 6.00027 6.5642 6 6.49805V4.49805C6 4.22305 6.225 3.99805 6.5 3.99805C6.775 3.99805 7 4.22305 7 4.49805V6.29305L8.5 7.79305C8.695 7.98805 8.695 8.30305 8.5 8.49805Z" fill="#888888"/>
</svg>
