<svg width="11" height="17" viewBox="0 0 11 17" fill="none" xmlns="http://www.w3.org/2000/svg">
<path d="M10.0682 4.16696C10.0003 4.09878 9.91347 4.06475 9.80787 4.06475H7.8713C7.74285 3.43616 7.50124 2.89052 7.14641 2.42843H9.7851C9.89098 2.42843 9.97761 2.39436 10.0457 2.32634C10.1133 2.2582 10.1473 2.17099 10.1473 2.06496V0.90562C10.1473 0.799508 10.1134 0.712462 10.0457 0.644242C9.97753 0.576182 9.8909 0.541992 9.78502 0.541992H0.362364C0.25661 0.541992 0.169857 0.576182 0.101867 0.644203C0.0340746 0.712423 0 0.799469 0 0.90558V2.41693C0 2.51539 0.0358595 2.60061 0.107579 2.67257C0.179298 2.74453 0.264226 2.78051 0.362364 2.78051H2.00457C3.59758 2.78051 4.60934 3.20842 5.03966 4.06455H0.362364C0.25661 4.06455 0.169738 4.09858 0.101867 4.16676C0.0340746 4.23502 0 4.32203 0 4.42814V5.58732C0 5.69335 0.0339159 5.78052 0.101867 5.84854C0.169857 5.9168 0.256769 5.95075 0.362364 5.95075H5.19845C5.03232 6.57213 4.64532 7.04553 4.03746 7.37131C3.42955 7.69712 2.62751 7.86003 1.63082 7.86003H0.362364C0.264226 7.86003 0.179298 7.89605 0.107579 7.96797C0.0358198 8.03997 0 8.12523 0 8.22362V9.66694C0 9.76557 0.0339159 9.84888 0.101867 9.91698C1.55144 11.4624 3.43153 13.6251 5.7419 16.4056C5.80993 16.4966 5.90426 16.542 6.02508 16.542H8.23346C8.39217 16.542 8.50174 16.474 8.56195 16.3374C8.63744 16.201 8.62264 16.0722 8.51661 15.951C6.3122 13.2388 4.57928 11.2085 3.31836 9.86006C4.60193 9.70858 5.64388 9.29181 6.44425 8.61013C7.24451 7.92837 7.73143 7.04183 7.90521 5.95095H9.80787C9.91347 5.95095 10.0004 5.91696 10.0682 5.84874C10.1362 5.78072 10.1703 5.69355 10.1703 5.58752V4.42846C10.1703 4.32223 10.1362 4.23518 10.0682 4.16696Z" fill="url(#paint0_linear_68_2829)"/>
<defs>
<linearGradient id="paint0_linear_68_2829" x1="4.91596e-08" y1="8.54199" x2="9.14912" y2="11.5986" gradientUnits="userSpaceOnUse">
<stop stop-color="#1541DF"/>
<stop offset="1" stop-color="#0E30A7"/>
</linearGradient>
</defs>
</svg>
