<svg width="28" height="35" viewBox="0 0 38 52" fill="none" xmlns="http://www.w3.org/2000/svg">
<g clip-path="url(#clip0_1399_16959)" filter="url(#filter0_d_1399_16959)">
<path d="M27.0136 0.0112043C27.3428 0.064418 27.6324 0.242622 27.8254 0.513641C32.9302 6.95745 35.9857 15.093 35.9857 23.9499C35.9857 32.8057 32.9302 40.9412 27.8254 47.385C27.5841 47.8008 27.12 48.0421 26.6411 47.9939C26.4057 47.9732 26.1812 47.8852 25.9944 47.7404C25.8077 47.5955 25.6666 47.4 25.588 47.1771C25.4283 46.7229 25.5446 46.2156 25.8924 45.8765C30.6631 39.8534 33.5106 32.2352 33.5106 23.9499C33.5106 15.6635 30.6631 8.04524 25.8924 2.02219C25.5682 1.62989 25.5199 1.07919 25.7662 0.634918C26.0186 0.189408 26.5112 -0.0568598 27.0136 0.0112043Z" fill="white"/>
<path d="M19.6269 4.76809C19.9128 4.81636 20.1739 4.97105 20.362 5.19257C24.7032 10.2157 27.3231 16.7894 27.3231 23.9498C27.3231 31.1089 24.7082 37.6826 20.362 42.7058C19.9128 43.228 19.1245 43.2899 18.6022 42.8406C18.08 42.3914 18.0181 41.6031 18.4673 41.0809C22.441 36.4884 24.848 30.4988 24.848 23.9498C24.848 17.3995 22.4361 11.4099 18.4673 6.81744C18.1332 6.43504 18.0664 5.88929 18.2928 5.43883C18.5255 4.98466 19.0081 4.71859 19.5118 4.76809H19.6269Z" fill="white"/>
<path d="M12.009 9.56352C12.2899 9.60188 12.551 9.74172 12.7441 9.94963C16.3985 13.4927 18.6607 18.4576 18.6607 23.9498C18.6607 29.4357 16.3985 34.4057 12.7441 37.9487C12.2515 38.4276 11.4632 38.4227 10.9843 37.9289C10.5054 37.4364 10.5103 36.6481 11.0041 36.1704C14.1994 33.0716 16.1856 28.7539 16.1856 23.9498C16.1856 19.1445 14.1994 14.8267 11.0041 11.7292C10.6068 11.3802 10.4769 10.8147 10.6749 10.3271C10.8779 9.83825 11.3667 9.53382 11.8926 9.56352H12.009ZM4.08136 14.6287C4.2311 14.6535 4.37589 14.7067 4.50707 14.7834C7.76548 16.5333 9.99798 19.9996 9.99798 23.9498C9.99798 27.9037 7.77414 31.37 4.50707 33.1149C3.8982 33.4342 3.14331 33.2015 2.82403 32.5927C2.50598 31.9838 2.7374 31.2289 3.34627 30.9109C5.83617 29.5805 7.52292 26.9805 7.52292 23.9498C7.52292 20.9228 5.82627 18.3178 3.34627 16.9887C2.80052 16.7362 2.5097 16.1323 2.66439 15.547C2.81537 14.9678 3.36607 14.5755 3.96503 14.6287H4.08136Z" fill="white"/>
</g>
<defs>
<filter id="filter0_d_1399_16959" x="-0.775391" y="0" width="40.1602" height="52" filterUnits="userSpaceOnUse" color-interpolation-filters="sRGB">
<feFlood flood-opacity="0" result="BackgroundImageFix"/>
<feColorMatrix in="SourceAlpha" type="matrix" values="0 0 0 0 0 0 0 0 0 0 0 0 0 0 0 0 0 0 127 0" result="hardAlpha"/>
<feOffset dy="2"/>
<feGaussianBlur stdDeviation="1"/>
<feComposite in2="hardAlpha" operator="out"/>
<feColorMatrix type="matrix" values="0 0 0 0 0 0 0 0 0 0 0 0 0 0 0 0 0 0 0.15 0"/>
<feBlend mode="normal" in2="BackgroundImageFix" result="effect1_dropShadow_1399_16959"/>
<feBlend mode="normal" in="SourceGraphic" in2="effect1_dropShadow_1399_16959" result="shape"/>
</filter>
<clipPath id="clip0_1399_16959">
<rect width="36.1593" height="48" fill="white" transform="translate(1.22461)"/>
</clipPath>
</defs>
</svg>
