<svg width="21" height="22" viewBox="0 0 21 22" fill="none" xmlns="http://www.w3.org/2000/svg">
<path d="M18.7498 15.6073V6.39429C19.2616 6.26314 19.7296 5.99889 20.1062 5.62838C20.4829 5.25787 20.7548 4.79429 20.8943 4.28472C21.0338 3.77514 21.036 3.23771 20.9007 2.72701C20.7653 2.21631 20.4973 1.75051 20.1237 1.37692C19.7501 1.00333 19.2843 0.735255 18.7736 0.599909C18.2629 0.464563 17.7255 0.466768 17.2159 0.606301C16.7063 0.745834 16.2427 1.01773 15.8722 1.39437C15.5017 1.77101 15.2375 2.23899 15.1063 2.75079H5.89331C5.76216 2.23899 5.49791 1.77101 5.1274 1.39437C4.75689 1.01773 4.29331 0.745834 3.78374 0.606301C3.27416 0.466768 2.73674 0.464563 2.22603 0.599909C1.71533 0.735255 1.24953 1.00333 0.875946 1.37692C0.502357 1.75051 0.234279 2.21631 0.0989324 2.72701C-0.036414 3.23771 -0.0342086 3.77514 0.105325 4.28472C0.244858 4.79429 0.51675 5.25787 0.893392 5.62838C1.27003 5.99889 1.73801 6.26314 2.24981 6.39429V15.6073C1.73801 15.7384 1.27003 16.0027 0.893392 16.3732C0.51675 16.7437 0.244858 17.2073 0.105325 17.7169C-0.0342086 18.2264 -0.036414 18.7639 0.0989324 19.2746C0.234279 19.7853 0.502357 20.2511 0.875946 20.6247C1.24953 20.9982 1.71533 21.2663 2.22603 21.4017C2.73674 21.537 3.27416 21.5348 3.78374 21.3953C4.29331 21.2557 4.75689 20.9838 5.1274 20.6072C5.49791 20.2306 5.76216 19.7626 5.89331 19.2508H15.1063C15.2375 19.7626 15.5017 20.2306 15.8722 20.6072C16.2427 20.9838 16.7063 21.2557 17.2159 21.3953C17.7255 21.5348 18.2629 21.537 18.7736 21.4017C19.2843 21.2663 19.7501 20.9982 20.1237 20.6247C20.4973 20.2511 20.7653 19.7853 20.9007 19.2746C21.036 18.7639 21.0338 18.2264 20.8943 17.7169C20.7548 17.2073 20.4829 16.7437 20.1062 16.3732C19.7296 16.0027 19.2616 15.7384 18.7498 15.6073ZM17.9998 2.00079C18.2965 2.00079 18.5865 2.08876 18.8332 2.25358C19.0798 2.41841 19.2721 2.65267 19.3856 2.92676C19.4992 3.20085 19.5289 3.50245 19.471 3.79342C19.4131 4.08439 19.2702 4.35167 19.0605 4.56145C18.8507 4.77123 18.5834 4.91409 18.2924 4.97197C18.0015 5.02984 17.6999 5.00014 17.4258 4.88661C17.1517 4.77308 16.9174 4.58082 16.7526 4.33414C16.5878 4.08747 16.4998 3.79746 16.4998 3.50079C16.5002 3.10309 16.6584 2.72179 16.9396 2.44057C17.2208 2.15935 17.6021 2.00119 17.9998 2.00079ZM1.49981 3.50079C1.49981 3.20412 1.58779 2.91411 1.75261 2.66743C1.91743 2.42076 2.1517 2.2285 2.42579 2.11497C2.69988 2.00144 3.00148 1.97173 3.29245 2.02961C3.58342 2.08749 3.85069 2.23035 4.06047 2.44013C4.27025 2.64991 4.41311 2.91718 4.47099 3.20815C4.52887 3.49912 4.49916 3.80072 4.38563 4.07481C4.2721 4.3489 4.07984 4.58317 3.83317 4.74799C3.58649 4.91281 3.29648 5.00079 2.99981 5.00079C2.60211 5.00039 2.22081 4.84223 1.93959 4.56101C1.65837 4.27979 1.50021 3.89849 1.49981 3.50079ZM2.99981 20.0008C2.70314 20.0008 2.41313 19.9128 2.16646 19.748C1.91978 19.5832 1.72752 19.3489 1.61399 19.0748C1.50046 18.8007 1.47076 18.4991 1.52863 18.2082C1.58651 17.9172 1.72937 17.6499 1.93915 17.4401C2.14893 17.2303 2.4162 17.0875 2.70718 17.0296C2.99815 16.9717 3.29975 17.0014 3.57384 17.115C3.84793 17.2285 4.08219 17.4208 4.24702 17.6674C4.41184 17.9141 4.49981 18.2041 4.49981 18.5008C4.49941 18.8985 4.34125 19.2798 4.06003 19.561C3.77881 19.8422 3.39751 20.0004 2.99981 20.0008ZM15.1063 17.7508H5.89331C5.75897 17.2351 5.48951 16.7647 5.11272 16.3879C4.73593 16.0111 4.26546 15.7416 3.74981 15.6073V6.39429C4.26542 6.25987 4.73586 5.99039 5.11263 5.61361C5.48941 5.23683 5.75889 4.7664 5.89331 4.25079H15.1063C15.2407 4.76643 15.5101 5.23691 15.8869 5.61369C16.2637 5.99048 16.7342 6.25994 17.2498 6.39429V15.6073C16.7341 15.7416 16.2636 16.011 15.8868 16.3878C15.51 16.7646 15.2406 17.2351 15.1063 17.7508ZM17.9998 20.0008C17.7031 20.0008 17.4131 19.9128 17.1665 19.748C16.9198 19.5832 16.7275 19.3489 16.614 19.0748C16.5005 18.8007 16.4708 18.4991 16.5286 18.2082C16.5865 17.9172 16.7294 17.6499 16.9391 17.4401C17.1489 17.2303 17.4162 17.0875 17.7072 17.0296C17.9981 16.9717 18.2997 17.0014 18.5738 17.115C18.8479 17.2285 19.0822 17.4208 19.247 17.6674C19.4118 17.9141 19.4998 18.2041 19.4998 18.5008C19.4992 18.8984 19.341 19.2796 19.0598 19.5608C18.7786 19.842 18.3975 20.0002 17.9998 20.0008Z" fill="url(#paint0_linear_298_6383)"/>
<defs>
<linearGradient id="paint0_linear_298_6383" x1="-0.000976461" y1="11.0008" x2="16.4549" y2="19.6497" gradientUnits="userSpaceOnUse">
<stop stop-color="#1541DF"/>
<stop offset="1" stop-color="#0E30A7"/>
</linearGradient>
</defs>
</svg>
