<svg width="28" height="29" viewBox="0 0 28 29" fill="none" xmlns="http://www.w3.org/2000/svg">
<g id="clarity:camera-solid" clip-path="url(#clip0_219_4534)">
<path id="Vector" d="M24.889 7.22049H19.2112L18.3868 5.10493C18.274 4.81259 18.0755 4.56113 17.8174 4.38349C17.5592 4.20584 17.2535 4.1103 16.9401 4.10938H11.0601C10.7454 4.10873 10.438 4.20354 10.1783 4.38129C9.91861 4.55903 9.71895 4.81135 9.60566 5.10493L8.789 7.22049H3.11122C2.69866 7.22049 2.303 7.38438 2.01128 7.6761C1.71955 7.96782 1.55566 8.36349 1.55566 8.77605V24.3316C1.55566 24.7442 1.71955 25.1398 2.01128 25.4315C2.303 25.7233 2.69866 25.8872 3.11122 25.8872H24.889C25.3016 25.8872 25.6972 25.7233 25.9889 25.4315C26.2807 25.1398 26.4446 24.7442 26.4446 24.3316V8.77605C26.4446 8.36349 26.2807 7.96782 25.9889 7.6761C25.6972 7.38438 25.3016 7.22049 24.889 7.22049ZM4.799 11.5994C4.63397 11.5994 4.47571 11.5338 4.35902 11.4171C4.24233 11.3004 4.17677 11.1422 4.17677 10.9772C4.17677 10.8121 4.24233 10.6539 4.35902 10.5372C4.47571 10.4205 4.63397 10.3549 4.799 10.3549H6.66566C6.83069 10.3549 6.98895 10.4205 7.10564 10.5372C7.22233 10.6539 7.28789 10.8121 7.28789 10.9772C7.28789 11.1422 7.22233 11.3004 7.10564 11.4171C6.98895 11.5338 6.83069 11.5994 6.66566 11.5994H4.799ZM14.0001 22.776C12.6156 22.776 11.2623 22.3655 10.1111 21.5963C8.95997 20.8272 8.06277 19.7339 7.53295 18.4548C7.00314 17.1757 6.86451 15.7683 7.13461 14.4104C7.40471 13.0525 8.07139 11.8053 9.05036 10.8263C10.0293 9.84733 11.2766 9.18064 12.6345 8.91055C13.9923 8.64045 15.3998 8.77908 16.6789 9.30889C17.958 9.8387 19.0512 10.7359 19.8204 11.8871C20.5896 13.0382 21.0001 14.3916 21.0001 15.776C21.0001 17.6326 20.2626 19.413 18.9499 20.7258C17.6371 22.0385 15.8566 22.776 14.0001 22.776Z" fill="url(#paint0_linear_219_4534)"/>
<path id="Vector_2" d="M8.64111 15.8224C8.64268 16.8718 8.9445 17.8989 9.51093 18.7823C10.0774 19.6657 10.8848 20.3686 11.8378 20.8079L12.6856 19.4546C12.1692 19.2349 11.7065 18.9059 11.3292 18.4904C10.9519 18.0749 10.6691 17.5827 10.5001 17.0476C10.331 16.5124 10.2798 15.947 10.35 15.3902C10.4201 14.8334 10.6099 14.2984 10.9064 13.8219C11.2029 13.3454 11.5989 12.9387 12.0675 12.6297C12.536 12.3208 13.0658 12.1169 13.6206 12.0321C14.1753 11.9472 14.7419 11.9835 15.2813 12.1383C15.8207 12.2932 16.3202 12.5629 16.7456 12.9291L17.5933 11.5602C16.7878 10.9061 15.8134 10.4937 14.783 10.3707C13.7527 10.2478 12.7086 10.4192 11.7717 10.8653C10.8349 11.3113 10.0436 12.0137 9.48948 12.891C8.93541 13.7684 8.64126 14.7847 8.64111 15.8224Z" fill="url(#paint1_linear_219_4534)"/>
</g>
<defs>
<linearGradient id="paint0_linear_219_4534" x1="1.55566" y1="14.9983" x2="19.8455" y2="25.9844" gradientUnits="userSpaceOnUse">
<stop stop-color="#1541DF"/>
<stop offset="1" stop-color="#0E30A7"/>
</linearGradient>
<linearGradient id="paint1_linear_219_4534" x1="8.64111" y1="15.57" x2="16.0906" y2="18.9158" gradientUnits="userSpaceOnUse">
<stop stop-color="#1541DF"/>
<stop offset="1" stop-color="#0E30A7"/>
</linearGradient>
<clipPath id="clip0_219_4534">
<rect width="28" height="28" fill="white" transform="translate(0 0.998047)"/>
</clipPath>
</defs>
</svg>
