<svg width="82" height="82" viewBox="0 0 82 82" fill="none" xmlns="http://www.w3.org/2000/svg">
    <g filter="url(#filter0_dd_811_3328)">
        <rect x="17" y="17" width="48" height="48" rx="4" fill="url(#paint0_linear_811_3328)"/>
        <path d="M39.573 55.3334C38.933 55.3334 38.293 55.1734 37.7064 54.8534C36.5197 54.1867 35.813 53 35.813 51.6534V44.5201C35.813 43.8401 35.373 42.84 34.9596 42.32L29.893 37C29.053 36.16 28.3997 34.6934 28.3997 33.6134V30.5201C28.3997 28.3734 30.0264 26.6934 32.093 26.6934H49.8796C51.9196 26.6934 53.573 28.3467 53.573 30.3867V33.3467C53.573 34.7467 52.733 36.36 51.933 37.1467C51.5464 37.5334 50.9064 37.5334 50.5197 37.1467C50.133 36.76 50.133 36.12 50.5197 35.7334C51.013 35.24 51.573 34.1334 51.573 33.3467V30.3867C51.573 29.4534 50.813 28.6934 49.8796 28.6934H32.093C31.1464 28.6934 30.3997 29.4934 30.3997 30.5201V33.6134C30.3997 34.1067 30.7997 35.0801 31.3197 35.6001L36.453 41C37.133 41.84 37.7996 43.2534 37.7996 44.5201V51.6534C37.7996 52.5334 38.3997 52.96 38.6663 53.1067C39.2397 53.4267 39.9197 53.4134 40.453 53.0934L42.3197 51.8934C42.7063 51.6667 43.0797 50.9334 43.0797 50.44C43.0797 49.8934 43.533 49.44 44.0797 49.44C44.6263 49.44 45.0797 49.8934 45.0797 50.44C45.0797 51.64 44.333 53.0134 43.3863 53.5867L41.533 54.7867C40.933 55.1467 40.253 55.3334 39.573 55.3334Z" fill="white"/>
        <path d="M46.4268 48.0275C43.5202 48.0275 41.1602 45.6675 41.1602 42.7608C41.1602 39.8542 43.5202 37.4941 46.4268 37.4941C49.3335 37.4941 51.6935 39.8542 51.6935 42.7608C51.6935 45.6675 49.3335 48.0275 46.4268 48.0275ZM46.4268 39.4941C44.6268 39.4941 43.1602 40.9608 43.1602 42.7608C43.1602 44.5608 44.6268 46.0275 46.4268 46.0275C48.2268 46.0275 49.6935 44.5608 49.6935 42.7608C49.6935 40.9608 48.2268 39.4941 46.4268 39.4941Z" fill="white"/>
        <path d="M51.4933 48.8261C51.24 48.8261 50.9867 48.7328 50.7867 48.5328L49.4533 47.1994C49.0667 46.8128 49.0667 46.1728 49.4533 45.7861C49.84 45.3994 50.48 45.3994 50.8667 45.7861L52.2 47.1194C52.5867 47.5061 52.5867 48.1461 52.2 48.5328C52.0133 48.7194 51.7466 48.8261 51.4933 48.8261Z" fill="white"/>
    </g>
    <defs>
        <filter id="filter0_dd_811_3328" x="0" y="0" width="82" height="82" filterUnits="userSpaceOnUse" color-interpolation-filters="sRGB">
            <feFlood flood-opacity="0" result="BackgroundImageFix"/>
            <feColorMatrix in="SourceAlpha" type="matrix" values="0 0 0 0 0 0 0 0 0 0 0 0 0 0 0 0 0 0 127 0" result="hardAlpha"/>
            <feOffset dx="5" dy="5"/>
            <feGaussianBlur stdDeviation="6"/>
            <feColorMatrix type="matrix" values="0 0 0 0 0 0 0 0 0 0 0 0 0 0 0 0 0 0 0.08 0"/>
            <feBlend mode="normal" in2="BackgroundImageFix" result="effect1_dropShadow_811_3328"/>
            <feColorMatrix in="SourceAlpha" type="matrix" values="0 0 0 0 0 0 0 0 0 0 0 0 0 0 0 0 0 0 127 0" result="hardAlpha"/>
            <feOffset dx="-5" dy="-5"/>
            <feGaussianBlur stdDeviation="6"/>
            <feColorMatrix type="matrix" values="0 0 0 0 0.0823529 0 0 0 0 0.254902 0 0 0 0 0.87451 0 0 0 0.12 0"/>
            <feBlend mode="normal" in2="effect1_dropShadow_811_3328" result="effect2_dropShadow_811_3328"/>
            <feBlend mode="normal" in="SourceGraphic" in2="effect2_dropShadow_811_3328" result="shape"/>
        </filter>
        <linearGradient id="paint0_linear_811_3328" x1="17" y1="41" x2="54.6105" y2="60.7675" gradientUnits="userSpaceOnUse">
            <stop stop-color="#1541DF"/>
            <stop offset="1" stop-color="#0E30A7"/>
        </linearGradient>
    </defs>
</svg>
