<svg width="25" height="24" viewBox="0 0 25 24" fill="none" xmlns="http://www.w3.org/2000/svg">
<path d="M17.3927 16.8008L16.4677 18.5401L20.9965 17.7997C20.0826 17.3413 18.8454 17.0137 17.3927 16.8008ZM5.72629 17.18C3.62868 17.7332 2.2998 18.6397 2.2998 19.9861C2.30067 20.2759 2.36403 20.5622 2.48556 20.8253L9.75396 19.6373L5.72629 17.18ZM22.5294 19.2008L12.4134 20.8496L15.0812 23.8846C19.4622 23.4922 22.6998 22.0928 22.6998 19.9861C22.6998 19.7053 22.6393 19.4441 22.5294 19.2008ZM10.7041 21.134L3.86892 22.2512C5.67565 23.3705 8.86453 24.0008 12.4998 24.0008C12.7201 24.0008 12.9354 23.9945 13.1524 23.99L10.7041 21.134Z" fill="url(#paint0_linear_298_6331)"/>
<path d="M12.5007 0C8.58867 0 5.37891 3.19992 5.37891 7.10304C5.37891 8.60352 5.85579 10.0013 6.66099 11.1506L11.2771 19.1306L11.2968 19.1563C11.479 19.3942 11.6568 19.5818 11.8656 19.7198C12.0744 19.8581 12.3336 19.9406 12.588 19.9152C13.0963 19.8643 13.4076 19.5053 13.7031 19.105L13.7189 19.0843L18.8151 10.4105L18.8179 10.405C18.9375 10.189 19.0258 9.96912 19.1007 9.75504C19.4444 8.91313 19.6213 8.01243 19.6215 7.10304C19.6215 3.19992 16.4127 0 12.5007 0ZM12.5007 4.0908C14.1977 4.0908 15.5223 5.41296 15.5223 7.1028C15.5223 8.79312 14.1977 10.1148 12.5007 10.1148C10.8034 10.1148 9.47811 8.79288 9.47811 7.1028C9.47811 5.4132 10.8036 4.0908 12.5007 4.0908Z" fill="url(#paint1_linear_298_6331)"/>
<defs>
<linearGradient id="paint0_linear_298_6331" x1="2.2998" y1="20.4008" x2="8.63996" y2="29.8423" gradientUnits="userSpaceOnUse">
<stop stop-color="#1541DF"/>
<stop offset="1" stop-color="#0E30A7"/>
</linearGradient>
<linearGradient id="paint1_linear_298_6331" x1="5.37891" y1="9.95989" x2="17.859" y2="14.6498" gradientUnits="userSpaceOnUse">
<stop stop-color="#1541DF"/>
<stop offset="1" stop-color="#0E30A7"/>
</linearGradient>
</defs>
</svg>
