<svg width="25" height="24" viewBox="0 0 25 24" fill="none" xmlns="http://www.w3.org/2000/svg">
<path fill-rule="evenodd" clip-rule="evenodd" d="M14.5 2C15.5262 2 16.5132 2.39444 17.2568 3.10172C18.0004 3.80901 18.4437 4.77504 18.495 5.8L18.5 6V18C18.5 19.0262 18.1056 20.0132 17.3983 20.7568C16.691 21.5004 15.725 21.9437 14.7 21.995L14.5 22H10.5C9.47376 22 8.48677 21.6056 7.74319 20.8983C6.9996 20.191 6.55631 19.225 6.505 18.2L6.5 18V6C6.5 4.97376 6.89444 3.98677 7.60172 3.24319C8.30901 2.4996 9.27504 2.05631 10.3 2.005L10.5 2H14.5ZM12.5 15C11.9696 15 11.4609 15.2107 11.0858 15.5858C10.7107 15.9609 10.5 16.4696 10.5 17C10.5 17.5304 10.7107 18.0391 11.0858 18.4142C11.4609 18.7893 11.9696 19 12.5 19C13.0304 19 13.5391 18.7893 13.9142 18.4142C14.2893 18.0391 14.5 17.5304 14.5 17C14.5 16.4696 14.2893 15.9609 13.9142 15.5858C13.5391 15.2107 13.0304 15 12.5 15ZM12.5 10C11.9696 10 11.4609 10.2107 11.0858 10.5858C10.7107 10.9609 10.5 11.4696 10.5 12C10.5 12.5304 10.7107 13.0391 11.0858 13.4142C11.4609 13.7893 11.9696 14 12.5 14C13.0304 14 13.5391 13.7893 13.9142 13.4142C14.2893 13.0391 14.5 12.5304 14.5 12C14.5 11.4696 14.2893 10.9609 13.9142 10.5858C13.5391 10.2107 13.0304 10 12.5 10ZM12.5 5C11.9696 5 11.4609 5.21071 11.0858 5.58579C10.7107 5.96086 10.5 6.46957 10.5 7C10.5 7.53043 10.7107 8.03914 11.0858 8.41421C11.4609 8.78929 11.9696 9 12.5 9C13.0304 9 13.5391 8.78929 13.9142 8.41421C14.2893 8.03914 14.5 7.53043 14.5 7C14.5 6.46957 14.2893 5.96086 13.9142 5.58579C13.5391 5.21071 13.0304 5 12.5 5Z" fill="url(#paint0_linear_298_6340)"/>
<defs>
<linearGradient id="paint0_linear_298_6340" x1="6.5" y1="12" x2="17.4146" y2="15.4419" gradientUnits="userSpaceOnUse">
<stop stop-color="#1541DF"/>
<stop offset="1" stop-color="#0E30A7"/>
</linearGradient>
</defs>
</svg>
