<svg width="276" height="274" viewBox="0 0 276 274" fill="none" xmlns="http://www.w3.org/2000/svg">
<g clip-path="url(#clip0_173_1759)" filter="url(#filter0_dd_173_1759)">
<g style="mix-blend-mode:overlay" opacity="0.6">
<path d="M284.225 167.309C285.466 169.435 286.217 171.81 286.426 174.263C286.634 176.715 286.295 179.184 285.431 181.49C284.675 183.577 283.516 185.495 282.019 187.135C280.522 188.774 278.717 190.103 276.706 191.045C274.696 191.988 272.519 192.525 270.302 192.626C268.084 192.727 265.868 192.391 263.781 191.636L95.802 130.602C92.0271 129.266 88.8536 126.628 86.8521 123.161C84.8507 119.695 84.1526 115.627 84.8834 111.69L114.007 -60.7881C114.394 -62.9874 115.211 -65.0893 116.41 -66.9737C117.61 -68.8581 119.169 -70.4881 120.998 -71.7707C122.828 -73.0532 124.892 -73.9632 127.072 -74.4487C129.253 -74.9342 131.508 -74.9856 133.708 -74.6C135.908 -74.2145 138.01 -73.3996 139.894 -72.2017C141.778 -71.0039 143.408 -69.4466 144.69 -67.6189C145.972 -65.7911 146.88 -63.7286 147.365 -61.5491C147.849 -59.3696 147.899 -57.1159 147.511 -54.9166L120.626 103.662L275.396 159.883C279.114 161.256 282.237 163.882 284.225 167.309Z" fill="url(#paint0_linear_173_1759)"/>
<path d="M136.309 94.6911L272.317 144.934L360.138 94.2304C363.367 92.3659 365.724 89.296 366.691 85.696C367.657 82.0959 367.153 78.2606 365.29 75.0339L313.172 -15.2377L243.773 24.8298C242.869 25.3626 241.869 25.7112 240.83 25.8555C239.791 25.9999 238.734 25.937 237.72 25.6707C236.706 25.4043 235.755 24.9398 234.922 24.3038C234.089 23.6678 233.39 22.873 232.866 21.9653L215.214 -8.60852C214.69 -9.51616 214.351 -10.5187 214.217 -11.5583C214.083 -12.5979 214.156 -13.6539 214.432 -14.6654C214.709 -15.6768 215.183 -16.6236 215.827 -17.4511C216.472 -18.2786 217.274 -18.9704 218.187 -19.4865L287.586 -59.554L268.114 -93.2798C266.241 -96.486 263.173 -98.8195 259.582 -99.7702C255.991 -100.721 252.168 -100.211 248.95 -98.3532L160.624 -47.3582L136.309 94.6911Z" fill="url(#paint1_linear_173_1759)"/>
<path d="M130.085 4.65128C132.755 9.31457 133.466 14.8469 132.064 20.0364C130.661 25.226 127.258 29.6497 122.601 32.3387L77.1128 58.6011C74.7997 60.1279 72.199 61.1659 69.4705 61.6513C66.7421 62.1368 63.9435 62.0593 61.2469 61.4238C58.5502 60.7882 56.0125 59.608 53.7897 57.9557C51.5668 56.3033 49.7059 54.2138 48.3212 51.8155C46.9366 49.4172 46.0574 46.7608 45.7379 44.0096C45.4183 41.2584 45.6651 38.4706 46.463 35.8174C47.2609 33.1643 48.5932 30.7019 50.3778 28.5817C52.1624 26.4615 54.3617 24.7282 56.8405 23.4884L102.202 -2.70113C104.515 -4.05845 107.073 -4.94514 109.729 -5.31012C112.385 -5.6751 115.087 -5.51116 117.679 -4.82774C120.27 -4.14431 122.701 -2.9549 124.83 -1.32805C126.959 0.298798 128.745 2.33093 130.085 4.65128Z" fill="url(#paint2_linear_173_1759)"/>
</g>
<g style="mix-blend-mode:overlay" opacity="0.8">
<path d="M279.581 184.615C280.821 186.741 281.573 189.116 281.781 191.569C281.99 194.022 281.65 196.491 280.786 198.796C280.031 200.884 278.871 202.802 277.374 204.441C275.877 206.081 274.072 207.41 272.061 208.352C270.051 209.294 267.875 209.831 265.657 209.932C263.439 210.034 261.224 209.697 259.137 208.942L91.1573 147.908C87.3911 146.56 84.2266 143.919 82.2271 140.456C80.2277 136.993 79.5231 132.932 80.2387 128.996L109.362 -43.4818C110.097 -47.9078 112.561 -51.8617 116.212 -54.4738C119.862 -57.0858 124.4 -58.142 128.828 -57.41C133.255 -56.678 137.209 -54.2178 139.819 -50.5706C142.43 -46.9234 143.483 -42.3879 142.748 -37.9619L115.981 120.968L270.688 177.226C274.446 178.538 277.604 181.162 279.581 184.615Z" fill="#ECECF3"/>
<path d="M131.664 111.998L267.672 162.241L355.493 111.537C358.723 109.673 361.08 106.603 362.046 103.003C363.012 99.4025 362.508 95.5673 360.646 92.3405L308.709 2.38409L239.31 42.4516C237.47 43.5143 235.283 43.8028 233.23 43.2538C231.178 42.7048 229.429 41.3632 228.367 39.5241L210.533 8.63504C209.471 6.79596 209.184 4.61008 209.735 2.55823C210.285 0.506389 211.629 -1.24331 213.469 -2.30596L282.868 -42.3735L263.433 -76.0362C262.516 -77.644 261.29 -79.0546 259.825 -80.1869C258.361 -81.3191 256.686 -82.1507 254.899 -82.6339C253.111 -83.117 251.245 -83.2423 249.409 -83.0023C247.572 -82.7624 245.8 -82.162 244.196 -81.2357L155.87 -30.2407L131.664 111.998Z" fill="#ECECF3"/>
<path d="M125.288 22.1294C127.958 26.7927 128.669 32.325 127.267 37.5145C125.864 42.7041 122.461 47.1278 117.804 49.8168L72.4419 76.0064C70.1288 77.5332 67.5281 78.5712 64.7996 79.0566C62.0712 79.542 59.2726 79.4646 56.576 78.8291C53.8793 78.1935 51.3416 77.0133 49.1188 75.361C46.8959 73.7086 45.035 71.6191 43.6503 69.2207C42.2657 66.8224 41.3865 64.166 41.067 61.4149C40.7474 58.6637 40.9942 55.8758 41.7921 53.2227C42.59 50.5696 43.9223 48.1072 45.7069 45.987C47.4915 43.8668 49.6908 42.1335 52.1696 40.8937L97.5313 14.7041C102.2 12.0089 107.747 11.277 112.952 12.6695C118.157 14.062 122.595 17.4648 125.288 22.1294Z" fill="#ECECF3"/>
</g>
<path d="M280.956 176.509C282.795 179.534 283.635 183.062 283.359 186.593C283.082 190.123 281.702 193.479 279.414 196.184C277.126 198.89 274.046 200.808 270.609 201.669C267.172 202.53 263.551 202.289 260.26 200.981L92.6325 139.828C88.8662 138.48 85.7017 135.839 83.7023 132.376C81.7029 128.913 80.9982 124.852 81.7138 120.916L110.873 -51.4988C111.655 -55.9405 114.17 -59.8911 117.865 -62.4813C121.56 -65.0716 126.131 -66.0893 130.574 -65.3108C135.018 -64.5321 138.968 -62.0209 141.557 -58.3296C144.145 -54.6382 145.16 -50.0691 144.378 -45.6273L117.42 112.825L272.09 169.02C275.842 170.385 278.984 173.039 280.956 176.509Z" fill="#1541DF"/>
<path d="M133.067 103.791L269.112 154.097L356.87 103.43C360.105 101.562 362.47 98.4904 363.447 94.8864C364.424 91.2823 363.935 87.4391 362.085 84.197L310.003 -6.0116L240.604 34.0559C238.779 35.0443 236.642 35.2867 234.643 34.732C232.644 34.1774 230.939 32.8689 229.886 31.0821L212.271 0.57135C211.219 -1.25102 210.934 -3.41704 211.48 -5.45022C212.026 -7.48341 213.357 -9.21721 215.181 -10.2702L284.58 -50.3377L265.035 -84.1896C263.152 -87.4125 260.069 -89.7582 256.459 -90.7139C252.849 -91.6696 249.007 -91.1575 245.771 -89.2896L157.445 -38.2946L133.067 103.791Z" fill="#1541DF"/>
<path d="M126.942 13.7775C129.629 18.4311 130.361 23.9608 128.977 29.1554C127.592 34.3499 124.205 38.7858 119.558 41.4914L74.0068 67.7903C69.3739 70.1074 64.0321 70.5696 59.0725 69.0824C54.1128 67.5952 49.9098 64.2708 47.3219 59.7884C44.734 55.306 43.9565 50.0039 45.1483 44.9651C46.3402 39.9264 49.4114 35.5313 53.7345 32.6777L99.1592 6.45167C101.466 5.1088 104.014 4.23308 106.659 3.87448C109.304 3.51589 111.993 3.68144 114.573 4.3617C117.153 5.04197 119.573 6.2236 121.695 7.83916C123.818 9.45472 125.601 11.4726 126.942 13.7775Z" fill="#1541DF"/>
</g>
<defs>
<filter id="filter0_dd_173_1759" x="-30" y="-171" width="459.756" height="474.62" filterUnits="userSpaceOnUse" color-interpolation-filters="sRGB">
<feFlood flood-opacity="0" result="BackgroundImageFix"/>
<feColorMatrix in="SourceAlpha" type="matrix" values="0 0 0 0 0 0 0 0 0 0 0 0 0 0 0 0 0 0 127 0" result="hardAlpha"/>
<feOffset dx="10" dy="10"/>
<feGaussianBlur stdDeviation="10"/>
<feColorMatrix type="matrix" values="0 0 0 0 0.823529 0 0 0 0 0.823529 0 0 0 0 0.823529 0 0 0 0.4 0"/>
<feBlend mode="normal" in2="BackgroundImageFix" result="effect1_dropShadow_173_1759"/>
<feColorMatrix in="SourceAlpha" type="matrix" values="0 0 0 0 0 0 0 0 0 0 0 0 0 0 0 0 0 0 127 0" result="hardAlpha"/>
<feOffset dx="-10" dy="-10"/>
<feGaussianBlur stdDeviation="10"/>
<feColorMatrix type="matrix" values="0 0 0 0 0.054902 0 0 0 0 0.188235 0 0 0 0 0.654902 0 0 0 0.06 0"/>
<feBlend mode="normal" in2="effect1_dropShadow_173_1759" result="effect2_dropShadow_173_1759"/>
<feBlend mode="normal" in="SourceGraphic" in2="effect2_dropShadow_173_1759" result="shape"/>
</filter>
<linearGradient id="paint0_linear_173_1759" x1="228.198" y1="219.123" x2="289.538" y2="20.6614" gradientUnits="userSpaceOnUse">
<stop stop-color="#1541DF"/>
<stop offset="1" stop-color="#0E30A7"/>
</linearGradient>
<linearGradient id="paint1_linear_173_1759" x1="282.19" y1="139.233" x2="279.878" y2="-54.6489" gradientUnits="userSpaceOnUse">
<stop stop-color="#1541DF"/>
<stop offset="1" stop-color="#0E30A7"/>
</linearGradient>
<linearGradient id="paint2_linear_173_1759" x1="99.3483" y1="45.8055" x2="87.5962" y2="7.97188" gradientUnits="userSpaceOnUse">
<stop stop-color="#1541DF"/>
<stop offset="1" stop-color="#0E30A7"/>
</linearGradient>
<clipPath id="clip0_173_1759">
<rect width="318.388" height="277.777" fill="white" transform="translate(159.194 273.62) rotate(-120)"/>
</clipPath>
</defs>
</svg>
