<svg width="25" height="24" viewBox="0 0 25 24" fill="none" xmlns="http://www.w3.org/2000/svg">
<g clip-path="url(#clip0_298_6322)">
<path d="M22.5 12.667C22.4123 12.6675 22.3253 12.6507 22.2441 12.6176C22.1629 12.5844 22.089 12.5355 22.0267 12.4737L12.5 2.94037L2.97335 12.4737C2.84582 12.5829 2.68177 12.64 2.51398 12.6335C2.3462 12.627 2.18704 12.5575 2.06831 12.4387C1.94958 12.32 1.88002 12.1609 1.87354 11.9931C1.86706 11.8253 1.92413 11.6612 2.03335 11.5337L12.0334 1.53371C12.1583 1.40954 12.3272 1.33984 12.5034 1.33984C12.6795 1.33984 12.8484 1.40954 12.9734 1.53371L22.9734 11.5337C23.0651 11.6273 23.1272 11.7458 23.1519 11.8745C23.1767 12.0032 23.1629 12.1364 23.1124 12.2573C23.0619 12.3782 22.9769 12.4816 22.868 12.5545C22.7591 12.6273 22.6311 12.6665 22.5 12.667Z" fill="url(#paint0_linear_298_6322)"/>
<path d="M12.5 5.19336L4.5 13.22V21.3334C4.5 21.687 4.64048 22.0261 4.89052 22.2762C5.14057 22.5262 5.47971 22.6667 5.83333 22.6667H10.5V16H14.5V22.6667H19.1667C19.5203 22.6667 19.8594 22.5262 20.1095 22.2762C20.3595 22.0261 20.5 21.687 20.5 21.3334V13.1734L12.5 5.19336Z" fill="url(#paint1_linear_298_6322)"/>
</g>
<defs>
<linearGradient id="paint0_linear_298_6322" x1="1.87305" y1="7.00345" x2="12.6481" y2="17.6481" gradientUnits="userSpaceOnUse">
<stop stop-color="#1541DF"/>
<stop offset="1" stop-color="#0E30A7"/>
</linearGradient>
<linearGradient id="paint1_linear_298_6322" x1="4.5" y1="13.93" x2="17.491" y2="20.1822" gradientUnits="userSpaceOnUse">
<stop stop-color="#1541DF"/>
<stop offset="1" stop-color="#0E30A7"/>
</linearGradient>
<clipPath id="clip0_298_6322">
<rect width="24" height="24" fill="white" transform="translate(0.5)"/>
</clipPath>
</defs>
</svg>
