<svg width="25" height="24" viewBox="0 0 25 24" fill="none" xmlns="http://www.w3.org/2000/svg">
<g clip-path="url(#clip0_298_6374)">
<path d="M21.5 17.7066C21.5012 18.1022 21.3904 18.4903 21.1801 18.8268C20.9698 19.1633 20.6684 19.4348 20.31 19.6105L20.2715 19.6278L16.8739 21.0591C16.8403 21.0738 16.8054 21.0853 16.7697 21.0938L11.1697 22.4784C11.1143 22.4925 11.0573 22.4997 11 22.5H1.9C1.5287 22.5 1.1726 22.3541 0.91005 22.0945C0.6475 21.8348 0.5 21.4826 0.5 21.1154V17.6539C0.5 17.2866 0.6475 16.9344 0.91005 16.6748C1.1726 16.4151 1.5287 16.2692 1.9 16.2692H4.41037L6.38962 14.3109C6.64915 14.053 6.95777 13.8486 7.29764 13.7095C7.63751 13.5703 8.0019 13.4991 8.36975 13.5H12.75C13.1197 13.5 13.4847 13.5827 13.8175 13.742C14.1504 13.9013 14.4424 14.133 14.6718 14.4199C14.9012 14.7067 15.062 15.0411 15.1421 15.3981C15.2222 15.7551 15.2195 16.1254 15.1344 16.4813L18.7954 15.6488C19.1141 15.5653 19.4479 15.5553 19.7711 15.6196C20.0944 15.6839 20.3983 15.8207 20.6597 16.0195C20.921 16.2183 21.1326 16.4739 21.2783 16.7664C21.424 17.0589 21.4999 17.3806 21.5 17.7066ZM20.1 17.7066C20.0999 17.5922 20.0731 17.4793 20.0217 17.3767C19.9704 17.2741 19.8958 17.1846 19.8038 17.1151C19.7118 17.0457 19.6049 16.9981 19.4913 16.9761C19.3777 16.9541 19.2605 16.9583 19.1489 16.9884L19.1217 16.9953L13.2592 18.3289C13.2078 18.3402 13.1553 18.346 13.1026 18.3462H10.3C10.1143 18.3462 9.9363 18.2732 9.80502 18.1434C9.67375 18.0136 9.6 17.8375 9.6 17.6539C9.6 17.4702 9.67375 17.2941 9.80502 17.1643C9.9363 17.0345 10.1143 16.9615 10.3 16.9615H12.75C13.0285 16.9615 13.2955 16.8521 13.4925 16.6574C13.6894 16.4626 13.8 16.1985 13.8 15.9231C13.8 15.6477 13.6894 15.3835 13.4925 15.1888C13.2955 14.994 13.0285 14.8846 12.75 14.8846H8.36975C8.18583 14.884 8.00363 14.9196 7.83374 14.9893C7.66385 15.059 7.50965 15.1614 7.38012 15.2905L5.4 17.248V21.1154H10.9125L16.3751 19.7645L19.7001 18.3643C19.8211 18.3013 19.9224 18.2066 19.9929 18.0907C20.0634 17.9747 20.1004 17.8419 20.1 17.7066Z" fill="url(#paint0_linear_298_6374)"/>
<path d="M24.4925 8.82995C24.4871 8.81503 24.4789 8.80133 24.4682 8.78963C24.4575 8.77792 24.4446 8.76845 24.4303 8.76175C24.4159 8.75506 24.4003 8.75128 24.3845 8.75063C24.3687 8.74997 24.3529 8.75246 24.338 8.75795L23.42 9.09243V1.01994C23.42 0.455972 22.964 0 22.4 0H14.6C14.036 0 13.58 0.455972 13.58 1.01994V9.09243L12.6605 8.75795C12.647 8.75345 12.6335 8.75045 12.62 8.75045C12.554 8.75045 12.5 8.80445 12.5 8.87045V9.76439C12.5 9.81389 12.5315 9.85888 12.5795 9.87688L18.335 11.9708C18.4415 12.0097 18.557 12.0097 18.6635 11.9708L24.4205 9.87838C24.4685 9.86038 24.5 9.81539 24.5 9.76589V8.87195C24.5 8.85695 24.497 8.84345 24.4925 8.82995ZM20.8355 3.1753L19.28 6.04912H20.144C20.21 6.04912 20.264 6.10312 20.264 6.16911V6.57559C20.264 6.64159 20.21 6.69558 20.144 6.69558H18.9995V7.28055H20.144C20.21 7.28055 20.264 7.33454 20.264 7.40054V7.80701C20.264 7.87301 20.21 7.927 20.144 7.927H18.9995V8.87945C18.9995 8.94544 18.9455 8.99944 18.8795 8.99944H18.131C18.065 8.99944 18.011 8.94544 18.011 8.87945V7.9285H16.871C16.805 7.9285 16.751 7.87451 16.751 7.80851V7.40204C16.751 7.33604 16.805 7.28204 16.871 7.28204H18.011V6.69708H16.871C16.805 6.69708 16.751 6.64309 16.751 6.57709V6.17061C16.751 6.10462 16.805 6.05062 16.871 6.05062H17.726L16.1675 3.1768C16.136 3.1198 16.157 3.04631 16.2155 3.01481C16.2335 3.00431 16.253 2.99981 16.2725 2.99981H17.108C17.1301 2.99993 17.1518 3.00616 17.1705 3.01781C17.1893 3.02945 17.2046 3.04607 17.2145 3.06581L18.485 5.59765H18.5345L19.805 3.06581C19.8245 3.02531 19.8665 2.99981 19.9115 2.99981H20.729C20.795 2.99981 20.849 3.05381 20.8505 3.1183C20.8505 3.1378 20.8445 3.1573 20.8355 3.1753Z" fill="url(#paint1_linear_298_6374)"/>
</g>
<defs>
<linearGradient id="paint0_linear_298_6374" x1="0.5" y1="18" x2="8.88668" y2="28.2851" gradientUnits="userSpaceOnUse">
<stop stop-color="#1541DF"/>
<stop offset="1" stop-color="#0E30A7"/>
</linearGradient>
<linearGradient id="paint1_linear_298_6374" x1="12.5" y1="6" x2="21.9026" y2="10.9419" gradientUnits="userSpaceOnUse">
<stop stop-color="#1541DF"/>
<stop offset="1" stop-color="#0E30A7"/>
</linearGradient>
<clipPath id="clip0_298_6374">
<rect width="24" height="24" fill="white" transform="translate(0.5)"/>
</clipPath>
</defs>
</svg>
