<svg width="1440" height="941" viewBox="0 0 1440 941" fill="none" xmlns="http://www.w3.org/2000/svg">
    <g opacity="0.8" clip-path="url(#clip0_0_1)" filter="url(#filter0_dd_0_1)">
        <g style="mix-blend-mode:overlay" opacity="0.6">
            <path d="M1138.54 303.391C1135.42 304.244 1132.16 304.391 1128.98 303.821C1125.79 303.252 1122.78 301.981 1120.14 300.1C1117.75 298.43 1115.71 296.305 1114.14 293.846C1112.57 291.387 1111.49 288.642 1110.98 285.768C1110.46 282.894 1110.52 279.947 1111.14 277.096C1111.76 274.245 1112.94 271.545 1114.6 269.151L1248.88 76.5495C1251.85 72.209 1256.27 69.0754 1261.34 67.7122C1266.42 66.349 1271.81 66.8456 1276.56 69.1127L1485.5 164.76C1488.15 166 1490.54 167.752 1492.53 169.916C1494.51 172.081 1496.05 174.615 1497.06 177.375C1498.07 180.135 1498.52 183.066 1498.4 186.001C1498.28 188.936 1497.58 191.817 1496.35 194.48C1495.11 197.143 1493.37 199.536 1491.21 201.522C1489.06 203.508 1486.53 205.048 1483.78 206.055C1481.02 207.061 1478.1 207.514 1475.17 207.388C1472.24 207.262 1469.37 206.559 1466.71 205.319L1274.65 117.241L1150.95 294.701C1147.95 298.958 1143.56 302.031 1138.54 303.391Z" fill="#ECECF3"/>
            <path d="M1280.72 140.21L1170.95 295.874L1205.55 424.663C1206.82 429.399 1209.92 433.437 1214.16 435.888C1218.4 438.34 1223.43 439.004 1228.16 437.735L1360.31 402.237L1332.97 300.464C1332.6 299.135 1332.5 297.746 1332.66 296.378C1332.83 295.009 1333.27 293.688 1333.95 292.491C1334.63 291.293 1335.54 290.243 1336.63 289.401C1337.72 288.559 1338.97 287.942 1340.29 287.585L1385.05 275.562C1386.38 275.205 1387.77 275.115 1389.13 275.298C1390.49 275.482 1391.81 275.934 1393 276.629C1394.19 277.324 1395.23 278.248 1396.06 279.348C1396.89 280.448 1397.5 281.702 1397.84 283.037L1425.18 384.81L1474.55 371.548C1479.26 370.259 1483.25 367.156 1485.67 362.918C1488.1 358.68 1488.74 353.652 1487.48 348.932L1452.68 219.403L1280.72 140.21Z" fill="#ECECF3"/>
            <path d="M1397.04 162.926C1390.22 164.732 1382.97 163.754 1376.86 160.208C1370.75 156.661 1366.29 150.834 1364.45 144.004L1346.54 77.2968C1345.38 73.8396 1344.95 70.1833 1345.25 66.5526C1345.56 62.922 1346.61 59.3938 1348.32 56.1848C1350.04 52.9758 1352.4 50.1539 1355.25 47.8925C1358.1 45.6311 1361.38 43.9781 1364.89 43.035C1368.4 42.0918 1372.07 41.8786 1375.66 42.4083C1379.26 42.9381 1382.71 44.1996 1385.81 46.1154C1388.91 48.0311 1391.58 50.5606 1393.66 53.5484C1395.75 56.5362 1397.2 59.9191 1397.94 63.4892L1415.81 130.012C1416.75 133.41 1417.01 136.961 1416.57 140.459C1416.13 143.957 1415.01 147.333 1413.27 150.392C1411.52 153.452 1409.19 156.134 1406.41 158.286C1403.62 160.437 1400.44 162.014 1397.04 162.926Z" fill="#ECECF3"/>
        </g>
        <g style="mix-blend-mode:overlay" opacity="0.8">
            <path d="M1118.16 291.606C1115.04 292.459 1111.78 292.606 1108.59 292.037C1105.41 291.467 1102.4 290.196 1099.76 288.315C1097.37 286.645 1095.33 284.521 1093.76 282.062C1092.18 279.602 1091.11 276.857 1090.59 273.983C1090.08 271.109 1090.13 268.163 1090.76 265.311C1091.38 262.46 1092.56 259.76 1094.22 257.366L1228.49 64.7647C1231.48 60.4395 1235.9 57.3182 1240.97 55.9564C1246.04 54.5945 1251.43 55.0805 1256.18 57.3279L1465.11 152.975C1470.48 155.414 1474.66 159.889 1476.74 165.414C1478.82 170.939 1478.62 177.062 1476.19 182.436C1473.77 187.81 1469.31 191.996 1463.8 194.071C1458.29 196.146 1452.18 195.942 1446.81 193.503L1254.27 105.456L1130.54 282.824C1127.61 287.152 1123.21 290.27 1118.16 291.606Z" fill="#888888"/>
            <path d="M1260.34 128.427L1150.57 284.091L1185.17 412.88C1186.44 417.616 1189.54 421.653 1193.78 424.105C1198.02 426.556 1203.05 427.221 1207.78 425.952L1339.46 390.578L1312.13 288.805C1311.4 286.106 1311.77 283.23 1313.17 280.81C1314.56 278.39 1316.85 276.624 1319.54 275.901L1364.76 263.754C1367.45 263.031 1370.32 263.409 1372.74 264.807C1375.16 266.204 1376.92 268.505 1377.65 271.204L1404.99 372.977L1454.26 359.74C1456.61 359.122 1458.82 358.044 1460.75 356.569C1462.68 355.093 1464.3 353.25 1465.52 351.143C1466.74 349.037 1467.53 346.71 1467.85 344.296C1468.17 341.881 1468 339.427 1467.37 337.074L1432.58 207.545L1260.34 128.427Z" fill="#888888"/>
            <path d="M1376.49 150.89C1369.68 152.695 1362.42 151.718 1356.31 148.171C1350.2 144.624 1345.74 138.798 1343.91 131.968L1326.04 65.4452C1324.88 61.988 1324.45 58.3317 1324.75 54.7011C1325.06 51.0704 1326.11 47.5422 1327.83 44.3332C1329.54 41.1242 1331.9 38.3023 1334.75 36.0409C1337.6 33.7795 1340.88 32.1265 1344.39 31.1834C1347.9 30.2403 1351.57 30.027 1355.16 30.5568C1358.76 31.0865 1362.22 32.348 1365.31 34.2638C1368.41 36.1796 1371.08 38.7091 1373.17 41.6968C1375.25 44.6846 1376.7 48.0675 1377.44 51.6376L1395.31 118.16C1397.15 125.006 1396.2 132.301 1392.67 138.439C1389.14 144.577 1383.32 149.055 1376.49 150.89Z" fill="#888888"/>
        </g>
        <path d="M1127.98 296.111C1123.52 297.418 1118.76 297.285 1114.37 295.733C1109.99 294.181 1106.2 291.287 1103.54 287.461C1100.88 283.635 1099.49 279.07 1099.56 274.412C1099.63 269.753 1101.17 265.237 1103.94 261.501L1238.25 69.387C1241.23 65.0618 1245.65 61.9405 1250.72 60.5786C1255.79 59.2168 1261.18 59.7028 1265.93 61.9502L1474.77 157.622C1480.14 160.126 1484.3 164.664 1486.34 170.238C1488.37 175.811 1488.12 181.964 1485.63 187.343C1483.13 192.721 1478.61 196.885 1473.05 198.917C1467.49 200.95 1461.35 200.685 1455.98 198.181L1264.11 110.054L1140.48 287.397C1137.48 291.698 1133.05 294.787 1127.98 296.111Z" fill="#EBEFFF"/>
        <path d="M1270.27 132.998L1160.42 288.687L1194.99 417.383C1196.26 422.127 1199.36 426.176 1203.6 428.643C1207.84 431.109 1212.88 431.794 1217.62 430.548L1349.68 395.074L1322.34 293.301C1321.7 290.647 1322.12 287.851 1323.5 285.5C1324.88 283.15 1327.11 281.429 1329.74 280.7L1374.4 268.702C1377.07 267.985 1379.91 268.36 1382.31 269.745C1384.7 271.129 1386.45 273.41 1387.17 276.084L1414.51 377.857L1464.06 364.545C1468.79 363.25 1472.81 360.131 1475.24 355.871C1477.68 351.611 1478.33 346.556 1477.05 341.812L1442.26 212.283L1270.27 132.998Z" fill="#EBEFFF"/>
        <path d="M1386.53 155.832C1379.72 157.662 1372.45 156.711 1366.33 153.186C1360.21 149.662 1355.73 143.851 1353.87 137.028L1335.93 70.2276C1334.56 63.5552 1335.78 56.6131 1339.34 50.8194C1342.91 45.0258 1348.55 40.8178 1355.11 39.0552C1361.67 37.2925 1368.66 38.1082 1374.65 41.3356C1380.64 44.563 1385.17 49.9585 1387.33 56.4199L1405.23 123.035C1406.15 126.422 1406.4 129.956 1405.96 133.437C1405.52 136.918 1404.4 140.278 1402.66 143.323C1400.92 146.369 1398.61 149.041 1395.84 151.187C1393.07 153.333 1389.91 154.912 1386.53 155.832Z" fill="#EBEFFF"/>
    </g>
    <g opacity="0.8" clip-path="url(#clip1_0_1)" filter="url(#filter1_dd_0_1)">
        <g style="mix-blend-mode:overlay" opacity="0.6">
            <path d="M-25.8926 1032.74C-29.0865 1032.26 -32.1317 1031.06 -34.8075 1029.25C-37.4834 1027.44 -39.723 1025.05 -41.3641 1022.26C-42.8711 1019.76 -43.8721 1016.99 -44.3101 1014.11C-44.7481 1011.22 -44.6144 1008.28 -43.9167 1005.44C-43.219 1002.6 -41.971 999.935 -40.2439 997.582C-38.5168 995.23 -36.3446 993.241 -33.8512 991.73L167.109 870.321C171.588 867.563 176.901 866.496 182.092 867.313C187.283 868.13 192.011 870.777 195.427 874.777L347.458 1047.08C349.383 1049.29 350.855 1051.87 351.788 1054.65C352.721 1057.43 353.099 1060.38 352.898 1063.31C352.697 1066.24 351.922 1069.1 350.618 1071.73C349.313 1074.37 347.505 1076.71 345.295 1078.65C343.086 1080.58 340.519 1082.06 337.741 1082.99C334.963 1083.93 332.028 1084.31 329.104 1084.11C326.18 1083.91 323.324 1083.14 320.7 1081.83C318.075 1080.53 315.734 1078.72 313.808 1076.5L174.119 917.974L-11.0238 1029.85C-15.4944 1032.52 -20.7524 1033.54 -25.8926 1032.74Z" fill="#ECECF3"/>
            <path d="M170.332 941.429L6.77753 1039.05L-13.953 1170.78C-14.7153 1175.63 -13.527 1180.57 -10.6495 1184.54C-7.77203 1188.5 -3.44105 1191.15 1.39064 1191.91L136.562 1213.19L152.944 1109.09C153.146 1107.72 153.615 1106.41 154.326 1105.23C155.036 1104.05 155.972 1103.02 157.081 1102.2C158.19 1101.38 159.45 1100.79 160.787 1100.47C162.124 1100.14 163.512 1100.08 164.871 1100.3L210.652 1107.5C212.011 1107.71 213.314 1108.19 214.486 1108.92C215.658 1109.64 216.675 1110.59 217.48 1111.7C218.284 1112.82 218.859 1114.09 219.172 1115.43C219.485 1116.78 219.529 1118.17 219.302 1119.53L202.92 1223.63L253.421 1231.58C258.24 1232.31 263.154 1231.1 267.089 1228.21C271.024 1225.32 273.659 1220.99 274.419 1216.16L295.268 1083.67L170.332 941.429Z" fill="#ECECF3"/>
            <path d="M267.384 1009.46C260.42 1008.34 254.185 1004.49 250.045 998.772C245.905 993.049 244.198 985.913 245.298 978.927L256.035 910.694C256.386 907.066 257.473 903.548 259.23 900.356C260.986 897.164 263.375 894.365 266.25 892.131C269.125 889.898 272.424 888.277 275.946 887.368C279.467 886.46 283.136 886.282 286.728 886.848C290.319 887.413 293.756 888.708 296.828 890.654C299.901 892.601 302.543 895.157 304.593 898.165C306.642 901.174 308.056 904.571 308.748 908.148C309.439 911.726 309.393 915.408 308.612 918.968L297.905 987.011C297.381 990.498 296.175 993.848 294.355 996.867C292.535 999.885 290.138 1002.51 287.301 1004.6C284.464 1006.69 281.243 1008.19 277.825 1009.02C274.407 1009.86 270.858 1010.01 267.384 1009.46Z" fill="#ECECF3"/>
        </g>
        <g style="mix-blend-mode:overlay" opacity="0.8">
            <path d="M-39.7258 1013.69C-42.9197 1013.21 -45.9649 1012.01 -48.6408 1010.2C-51.3167 1008.39 -53.5563 1006 -55.1974 1003.21C-56.7043 1000.71 -57.7054 997.941 -58.1433 995.055C-58.5813 992.169 -58.4476 989.224 -57.7499 986.389C-57.0522 983.554 -55.8042 980.883 -54.0771 978.531C-52.3501 976.179 -50.1778 974.19 -47.6845 972.679L153.276 851.27C157.761 848.531 163.068 847.476 168.254 848.292C173.44 849.108 178.167 851.742 181.594 855.726L333.624 1028.03C337.535 1032.44 339.538 1038.23 339.191 1044.12C338.844 1050.01 336.177 1055.53 331.775 1059.45C327.373 1063.38 321.598 1065.39 315.72 1065.04C309.842 1064.7 304.343 1062.03 300.432 1057.62L160.286 898.923L-24.8421 1010.7C-29.2836 1013.46 -34.5685 1014.52 -39.7258 1013.69Z" fill="#888888"/>
            <path d="M156.498 922.378L-7.05572 1020L-27.7863 1151.73C-28.5486 1156.58 -27.3603 1161.52 -24.4828 1165.49C-21.6053 1169.45 -17.2743 1172.1 -12.4426 1172.86L122.257 1194.06L138.639 1089.96C139.073 1087.2 140.584 1084.72 142.838 1083.08C145.093 1081.43 147.906 1080.75 150.66 1081.18L196.913 1088.46C199.667 1088.9 202.135 1090.41 203.775 1092.67C205.415 1094.93 206.092 1097.75 205.658 1100.51L189.276 1204.61L239.682 1212.54C242.08 1212.93 244.532 1212.84 246.897 1212.28C249.262 1211.72 251.493 1210.69 253.462 1209.26C255.43 1207.83 257.098 1206.03 258.369 1203.95C259.641 1201.87 260.49 1199.56 260.869 1197.16L281.718 1064.67L156.498 922.378Z" fill="#888888"/>
            <path d="M253.501 990.108C246.537 988.987 240.302 985.143 236.162 979.421C232.023 973.698 230.316 966.562 231.415 959.575L242.123 891.532C242.473 887.904 243.561 884.386 245.317 881.194C247.074 878.001 249.463 875.203 252.337 872.969C255.212 870.736 258.512 869.115 262.033 868.206C265.555 867.297 269.224 867.12 272.815 867.685C276.406 868.251 279.844 869.546 282.916 871.492C285.988 873.439 288.63 875.995 290.68 879.003C292.73 882.011 294.144 885.409 294.835 888.986C295.526 892.564 295.48 896.246 294.7 899.806L283.992 967.849C282.89 974.852 279.059 981.131 273.34 985.305C267.622 989.48 260.486 991.207 253.501 990.108Z" fill="#888888"/>
        </g>
        <path d="M-32.5859 1021.8C-37.1924 1021.18 -41.487 1019.12 -44.8628 1015.92C-48.2385 1012.72 -50.5246 1008.54 -51.3978 1003.96C-52.271 999.388 -51.6872 994.652 -49.729 990.424C-47.7707 986.197 -44.537 982.693 -40.485 980.406L160.306 859.455C164.791 856.716 170.099 855.661 175.285 856.477C180.47 857.293 185.197 859.928 188.624 863.912L340.561 1036.2C344.449 1040.67 346.406 1046.51 346.001 1052.43C345.595 1058.35 342.861 1063.86 338.398 1067.77C333.936 1071.67 328.112 1073.63 322.207 1073.23C316.302 1072.83 310.8 1070.09 306.911 1065.62L167.411 907.124L-17.6227 1018.92C-22.1126 1021.63 -27.4164 1022.65 -32.5859 1021.8Z" fill="#EBEFFF"/>
        <path d="M163.718 930.594L0.0692737 1028.2L-20.6464 1159.84C-21.4101 1164.69 -20.2264 1169.65 -17.3539 1173.63C-14.4815 1177.6 -10.154 1180.28 -5.31762 1181.06L129.759 1202.32L146.141 1098.22C146.639 1095.54 148.155 1093.15 150.371 1091.56C152.588 1089.98 155.331 1089.31 158.024 1089.71L203.71 1096.9C206.439 1097.33 208.885 1098.83 210.51 1101.07C212.135 1103.31 212.806 1106.1 212.376 1108.84L195.994 1212.94L246.683 1220.92C251.527 1221.65 256.467 1220.44 260.422 1217.53C264.377 1214.63 267.026 1210.28 267.79 1205.42L288.64 1072.93L163.718 930.594Z" fill="#EBEFFF"/>
        <path d="M260.661 998.704C253.693 997.607 247.444 993.786 243.284 988.078C239.124 982.37 237.391 975.24 238.466 968.25L249.218 899.923C250.677 893.269 254.614 887.423 260.226 883.578C265.838 879.733 272.701 878.18 279.413 879.237C286.125 880.293 292.179 883.878 296.339 889.261C300.499 894.643 302.451 901.417 301.795 908.197L291.073 976.335C290.539 979.804 289.33 983.135 287.513 986.137C285.696 989.138 283.307 991.752 280.483 993.829C277.659 995.907 274.455 997.406 271.054 998.242C267.653 999.079 264.122 999.235 260.661 998.704Z" fill="#EBEFFF"/>
    </g>
    <g filter="url(#filter2_dd_0_1)">
        <circle cx="105.5" cy="318.443" r="53.4027" transform="rotate(-102.942 105.5 318.443)" fill="url(#paint0_linear_0_1)" fill-opacity="0.08"/>
        <circle cx="38.1269" cy="335.325" r="13.3507" transform="rotate(-102.942 38.1269 335.325)" fill="url(#paint1_linear_0_1)" fill-opacity="0.08"/>
    </g>
    <g filter="url(#filter3_dd_0_1)">
        <circle cx="1371.5" cy="1049.5" r="97.9639" transform="rotate(-43.5923 1371.5 1049.5)" fill="url(#paint2_linear_0_1)" fill-opacity="0.08"/>
        <circle cx="1281.85" cy="958.966" r="24.491" transform="rotate(-43.5923 1281.85 958.966)" fill="url(#paint3_linear_0_1)" fill-opacity="0.08"/>
    </g>
    <defs>
        <filter id="filter0_dd_0_1" x="1029" y="-16.998" width="532.413" height="495.209" filterUnits="userSpaceOnUse" color-interpolation-filters="sRGB">
            <feFlood flood-opacity="0" result="BackgroundImageFix"/>
            <feColorMatrix in="SourceAlpha" type="matrix" values="0 0 0 0 0 0 0 0 0 0 0 0 0 0 0 0 0 0 127 0" result="hardAlpha"/>
            <feOffset dx="5" dy="5"/>
            <feGaussianBlur stdDeviation="6"/>
            <feColorMatrix type="matrix" values="0 0 0 0 0 0 0 0 0 0 0 0 0 0 0 0 0 0 0.08 0"/>
            <feBlend mode="normal" in2="BackgroundImageFix" result="effect1_dropShadow_0_1"/>
            <feColorMatrix in="SourceAlpha" type="matrix" values="0 0 0 0 0 0 0 0 0 0 0 0 0 0 0 0 0 0 127 0" result="hardAlpha"/>
            <feOffset dx="-5" dy="-5"/>
            <feGaussianBlur stdDeviation="6"/>
            <feColorMatrix type="matrix" values="0 0 0 0 0.0823529 0 0 0 0 0.254902 0 0 0 0 0.87451 0 0 0 0.12 0"/>
            <feBlend mode="normal" in2="effect1_dropShadow_0_1" result="effect2_dropShadow_0_1"/>
            <feBlend mode="normal" in="SourceGraphic" in2="effect2_dropShadow_0_1" result="shape"/>
        </filter>
        <filter id="filter1_dd_0_1" x="-105" y="800" width="503.662" height="459.82" filterUnits="userSpaceOnUse" color-interpolation-filters="sRGB">
            <feFlood flood-opacity="0" result="BackgroundImageFix"/>
            <feColorMatrix in="SourceAlpha" type="matrix" values="0 0 0 0 0 0 0 0 0 0 0 0 0 0 0 0 0 0 127 0" result="hardAlpha"/>
            <feOffset dx="5" dy="5"/>
            <feGaussianBlur stdDeviation="6"/>
            <feColorMatrix type="matrix" values="0 0 0 0 0 0 0 0 0 0 0 0 0 0 0 0 0 0 0.08 0"/>
            <feBlend mode="normal" in2="BackgroundImageFix" result="effect1_dropShadow_0_1"/>
            <feColorMatrix in="SourceAlpha" type="matrix" values="0 0 0 0 0 0 0 0 0 0 0 0 0 0 0 0 0 0 127 0" result="hardAlpha"/>
            <feOffset dx="-5" dy="-5"/>
            <feGaussianBlur stdDeviation="6"/>
            <feColorMatrix type="matrix" values="0 0 0 0 0.0823529 0 0 0 0 0.254902 0 0 0 0 0.87451 0 0 0 0.12 0"/>
            <feBlend mode="normal" in2="effect1_dropShadow_0_1" result="effect2_dropShadow_0_1"/>
            <feBlend mode="normal" in="SourceGraphic" in2="effect2_dropShadow_0_1" result="shape"/>
        </filter>
        <filter id="filter2_dd_0_1" x="7.77319" y="248.027" width="168.141" height="140.83" filterUnits="userSpaceOnUse" color-interpolation-filters="sRGB">
            <feFlood flood-opacity="0" result="BackgroundImageFix"/>
            <feColorMatrix in="SourceAlpha" type="matrix" values="0 0 0 0 0 0 0 0 0 0 0 0 0 0 0 0 0 0 127 0" result="hardAlpha"/>
            <feOffset dx="5" dy="5"/>
            <feGaussianBlur stdDeviation="6"/>
            <feColorMatrix type="matrix" values="0 0 0 0 0 0 0 0 0 0 0 0 0 0 0 0 0 0 0.08 0"/>
            <feBlend mode="normal" in2="BackgroundImageFix" result="effect1_dropShadow_0_1"/>
            <feColorMatrix in="SourceAlpha" type="matrix" values="0 0 0 0 0 0 0 0 0 0 0 0 0 0 0 0 0 0 127 0" result="hardAlpha"/>
            <feOffset dx="-5" dy="-5"/>
            <feGaussianBlur stdDeviation="6"/>
            <feColorMatrix type="matrix" values="0 0 0 0 1 0 0 0 0 1 0 0 0 0 1 0 0 0 0.6 0"/>
            <feBlend mode="normal" in2="effect1_dropShadow_0_1" result="effect2_dropShadow_0_1"/>
            <feBlend mode="normal" in="SourceGraphic" in2="effect2_dropShadow_0_1" result="shape"/>
        </filter>
        <filter id="filter3_dd_0_1" x="1240.36" y="917.475" width="246.103" height="246.99" filterUnits="userSpaceOnUse" color-interpolation-filters="sRGB">
            <feFlood flood-opacity="0" result="BackgroundImageFix"/>
            <feColorMatrix in="SourceAlpha" type="matrix" values="0 0 0 0 0 0 0 0 0 0 0 0 0 0 0 0 0 0 127 0" result="hardAlpha"/>
            <feOffset dx="5" dy="5"/>
            <feGaussianBlur stdDeviation="6"/>
            <feColorMatrix type="matrix" values="0 0 0 0 0 0 0 0 0 0 0 0 0 0 0 0 0 0 0.08 0"/>
            <feBlend mode="normal" in2="BackgroundImageFix" result="effect1_dropShadow_0_1"/>
            <feColorMatrix in="SourceAlpha" type="matrix" values="0 0 0 0 0 0 0 0 0 0 0 0 0 0 0 0 0 0 127 0" result="hardAlpha"/>
            <feOffset dx="-5" dy="-5"/>
            <feGaussianBlur stdDeviation="6"/>
            <feColorMatrix type="matrix" values="0 0 0 0 1 0 0 0 0 1 0 0 0 0 1 0 0 0 0.6 0"/>
            <feBlend mode="normal" in2="effect1_dropShadow_0_1" result="effect2_dropShadow_0_1"/>
            <feBlend mode="normal" in="SourceGraphic" in2="effect2_dropShadow_0_1" result="shape"/>
        </filter>
        <linearGradient id="paint0_linear_0_1" x1="52.0973" y1="318.443" x2="135.785" y2="362.428" gradientUnits="userSpaceOnUse">
            <stop stop-color="#1541DF"/>
            <stop offset="1" stop-color="#0E30A7"/>
        </linearGradient>
        <linearGradient id="paint1_linear_0_1" x1="24.7762" y1="335.325" x2="45.6981" y2="346.321" gradientUnits="userSpaceOnUse">
            <stop stop-color="#1541DF"/>
            <stop offset="1" stop-color="#0E30A7"/>
        </linearGradient>
        <linearGradient id="paint2_linear_0_1" x1="1273.54" y1="1049.5" x2="1427.06" y2="1130.19" gradientUnits="userSpaceOnUse">
            <stop stop-color="#1541DF"/>
            <stop offset="1" stop-color="#0E30A7"/>
        </linearGradient>
        <linearGradient id="paint3_linear_0_1" x1="1257.36" y1="958.966" x2="1295.74" y2="979.138" gradientUnits="userSpaceOnUse">
            <stop stop-color="#1541DF"/>
            <stop offset="1" stop-color="#0E30A7"/>
        </linearGradient>
        <clipPath id="clip0_0_1">
            <rect width="417.958" height="365.288" fill="white" transform="translate(1046 108.43) rotate(-15.0359)"/>
        </clipPath>
        <clipPath id="clip1_0_1">
            <rect width="417.958" height="365.288" fill="white" transform="translate(-31.2144 817) rotate(8.94314)"/>
        </clipPath>
    </defs>
</svg>
