<svg width="1440" height="1401" viewBox="0 0 1440 1401" fill="none" xmlns="http://www.w3.org/2000/svg">
    <g clip-path="url(#clip0_0_1)" filter="url(#filter0_dd_0_1)">
        <g style="mix-blend-mode:overlay" opacity="0.6">
            <path d="M407.616 1303.09C405.482 1303.1 403.373 1302.63 401.441 1301.72C399.51 1300.82 397.804 1299.49 396.447 1297.84C395.208 1296.37 394.27 1294.67 393.688 1292.83C393.106 1290.99 392.891 1289.06 393.055 1287.14C393.219 1285.22 393.759 1283.35 394.644 1281.64C395.529 1279.93 396.742 1278.41 398.214 1277.17L516.842 1177.44C519.481 1175.18 522.837 1173.94 526.307 1173.94C529.777 1173.94 533.133 1175.18 535.772 1177.44L652.633 1274.14C654.117 1275.38 655.341 1276.91 656.235 1278.63C657.13 1280.35 657.678 1282.23 657.848 1284.16C658.018 1286.09 657.806 1288.03 657.226 1289.88C656.645 1291.73 655.706 1293.45 654.463 1294.93C653.22 1296.42 651.697 1297.65 649.981 1298.54C648.265 1299.44 646.39 1299.99 644.462 1300.16C642.535 1300.33 640.592 1300.12 638.746 1299.53C636.9 1298.95 635.187 1298.01 633.703 1296.77L526.307 1207.77L417.018 1299.67C414.375 1301.87 411.051 1303.08 407.616 1303.09Z" fill="url(#paint0_linear_0_1)"/>
            <path d="M526.244 1223.45L429.574 1303.85L429.574 1391.83C429.574 1395.06 430.858 1398.16 433.141 1400.45C435.425 1402.74 438.523 1404.03 441.753 1404.03L532.112 1404.03L532.112 1334.5C532.104 1333.59 532.276 1332.69 532.617 1331.84C532.959 1331 533.465 1330.23 534.104 1329.59C534.744 1328.94 535.505 1328.43 536.343 1328.08C537.182 1327.73 538.082 1327.55 538.99 1327.55L569.594 1327.55C570.502 1327.55 571.402 1327.73 572.24 1328.08C573.079 1328.43 573.84 1328.94 574.48 1329.59C575.119 1330.23 575.624 1331 575.966 1331.84C576.308 1332.69 576.48 1333.59 576.472 1334.5L576.472 1404.03L610.23 1404.03C613.449 1404.01 616.53 1402.72 618.801 1400.43C621.071 1398.14 622.345 1395.05 622.345 1391.83L622.345 1303.34L526.244 1223.45Z" fill="url(#paint1_linear_0_1)"/>
            <path d="M596.538 1257.83C591.879 1257.82 587.418 1255.95 584.13 1252.65C580.842 1249.34 578.996 1244.87 578.996 1240.2L578.996 1194.63C578.852 1192.23 579.2 1189.82 580.018 1187.56C580.836 1185.3 582.107 1183.23 583.753 1181.48C585.399 1179.73 587.385 1178.34 589.589 1177.38C591.793 1176.43 594.168 1175.94 596.569 1175.94C598.97 1175.94 601.345 1176.43 603.549 1177.38C605.753 1178.34 607.739 1179.73 609.385 1181.48C611.031 1183.23 612.302 1185.3 613.12 1187.56C613.938 1189.82 614.286 1192.23 614.142 1194.63L614.142 1240.07C614.159 1242.4 613.716 1244.71 612.839 1246.86C611.961 1249.01 610.667 1250.97 609.031 1252.62C607.394 1254.28 605.448 1255.59 603.304 1256.48C601.16 1257.37 598.86 1257.83 596.538 1257.83Z" fill="url(#paint2_linear_0_1)"/>
        </g>
        <g style="mix-blend-mode:overlay" opacity="0.8">
            <path d="M396.636 1292.09C394.503 1292.1 392.394 1291.63 390.462 1290.73C388.53 1289.82 386.824 1288.49 385.467 1286.84C384.228 1285.37 383.291 1283.67 382.709 1281.83C382.127 1279.99 381.912 1278.06 382.076 1276.14C382.24 1274.22 382.78 1272.36 383.665 1270.64C384.55 1268.93 385.763 1267.42 387.234 1266.18L505.862 1166.44C508.507 1164.19 511.861 1162.96 515.327 1162.96C518.794 1162.96 522.148 1164.19 524.793 1166.44L641.654 1263.14C644.658 1265.61 646.558 1269.18 646.937 1273.06C647.316 1276.93 646.142 1280.8 643.673 1283.81C641.205 1286.82 637.644 1288.72 633.775 1289.1C629.905 1289.48 626.043 1288.3 623.039 1285.83L515.327 1196.78L406.038 1288.61C403.424 1290.87 400.086 1292.1 396.636 1292.09Z" fill="#555555"/>
            <path d="M515.264 1212.45L418.595 1292.85L418.595 1380.83C418.595 1384.06 419.878 1387.17 422.162 1389.45C424.446 1391.74 427.543 1393.03 430.773 1393.03L520.817 1393.03L520.817 1323.5C520.817 1321.66 521.548 1319.89 522.85 1318.59C524.152 1317.28 525.917 1316.55 527.758 1316.55L558.677 1316.55C560.518 1316.55 562.284 1317.28 563.585 1318.59C564.887 1319.89 565.618 1321.66 565.618 1323.5L565.618 1393.03L599.314 1393.03C600.918 1393.04 602.509 1392.73 603.994 1392.12C605.478 1391.51 606.828 1390.61 607.966 1389.48C609.104 1388.34 610.006 1387 610.622 1385.51C611.238 1384.03 611.555 1382.44 611.555 1380.83L611.555 1292.34L515.264 1212.45Z" fill="#555555"/>
            <path d="M585.495 1246.64C580.837 1246.63 576.375 1244.76 573.087 1241.46C569.799 1238.15 567.953 1233.68 567.953 1229.01L567.953 1183.57C567.809 1181.17 568.157 1178.76 568.975 1176.5C569.794 1174.24 571.065 1172.17 572.711 1170.42C574.357 1168.67 576.343 1167.28 578.547 1166.32C580.75 1165.37 583.126 1164.88 585.526 1164.88C587.927 1164.88 590.302 1165.37 592.506 1166.32C594.71 1167.28 596.696 1168.67 598.342 1170.42C599.988 1172.17 601.259 1174.24 602.077 1176.5C602.895 1178.76 603.243 1181.17 603.1 1183.57L603.1 1229.01C603.1 1233.69 601.245 1238.17 597.943 1241.48C594.642 1244.79 590.164 1246.64 585.495 1246.64Z" fill="#555555"/>
        </g>
        <path d="M402.126 1296.64C399.057 1296.71 396.045 1295.81 393.514 1294.07C390.984 1292.33 389.063 1289.84 388.023 1286.95C386.984 1284.05 386.879 1280.91 387.722 1277.95C388.566 1274.99 390.315 1272.38 392.724 1270.47L511.289 1171.05C513.933 1168.81 517.287 1167.57 520.754 1167.57C524.22 1167.57 527.575 1168.81 530.219 1171.05L647.017 1267.75C650.013 1270.27 651.889 1273.87 652.232 1277.77C652.575 1281.67 651.358 1285.55 648.847 1288.55C646.337 1291.55 642.74 1293.43 638.846 1293.77C634.953 1294.12 631.083 1292.9 628.087 1290.38L520.817 1201.39L411.591 1293.23C408.94 1295.45 405.585 1296.66 402.126 1296.64Z" fill="#1541DF"/>
        <path d="M520.817 1217.06L424.085 1297.46L424.085 1385.38C424.085 1388.62 425.366 1391.73 427.648 1394.03C429.93 1396.32 433.027 1397.62 436.263 1397.64L526.559 1397.64L526.559 1328.12C526.608 1326.32 527.353 1324.6 528.635 1323.34C529.918 1322.08 531.64 1321.37 533.437 1321.35L563.978 1321.35C565.802 1321.35 567.551 1322.08 568.841 1323.37C570.131 1324.66 570.856 1326.41 570.856 1328.24L570.856 1397.77L604.74 1397.77C607.976 1397.75 611.074 1396.45 613.356 1394.15C615.638 1391.86 616.919 1388.75 616.919 1385.51L616.919 1297.02L520.817 1217.06Z" fill="#1541DF"/>
        <path d="M591.048 1251.51C586.389 1251.51 581.921 1249.66 578.621 1246.37C575.321 1243.08 573.459 1238.61 573.443 1233.94L573.443 1188.31C573.711 1183.82 575.679 1179.61 578.946 1176.53C582.212 1173.44 586.529 1171.73 591.016 1171.73C595.503 1171.73 599.82 1173.44 603.086 1176.53C606.353 1179.61 608.321 1183.82 608.589 1188.31L608.589 1233.81C608.598 1236.13 608.151 1238.43 607.273 1240.57C606.396 1242.71 605.107 1244.66 603.478 1246.3C601.849 1247.95 599.913 1249.25 597.78 1250.15C595.647 1251.04 593.359 1251.5 591.048 1251.51Z" fill="#1541DF"/>
    </g>
    <g clip-path="url(#clip1_0_1)" filter="url(#filter1_dd_0_1)">
        <g style="mix-blend-mode:overlay" opacity="0.6">
            <path d="M-159.231 1068.83C-164.131 1067.54 -168.684 1065.18 -172.558 1061.91C-176.433 1058.65 -179.532 1054.56 -181.632 1049.94C-183.571 1045.8 -184.675 1041.32 -184.883 1036.76C-185.09 1032.19 -184.396 1027.63 -182.841 1023.33C-181.286 1019.03 -178.899 1015.08 -175.818 1011.7C-172.737 1008.33 -169.021 1005.59 -164.884 1003.65L168.536 847.95C175.977 844.398 184.438 843.619 192.399 845.752C200.36 847.885 207.298 852.791 211.966 859.587L420.676 1153.1C423.314 1156.86 425.185 1161.11 426.182 1165.6C427.179 1170.09 427.282 1174.74 426.486 1179.27C425.69 1183.8 424.01 1188.13 421.542 1192.01C419.074 1195.89 415.866 1199.25 412.102 1201.89C408.338 1204.53 404.091 1206.4 399.604 1207.4C395.116 1208.4 390.477 1208.51 385.949 1207.71C381.422 1206.92 377.096 1205.24 373.218 1202.77C369.34 1200.3 365.986 1197.09 363.348 1193.33L171.617 923.312L-135.564 1066.79C-142.976 1070.2 -151.345 1070.93 -159.231 1068.83Z" fill="url(#paint3_linear_0_1)"/>
            <path d="M161.844 959.205L-109.318 1084.07L-163.357 1285.75C-165.344 1293.16 -164.306 1301.07 -160.472 1307.71C-156.637 1314.36 -150.32 1319.21 -142.91 1321.2L64.395 1376.74L107.099 1217.37C107.638 1215.28 108.587 1213.32 109.889 1211.6C111.191 1209.87 112.822 1208.43 114.686 1207.34C116.55 1206.25 118.611 1205.54 120.75 1205.25C122.889 1204.97 125.064 1205.11 127.148 1205.66L197.36 1224.48C199.444 1225.04 201.397 1226 203.106 1227.32C204.815 1228.64 206.246 1230.28 207.316 1232.16C208.386 1234.03 209.074 1236.1 209.341 1238.24C209.607 1240.39 209.447 1242.56 208.869 1244.64L166.165 1404.01L243.615 1424.77C251.01 1426.71 258.874 1425.64 265.486 1421.79C272.099 1417.95 276.923 1411.64 278.903 1404.25L333.253 1201.42L161.844 959.205Z" fill="url(#paint4_linear_0_1)"/>
            <path d="M301.995 1081.23C291.318 1078.33 282.228 1071.31 276.715 1061.71C271.202 1052.12 269.715 1040.72 272.581 1030.03L300.571 925.566C301.716 919.975 303.991 914.678 307.257 909.999C310.522 905.32 314.71 901.358 319.561 898.357C324.412 895.356 329.825 893.38 335.467 892.549C341.109 891.719 346.86 892.052 352.368 893.527C357.876 895.003 363.023 897.591 367.494 901.131C371.964 904.671 375.664 909.089 378.365 914.114C381.066 919.138 382.711 924.662 383.2 930.348C383.688 936.033 383.01 941.758 381.206 947.172L353.293 1051.34C351.903 1056.69 349.469 1061.7 346.134 1066.1C342.798 1070.5 338.626 1074.19 333.857 1076.97C329.089 1079.75 323.819 1081.56 318.35 1082.29C312.882 1083.02 307.323 1082.66 301.995 1081.23Z" fill="url(#paint5_linear_0_1)"/>
        </g>
        <g style="mix-blend-mode:overlay" opacity="0.8">
            <path d="M-177.665 1036.87C-182.566 1035.58 -187.118 1033.22 -190.993 1029.95C-194.867 1026.69 -197.966 1022.6 -200.066 1017.98C-202.005 1013.84 -203.11 1009.36 -203.317 1004.8C-203.524 1000.23 -202.831 995.667 -201.275 991.368C-199.72 987.069 -197.334 983.119 -194.252 979.742C-191.171 976.366 -187.456 973.63 -183.318 971.691L150.102 815.99C157.548 812.47 166 811.707 173.953 813.838C181.906 815.969 188.844 820.855 193.532 827.627L402.242 1121.14C407.615 1128.65 409.784 1138 408.272 1147.11C406.76 1156.23 401.691 1164.38 394.18 1169.76C386.668 1175.14 377.33 1177.31 368.22 1175.8C359.109 1174.29 350.972 1169.22 345.599 1161.71L153.183 891.353L-153.96 1034.68C-161.341 1038.25 -169.759 1039.02 -177.665 1036.87Z" fill="#555555"/>
            <path d="M143.41 927.245L-127.752 1052.11L-181.792 1253.79C-183.779 1261.2 -182.741 1269.1 -178.906 1275.75C-175.072 1282.4 -168.754 1287.25 -161.344 1289.24L45.2369 1344.59L87.9404 1185.22C89.073 1180.99 91.8369 1177.39 95.6241 1175.2C99.4113 1173.01 103.912 1172.42 108.135 1173.55L179.07 1192.56C183.294 1193.69 186.894 1196.45 189.08 1200.24C191.265 1204.03 191.857 1208.53 190.724 1212.76L148.021 1372.13L225.326 1392.84C229.002 1393.85 232.841 1394.12 236.622 1393.63C240.402 1393.15 244.051 1391.92 247.357 1390.02C250.663 1388.13 253.561 1385.59 255.886 1382.57C258.211 1379.54 259.916 1376.09 260.903 1372.41L315.253 1169.57L143.41 927.245Z" fill="#555555"/>
            <path d="M283.532 1048.8C272.856 1045.9 263.765 1038.88 258.252 1029.28C252.739 1019.68 251.253 1008.29 254.118 997.594L282.031 893.423C283.176 887.833 285.451 882.535 288.717 877.856C291.982 873.177 296.169 869.215 301.021 866.215C305.872 863.214 311.285 861.237 316.927 860.407C322.569 859.576 328.32 859.909 333.828 861.385C339.335 862.861 344.483 865.448 348.953 868.988C353.424 872.529 357.124 876.947 359.825 881.971C362.526 886.995 364.171 892.52 364.66 898.205C365.148 903.89 364.47 909.615 362.666 915.029L334.753 1019.2C331.881 1029.92 324.87 1039.06 315.264 1044.61C305.659 1050.16 294.244 1051.67 283.532 1048.8Z" fill="#555555"/>
        </g>
        <path d="M-167.865 1050.68C-174.948 1048.95 -181.307 1045.04 -186.044 1039.5C-190.781 1033.95 -193.657 1027.06 -194.265 1019.79C-194.873 1012.52 -193.182 1005.24 -189.431 998.984C-185.68 992.726 -180.06 987.806 -173.364 984.918L159.718 829.903C167.164 826.383 175.616 825.62 183.569 827.751C191.521 829.882 198.46 834.768 203.148 841.54L411.713 1135.01C417.041 1142.62 419.131 1152.03 417.523 1161.18C415.915 1170.33 410.741 1178.47 403.139 1183.8C395.537 1189.14 386.129 1191.23 376.986 1189.63C367.843 1188.02 359.713 1182.85 354.385 1175.24L162.943 905.304L-144.054 1048.67C-151.503 1052.15 -159.943 1052.86 -167.865 1050.68Z" fill="#1541DF"/>
        <path d="M153.316 941.235L-117.991 1066.06L-171.992 1267.59C-173.983 1275.02 -172.954 1282.94 -169.129 1289.61C-165.305 1296.28 -158.997 1301.16 -151.583 1303.19L55.5767 1358.7L98.2802 1199.32C99.4981 1195.23 102.256 1191.76 105.974 1189.66C109.692 1187.56 114.08 1186.98 118.214 1188.05L188.28 1206.82C192.465 1207.95 196.033 1210.69 198.199 1214.44C200.364 1218.19 200.951 1222.66 199.828 1226.84L157.125 1386.22L234.864 1407.05C242.298 1409 250.202 1407.92 256.849 1404.06C263.496 1400.2 268.345 1393.86 270.335 1386.43L324.685 1183.59L153.316 941.235Z" fill="#1541DF"/>
        <path d="M293.283 1063.37C282.596 1060.51 273.48 1053.52 267.932 1043.94C262.385 1034.36 260.858 1022.98 263.685 1012.27L291.714 907.664C295.086 897.545 302.19 889.095 311.576 884.04C320.962 878.984 331.921 877.705 342.215 880.463C352.508 883.221 361.359 889.809 366.96 898.88C372.561 907.951 374.488 918.821 372.349 929.27L344.397 1033.59C342.994 1038.9 340.559 1043.88 337.231 1048.26C333.902 1052.63 329.746 1056.3 325 1059.07C320.253 1061.83 315.009 1063.64 309.567 1064.38C304.125 1065.11 298.592 1064.77 293.283 1063.37Z" fill="#1541DF"/>
    </g>
    <g clip-path="url(#clip2_0_1)" filter="url(#filter2_dd_0_1)">
        <g style="mix-blend-mode:overlay" opacity="0.6">
            <path d="M1093.41 -56.1485C1091.43 -60.8114 1090.51 -65.8576 1090.72 -70.9215C1090.92 -75.9854 1092.26 -80.9403 1094.62 -85.4273C1096.7 -89.4951 1099.56 -93.1134 1103.05 -96.0754C1106.53 -99.0374 1110.56 -101.285 1114.91 -102.69C1119.26 -104.095 1123.84 -104.629 1128.4 -104.263C1132.96 -103.896 1137.39 -102.636 1141.46 -100.555L1468.81 67.5465C1476.17 71.2507 1481.97 77.4603 1485.16 85.0588C1488.36 92.6574 1488.73 101.146 1486.22 108.999L1382.14 453.782C1380.78 458.175 1378.57 462.257 1375.63 465.796C1372.69 469.335 1369.09 472.262 1365.02 474.408C1360.95 476.555 1356.5 477.88 1351.92 478.308C1347.34 478.736 1342.72 478.258 1338.33 476.902C1333.93 475.546 1329.85 473.338 1326.31 470.404C1322.77 467.47 1319.84 463.868 1317.7 459.803C1315.55 455.738 1314.23 451.29 1313.8 446.713C1313.38 442.136 1313.86 437.519 1315.22 433.127L1411.13 116.157L1109.53 -38.6973C1102.29 -42.4625 1096.59 -48.6338 1093.41 -56.1485Z" fill="url(#paint6_linear_0_1)"/>
            <path d="M1376.78 130.426L1111.95 -7.36629L919.457 73.4983C912.378 76.4718 906.77 82.1332 903.866 89.2371C900.961 96.3409 900.999 104.305 903.97 111.378L987.091 309.246L1139.21 245.344C1141.19 244.49 1143.32 244.036 1145.48 244.01C1147.64 243.984 1149.79 244.385 1151.79 245.192C1153.79 245.998 1155.61 247.193 1157.15 248.707C1158.69 250.222 1159.91 252.026 1160.75 254.015L1188.9 321.031C1189.73 323.02 1190.17 325.156 1190.17 327.314C1190.18 329.472 1189.75 331.61 1188.93 333.605C1188.1 335.599 1186.89 337.411 1185.36 338.935C1183.83 340.458 1182.01 341.664 1180.01 342.482L1027.9 406.384L1058.95 480.308C1061.95 487.341 1067.61 492.901 1074.7 495.771C1081.79 498.642 1089.73 498.589 1096.79 495.626L1290.39 414.296L1376.78 130.426Z" fill="url(#paint7_linear_0_1)"/>
            <path d="M1366.22 315.956C1361.97 305.74 1361.94 294.256 1366.15 284.018C1370.36 273.78 1378.45 265.624 1388.66 261.335L1488.37 219.451C1493.49 216.93 1499.07 215.482 1504.77 215.196C1510.46 214.91 1516.16 215.792 1521.5 217.787C1526.85 219.782 1531.73 222.849 1535.84 226.799C1539.95 230.749 1543.21 235.498 1545.42 240.755C1547.63 246.012 1548.74 251.666 1548.68 257.368C1548.62 263.07 1547.4 268.701 1545.08 273.914C1542.77 279.127 1539.41 283.813 1535.22 287.682C1531.02 291.551 1526.08 294.523 1520.7 296.415L1421.27 338.183C1416.19 340.358 1410.74 341.508 1405.22 341.567C1399.7 341.625 1394.22 340.592 1389.11 338.526C1383.99 336.46 1379.33 333.402 1375.4 329.528C1371.47 325.655 1368.35 321.042 1366.22 315.956Z" fill="url(#paint8_linear_0_1)"/>
        </g>
        <g style="mix-blend-mode:overlay" opacity="0.8">
            <path d="M1107.38 -90.2995C1105.39 -94.9624 1104.47 -100.009 1104.68 -105.072C1104.89 -110.136 1106.22 -115.091 1108.58 -119.578C1110.66 -123.646 1113.53 -127.264 1117.01 -130.226C1120.49 -133.188 1124.52 -135.436 1128.87 -136.841C1133.22 -138.246 1137.81 -138.78 1142.36 -138.414C1146.92 -138.047 1151.36 -136.787 1155.42 -134.706L1482.77 33.3955C1490.11 37.123 1495.89 43.3351 1499.08 50.926C1502.27 58.5169 1502.66 66.994 1500.18 74.8483L1396.1 419.632C1393.45 428.482 1387.4 435.922 1379.27 440.313C1371.14 444.705 1361.59 445.689 1352.74 443.049C1343.88 440.41 1336.44 434.362 1332.05 426.237C1327.67 418.112 1326.69 408.575 1329.33 399.725L1425.1 82.0062L1123.63 -72.9063C1116.29 -76.5575 1110.52 -82.7335 1107.38 -90.2995Z" fill="#555555"/>
            <path d="M1390.74 96.2754L1125.92 -41.5167L933.419 39.3479C926.34 42.3215 920.732 47.9829 917.828 55.0867C914.923 62.1906 914.961 70.1549 917.932 77.2277L1000.76 274.405L1152.88 210.503C1156.91 208.808 1161.46 208.784 1165.51 210.436C1169.56 212.089 1172.78 215.281 1174.48 219.312L1202.92 287.019C1204.61 291.05 1204.63 295.589 1202.98 299.638C1201.32 303.687 1198.13 306.913 1194.09 308.608L1041.97 372.51L1072.97 446.296C1074.43 449.817 1076.57 453.015 1079.27 455.707C1081.97 458.398 1085.17 460.53 1088.7 461.979C1092.22 463.428 1096 464.166 1099.82 464.151C1103.63 464.136 1107.4 463.367 1110.92 461.89L1304.52 380.561L1390.74 96.2754Z" fill="#555555"/>
            <path d="M1380.53 281.492C1376.29 271.277 1376.26 259.792 1380.47 249.554C1384.68 239.316 1392.77 231.16 1402.98 226.872L1502.41 185.103C1507.53 182.582 1513.11 181.135 1518.81 180.848C1524.51 180.562 1530.2 181.444 1535.55 183.439C1540.89 185.435 1545.77 188.502 1549.88 192.451C1554 196.401 1557.26 201.151 1559.47 206.408C1561.67 211.664 1562.78 217.318 1562.72 223.02C1562.67 228.723 1561.44 234.353 1559.13 239.566C1556.81 244.78 1553.45 249.465 1549.26 253.334C1545.06 257.204 1540.12 260.176 1534.74 262.067L1435.31 303.836C1425.08 308.134 1413.56 308.195 1403.29 304.005C1393.01 299.815 1384.83 291.717 1380.53 281.492Z" fill="#555555"/>
        </g>
        <path d="M1102.47 -74.0955C1099.5 -80.7515 1098.69 -88.1743 1100.17 -95.3148C1101.65 -102.455 1105.33 -108.952 1110.71 -113.887C1116.08 -118.821 1122.87 -121.944 1130.11 -122.814C1137.35 -123.684 1144.69 -122.257 1151.07 -118.734L1477.67 49.5194C1485.01 53.2469 1490.79 59.459 1493.98 67.0499C1497.17 74.6408 1497.56 83.118 1495.08 90.9722L1390.94 435.617C1388.19 444.488 1382.04 451.907 1373.82 456.243C1365.6 460.579 1356 461.476 1347.13 458.737C1338.25 455.998 1330.83 449.847 1326.5 441.637C1322.17 433.428 1321.27 423.832 1324.02 414.962L1420.05 98.2684L1118.64 -56.5061C1111.33 -60.2639 1105.6 -66.4986 1102.47 -74.0955Z" fill="#1541DF"/>
        <path d="M1385.76 112.675L1120.87 -25.2549L928.512 55.5516C921.421 58.5304 915.796 64.1934 912.868 71.3025C909.94 78.4117 909.947 86.3886 912.887 93.4894L995.95 291.219L1148.07 227.318C1152.05 225.77 1156.48 225.828 1160.42 227.478C1164.36 229.127 1167.5 232.241 1169.19 236.163L1197.28 303.04C1198.96 307.035 1198.98 311.533 1197.34 315.545C1195.7 319.557 1192.54 322.754 1188.54 324.433L1036.42 388.335L1067.59 462.535C1070.6 469.606 1076.3 475.194 1083.42 478.08C1090.55 480.965 1098.53 480.913 1105.62 477.934L1299.23 396.604L1385.76 112.675Z" fill="#1541DF"/>
        <path d="M1374.99 298.125C1370.71 287.925 1370.64 276.441 1374.81 266.188C1378.98 255.935 1387.05 247.75 1397.24 243.425L1497.09 201.482C1507.15 197.947 1518.18 198.384 1527.93 202.704C1537.67 207.024 1545.4 214.901 1549.53 224.726C1553.65 234.551 1553.87 245.583 1550.13 255.567C1546.4 265.551 1538.99 273.735 1529.42 278.446L1429.85 320.273C1424.79 322.419 1419.36 323.549 1413.87 323.598C1408.37 323.647 1402.92 322.613 1397.83 320.557C1392.73 318.5 1388.09 315.461 1384.18 311.612C1380.26 307.763 1377.14 303.18 1374.99 298.125Z" fill="#1541DF"/>
    </g>
    <g clip-path="url(#clip3_0_1)" filter="url(#filter3_dd_0_1)">
        <g style="mix-blend-mode:overlay" opacity="0.6">
            <path d="M-69.5749 123.507C-72.4066 122.908 -75.0696 121.687 -77.3709 119.931C-79.6723 118.175 -81.5544 115.929 -82.881 113.355C-84.1023 111.048 -84.8574 108.523 -85.103 105.923C-85.3487 103.324 -85.0801 100.702 -84.3127 98.206C-83.5453 95.7103 -82.294 93.3902 -80.6304 91.3782C-78.9669 89.3663 -76.9235 87.702 -74.6173 86.4804L111.249 -11.638C115.394 -13.8714 120.2 -14.5518 124.801 -13.5569C129.401 -12.5619 133.496 -9.95691 136.349 -6.21022L263.595 155.411C265.205 157.485 266.39 159.857 267.084 162.391C267.778 164.924 267.967 167.57 267.639 170.177C267.311 172.784 266.473 175.301 265.173 177.584C263.874 179.867 262.137 181.872 260.064 183.484C257.99 185.096 255.619 186.283 253.087 186.978C250.555 187.674 247.911 187.863 245.307 187.536C242.702 187.209 240.187 186.371 237.906 185.071C235.625 183.771 233.622 182.034 232.012 179.96L115.107 31.2683L-56.1309 121.681C-60.2641 123.836 -65.0183 124.482 -69.5749 123.507Z" fill="url(#paint9_linear_0_1)"/>
            <path d="M110.533 52.0167L-40.6763 130.809L-65.8816 247.367C-66.8084 251.653 -65.9961 256.131 -63.6232 259.817C-61.2503 263.502 -57.5113 266.093 -53.2287 267.019L66.5815 292.928L86.4995 200.82C86.7491 199.612 87.2355 198.466 87.9304 197.447C88.6253 196.428 89.515 195.556 90.5481 194.883C91.5813 194.21 92.7373 193.749 93.9496 193.525C95.1619 193.302 96.4062 193.321 97.6109 193.582L138.189 202.356C139.394 202.617 140.535 203.114 141.546 203.818C142.558 204.522 143.42 205.42 144.083 206.46C144.746 207.5 145.196 208.661 145.408 209.876C145.62 211.091 145.589 212.336 145.317 213.539L125.399 305.647L170.16 315.326C174.433 316.227 178.889 315.398 182.554 313.021C186.219 310.644 188.795 306.911 189.719 302.64L215.069 185.412L110.533 52.0167Z" fill="url(#paint10_linear_0_1)"/>
            <path d="M193.887 117.723C187.715 116.365 182.334 112.615 178.921 107.293C175.508 101.972 174.343 95.5131 175.679 89.3316L188.735 28.9593C189.232 25.7382 190.382 22.6526 192.115 19.8923C193.847 17.1319 196.125 14.7552 198.809 12.9081C201.493 11.061 204.526 9.78261 207.721 9.15151C210.917 8.52041 214.207 8.54994 217.39 9.23827C220.573 9.9266 223.582 11.2592 226.231 13.1541C228.88 15.0491 231.114 17.4663 232.794 20.2573C234.475 23.0483 235.568 26.154 236.005 29.3835C236.442 32.613 236.215 35.8981 235.337 39.0369L222.318 99.2417C221.673 102.329 220.425 105.257 218.645 107.86C216.864 110.462 214.587 112.686 211.945 114.404C209.302 116.122 206.346 117.299 203.246 117.869C200.147 118.439 196.966 118.389 193.887 117.723Z" fill="url(#paint11_linear_0_1)"/>
        </g>
        <g style="mix-blend-mode:overlay" opacity="0.8">
            <path d="M-80.9821 105.79C-83.8138 105.191 -86.4768 103.969 -88.7781 102.213C-91.0795 100.457 -92.9616 98.2112 -94.2882 95.6372C-95.5095 93.3304 -96.2645 90.8052 -96.5102 88.2059C-96.7559 85.6066 -96.4873 82.9842 -95.7199 80.4884C-94.9525 77.9927 -93.7012 75.6726 -92.0376 73.6606C-90.374 71.6487 -88.3307 69.9844 -86.0244 68.7628L99.8416 -29.3556C103.991 -31.5715 108.791 -32.2422 113.388 -31.2483C117.984 -30.2543 122.078 -27.6603 124.941 -23.9278L252.187 137.693C255.462 141.83 256.96 147.1 256.352 152.343C255.743 157.587 253.079 162.374 248.944 165.653C244.809 168.931 239.542 170.432 234.303 169.825C229.063 169.218 224.28 166.553 221.005 162.416L103.7 13.5507L-67.5199 103.88C-71.6317 106.118 -76.4119 106.796 -80.9821 105.79Z" fill="#555555"/>
            <path d="M99.1258 34.2989L-52.0835 113.091L-77.2888 229.649C-78.2157 233.935 -77.4033 238.413 -75.0304 242.099C-72.6575 245.785 -68.9185 248.375 -64.6359 249.301L54.7559 275.12L74.6739 183.012C75.2022 180.569 76.6784 178.436 78.7779 177.082C80.8774 175.728 83.4282 175.264 85.869 175.791L126.866 184.657C129.306 185.185 131.437 186.661 132.79 188.762C134.142 190.862 134.605 193.415 134.077 195.858L114.159 287.965L158.837 297.627C160.962 298.098 163.159 298.144 165.303 297.763C167.446 297.381 169.493 296.58 171.326 295.404C173.159 294.228 174.742 292.702 175.984 290.912C177.226 289.123 178.102 287.105 178.563 284.976L203.913 167.748L99.1258 34.2989Z" fill="#555555"/>
            <path d="M182.45 99.7354C176.279 98.3776 170.897 94.6272 167.484 89.3057C164.072 83.9842 162.906 77.5253 164.243 71.3438L177.262 11.139C177.759 7.91786 178.909 4.83228 180.642 2.07195C182.374 -0.688384 184.653 -3.06515 187.337 -4.91223C190.02 -6.75932 193.053 -8.03771 196.249 -8.6688C199.444 -9.2999 202.734 -9.27038 205.917 -8.58204C209.1 -7.89371 212.109 -6.56111 214.758 -4.66617C217.407 -2.77123 219.641 -0.353983 221.322 2.43698C223.003 5.22794 224.095 8.33364 224.533 11.5632C224.97 14.7927 224.742 18.0778 223.864 21.2166L210.845 81.4214C209.505 87.6174 205.761 93.0277 200.436 96.4623C195.111 99.8968 188.641 101.074 182.45 99.7354Z" fill="#555555"/>
        </g>
        <path d="M-75.007 113.392C-79.0953 112.604 -82.8321 110.549 -85.6892 107.519C-88.5462 104.489 -90.379 100.636 -90.9284 96.5057C-91.4778 92.3754 -90.7161 88.1763 -88.7508 84.5021C-86.7856 80.8279 -83.7163 77.8643 -79.9768 76.0304L105.715 -21.6874C109.865 -23.9034 114.665 -24.574 119.261 -23.5801C123.857 -22.5862 127.952 -19.9921 130.815 -16.2596L257.977 145.343C261.229 149.533 262.683 154.845 262.021 160.11C261.359 165.374 258.634 170.161 254.446 173.416C250.258 176.672 244.95 178.129 239.689 177.468C234.429 176.807 229.646 174.082 226.395 169.892L109.657 21.237L-61.4792 111.584C-65.6318 113.774 -70.4268 114.415 -75.007 113.392Z" fill="#1541DF"/>
        <path d="M105.166 42.0035L-46.1265 120.777L-71.3137 237.252C-72.2423 241.545 -71.4344 246.032 -69.0668 249.73C-66.6992 253.429 -62.9644 256.038 -58.6789 256.988L61.0476 282.878L80.9656 190.771C81.5462 188.4 83.0231 186.347 85.0855 185.044C87.1479 183.741 89.6348 183.289 92.0227 183.783L132.517 192.54C134.936 193.063 137.048 194.526 138.388 196.608C139.728 198.689 140.187 201.219 139.663 203.639L119.745 295.747L164.674 305.463C168.969 306.368 173.448 305.535 177.132 303.146C180.817 300.756 183.406 297.004 184.334 292.71L209.685 175.482L105.166 42.0035Z" fill="#1541DF"/>
        <path d="M188.419 107.775C182.242 106.44 176.847 102.708 173.415 97.3992C169.984 92.09 168.795 85.6354 170.11 79.4492L183.183 18.9931C184.824 13.1268 188.641 8.10826 193.855 4.9626C199.068 1.81695 205.285 0.78161 211.234 2.06809C217.183 3.35457 222.416 6.86578 225.864 11.8844C229.312 16.9031 230.714 23.0505 229.785 29.0707L216.748 89.3593C216.095 92.4296 214.845 95.3414 213.068 97.9286C211.292 100.516 209.023 102.727 206.393 104.437C203.762 106.148 200.821 107.322 197.737 107.895C194.653 108.468 191.486 108.427 188.419 107.775Z" fill="#1541DF"/>
    </g>
    <g clip-path="url(#clip4_0_1)" filter="url(#filter4_dd_0_1)">
        <g style="mix-blend-mode:overlay" opacity="0.6">
            <path d="M168.648 587.193C164.086 588.445 159.302 588.667 154.643 587.842C149.984 587.016 145.567 585.164 141.71 582.42C138.207 579.984 135.218 576.882 132.912 573.291C130.607 569.699 129.032 565.689 128.276 561.489C127.52 557.288 127.598 552.98 128.506 548.811C129.415 544.641 131.135 540.692 133.569 537.189L330.001 255.346C334.349 248.994 340.819 244.404 348.248 242.4C355.677 240.397 363.577 241.111 370.529 244.415L676.508 383.797C680.401 385.603 683.902 388.16 686.809 391.32C689.716 394.48 691.973 398.182 693.451 402.214C694.928 406.247 695.598 410.53 695.422 414.821C695.245 419.112 694.226 423.325 692.422 427.221C690.618 431.117 688.065 434.619 684.908 437.526C681.751 440.434 678.053 442.691 674.024 444.168C669.995 445.646 665.714 446.314 661.427 446.136C657.139 445.957 652.928 444.935 649.034 443.129L367.768 314.777L186.808 574.463C182.419 580.691 175.998 585.193 168.648 587.193Z" fill="url(#paint12_linear_0_1)"/>
            <path d="M376.676 348.343L216.097 576.136L266.855 764.335C268.721 771.256 273.258 777.152 279.468 780.727C285.677 784.302 293.05 785.262 299.965 783.397L493.416 731.224L453.306 582.503C452.763 580.561 452.61 578.531 452.856 576.53C453.101 574.529 453.74 572.596 454.737 570.844C455.733 569.092 457.066 567.555 458.659 566.322C460.253 565.089 462.075 564.184 464.02 563.659L529.539 545.989C531.484 545.464 533.514 545.33 535.512 545.595C537.509 545.86 539.434 546.518 541.176 547.531C542.918 548.545 544.443 549.894 545.661 551.5C546.88 553.106 547.768 554.938 548.275 556.889L588.385 705.61L660.659 686.118C667.541 684.224 673.392 679.679 676.934 673.479C680.476 667.278 681.419 659.926 679.559 653.029L628.51 463.748L376.676 348.343Z" fill="url(#paint13_linear_0_1)"/>
            <path d="M547.004 381.305C537.021 383.959 526.393 382.545 517.447 377.373C508.501 372.201 501.967 363.693 499.275 353.712L472.984 256.233C471.292 251.181 470.65 245.837 471.097 240.529C471.545 235.221 473.073 230.06 475.587 225.366C478.1 220.671 481.548 216.541 485.716 213.229C489.884 209.917 494.686 207.493 499.825 206.107C504.965 204.721 510.334 204.402 515.602 205.168C520.871 205.935 525.927 207.772 530.461 210.566C534.994 213.36 538.909 217.052 541.965 221.416C545.021 225.779 547.153 230.721 548.23 235.939L574.448 333.148C575.826 338.115 576.208 343.305 575.572 348.419C574.937 353.533 573.296 358.471 570.745 362.947C568.194 367.424 564.783 371.35 560.709 374.501C556.634 377.651 551.976 379.964 547.004 381.305Z" fill="url(#paint14_linear_0_1)"/>
        </g>
        <g style="mix-blend-mode:overlay" opacity="0.8">
            <path d="M138.798 570.008C134.236 571.261 129.452 571.482 124.793 570.657C120.134 569.831 115.716 567.979 111.86 565.235C108.357 562.8 105.367 559.698 103.062 556.106C100.757 552.515 99.1811 548.504 98.425 544.304C97.669 540.103 97.7474 535.795 98.6557 531.626C99.5641 527.456 101.285 523.507 103.719 520.004L300.151 238.161C304.517 231.832 310.987 227.259 318.409 225.258C325.83 223.256 333.722 223.955 340.678 227.23L646.657 366.612C654.515 370.166 660.641 376.698 663.688 384.771C666.735 392.843 666.453 401.795 662.904 409.656C659.355 417.518 652.83 423.646 644.764 426.691C636.699 429.737 627.753 429.451 619.896 425.897L337.917 297.592L156.921 557.143C152.626 563.476 146.19 568.044 138.798 570.008Z" fill="#555555"/>
            <path d="M346.825 331.157L186.247 558.95L237.004 747.15C238.871 754.07 243.408 759.967 249.617 763.541C255.827 767.116 263.2 768.077 270.115 766.212L462.89 714.22L422.78 565.499C421.716 561.555 422.261 557.35 424.296 553.809C426.331 550.269 429.688 547.682 433.629 546.619L499.824 528.767C503.765 527.704 507.967 528.251 511.506 530.289C515.045 532.326 517.631 535.687 518.695 539.631L558.805 688.352L630.944 668.896C634.384 667.987 637.61 666.407 640.438 664.247C643.265 662.086 645.638 659.387 647.419 656.305C649.2 653.224 650.356 649.82 650.818 646.29C651.281 642.759 651.041 639.172 650.114 635.734L599.065 446.453L346.825 331.157Z" fill="#555555"/>
            <path d="M516.909 363.751C506.926 366.405 496.298 364.991 487.352 359.82C478.406 354.648 471.872 346.14 469.18 336.159L442.963 238.949C441.27 233.898 440.628 228.554 441.075 223.246C441.523 217.937 443.051 212.777 445.565 208.083C448.078 203.388 451.526 199.257 455.694 195.946C459.862 192.634 464.664 190.21 469.803 188.824C474.943 187.438 480.312 187.118 485.58 187.885C490.849 188.652 495.905 190.489 500.439 193.283C504.972 196.077 508.887 199.769 511.943 204.132C514.999 208.496 517.131 213.438 518.208 218.656L544.426 315.865C547.124 325.869 545.741 336.535 540.58 345.515C535.42 354.495 526.905 361.055 516.909 363.751Z" fill="#555555"/>
        </g>
        <path d="M153.176 576.573C146.646 578.492 139.678 578.309 133.257 576.049C126.835 573.789 121.285 569.566 117.391 563.979C113.497 558.391 111.456 551.721 111.557 544.911C111.657 538.101 113.894 531.495 117.951 526.028L314.43 244.897C318.797 238.568 325.267 233.996 332.688 231.994C340.11 229.993 348.001 230.692 354.958 233.967L660.802 373.385C668.666 377.034 674.76 383.659 677.745 391.802C680.729 399.946 680.359 408.941 676.716 416.809C673.073 424.677 666.455 430.773 658.318 433.757C650.181 436.74 641.192 436.366 633.328 432.717L352.332 304.292L171.471 563.807C167.08 570.1 160.596 574.625 153.176 576.573Z" fill="#1541DF"/>
        <path d="M361.375 337.822L200.662 565.651L251.383 753.716C253.253 760.649 257.789 766.56 264 770.158C270.212 773.755 277.592 774.746 284.529 772.913L477.845 720.776L437.735 572.055C436.801 568.176 437.408 564.087 439.427 560.648C441.445 557.209 444.719 554.688 448.558 553.617L513.943 535.983C517.848 534.929 522.012 535.472 525.519 537.491C529.026 539.51 531.588 542.84 532.642 546.748L572.752 695.469L645.296 675.904C652.214 674 658.096 669.432 661.656 663.2C665.216 656.967 666.165 649.576 664.295 642.643L613.246 453.362L361.375 337.822Z" fill="#1541DF"/>
        <path d="M531.604 370.955C521.632 373.644 510.998 372.269 502.034 367.129C493.07 361.99 486.504 353.505 483.777 343.534L457.45 245.919C455.437 236.168 457.22 226.016 462.435 217.539C467.649 209.062 475.903 202.899 485.508 200.308C495.114 197.717 505.347 198.895 514.118 203.6C522.888 208.306 529.533 216.184 532.696 225.625L558.95 322.97C560.304 327.918 560.67 333.085 560.029 338.175C559.387 343.265 557.75 348.178 555.211 352.634C552.671 357.089 549.28 361.001 545.229 364.144C541.179 367.288 536.549 369.602 531.604 370.955Z" fill="#1541DF"/>
    </g>
    <g clip-path="url(#clip5_0_1)" filter="url(#filter5_dd_0_1)">
        <g style="mix-blend-mode:overlay" opacity="0.6">
            <path d="M1113.15 647.887C1110.4 647.002 1107.87 645.515 1105.76 643.533C1103.65 641.551 1102.01 639.125 1100.95 636.429C1099.97 634.009 1099.48 631.42 1099.5 628.809C1099.52 626.199 1100.06 623.617 1101.07 621.213C1102.09 618.809 1103.57 616.628 1105.43 614.797C1107.3 612.965 1109.5 611.518 1111.92 610.539L1306.83 531.914C1311.18 530.116 1316.03 529.93 1320.51 531.389C1324.98 532.849 1328.79 535.859 1331.25 539.877L1441.32 713.647C1442.71 715.876 1443.65 718.356 1444.08 720.948C1444.51 723.539 1444.43 726.19 1443.84 728.75C1443.24 731.309 1442.15 733.728 1440.63 735.866C1439.1 738.005 1437.17 739.822 1434.94 741.213C1432.71 742.605 1430.23 743.544 1427.64 743.977C1425.06 744.41 1422.41 744.329 1419.85 743.737C1417.29 743.146 1414.87 742.056 1412.74 740.53C1410.6 739.004 1408.79 737.071 1407.4 734.843L1306.29 574.99L1126.71 647.444C1122.38 649.165 1117.58 649.322 1113.15 647.887Z" fill="url(#paint15_linear_0_1)"/>
            <path d="M1299.62 595.163L1141.15 658.101L1104.18 771.475C1102.82 775.644 1103.17 780.182 1105.15 784.091C1107.14 788 1110.59 790.959 1114.76 792.317L1231.29 830.326L1260.51 740.734C1260.89 739.558 1261.49 738.467 1262.28 737.524C1263.08 736.581 1264.05 735.806 1265.15 735.242C1266.24 734.678 1267.44 734.336 1268.67 734.238C1269.9 734.139 1271.14 734.286 1272.31 734.668L1311.78 747.541C1312.95 747.923 1314.03 748.534 1314.97 749.338C1315.9 750.141 1316.67 751.123 1317.22 752.225C1317.77 753.327 1318.1 754.528 1318.19 755.758C1318.28 756.988 1318.12 758.224 1317.73 759.393L1288.51 848.985L1332.04 863.185C1336.2 864.518 1340.72 864.148 1344.61 862.157C1348.5 860.167 1351.44 856.717 1352.8 852.562L1389.99 738.536L1299.62 595.163Z" fill="url(#paint16_linear_0_1)"/>
            <path d="M1375.83 669.038C1369.83 667.057 1364.86 662.777 1362 657.135C1359.15 651.492 1358.65 644.948 1360.61 638.936L1379.77 580.212C1380.59 577.059 1382.05 574.107 1384.05 571.538C1386.06 568.969 1388.57 566.837 1391.43 565.274C1394.29 563.71 1397.43 562.748 1400.68 562.447C1403.92 562.145 1407.19 562.511 1410.29 563.521C1413.38 564.53 1416.24 566.163 1418.68 568.319C1421.12 570.474 1423.1 573.107 1424.48 576.055C1425.87 579.003 1426.64 582.204 1426.75 585.461C1426.85 588.719 1426.29 591.963 1425.1 594.996L1406 653.557C1405.04 656.561 1403.5 659.348 1401.46 661.754C1399.43 664.161 1396.93 666.141 1394.13 667.58C1391.32 669.019 1388.26 669.889 1385.12 670.139C1381.98 670.389 1378.82 670.015 1375.83 669.038Z" fill="url(#paint17_linear_0_1)"/>
        </g>
        <g style="mix-blend-mode:overlay" opacity="0.8">
            <path d="M1103.61 629.096C1100.86 628.211 1098.33 626.724 1096.22 624.742C1094.11 622.76 1092.47 620.334 1091.41 617.638C1090.43 615.218 1089.94 612.629 1089.96 610.018C1089.98 607.407 1090.52 604.826 1091.54 602.422C1092.55 600.017 1094.04 597.837 1095.9 596.006C1097.76 594.174 1099.96 592.727 1102.38 591.748L1297.29 513.123C1301.65 511.343 1306.49 511.166 1310.96 512.624C1315.43 514.082 1319.24 517.081 1321.71 521.086L1431.78 694.856C1434.62 699.306 1435.57 704.701 1434.43 709.855C1433.29 715.009 1430.15 719.5 1425.7 722.339C1421.25 725.178 1415.86 726.133 1410.71 724.994C1405.56 723.855 1401.07 720.716 1398.24 716.266L1296.75 556.199L1117.2 628.571C1112.88 630.377 1108.06 630.564 1103.61 629.096Z" fill="#555555"/>
            <path d="M1290.08 576.372L1131.61 639.31L1094.64 752.684C1093.28 756.853 1093.63 761.391 1095.61 765.3C1097.6 769.209 1101.05 772.168 1105.22 773.526L1221.35 811.402L1250.57 721.81C1251.34 719.434 1253.03 717.463 1255.26 716.33C1257.48 715.198 1260.07 714.996 1262.44 715.771L1302.32 728.776C1304.69 729.551 1306.66 731.237 1307.79 733.465C1308.92 735.693 1309.12 738.279 1308.35 740.655L1279.13 830.247L1322.59 844.421C1324.65 845.106 1326.83 845.377 1329.01 845.216C1331.18 845.055 1333.29 844.467 1335.24 843.485C1337.18 842.503 1338.91 841.146 1340.33 839.492C1341.75 837.839 1342.83 835.922 1343.5 833.85L1380.69 719.824L1290.08 576.372Z" fill="#555555"/>
            <path d="M1366.29 649.977C1360.29 647.996 1355.32 643.715 1352.46 638.073C1349.61 632.431 1349.11 625.887 1351.07 619.874L1370.17 561.314C1371 558.16 1372.46 555.208 1374.46 552.639C1376.47 550.07 1378.98 547.939 1381.83 546.375C1384.69 544.812 1387.84 543.85 1391.08 543.548C1394.33 543.247 1397.6 543.612 1400.69 544.622C1403.79 545.632 1406.65 547.265 1409.09 549.42C1411.53 551.576 1413.5 554.209 1414.89 557.157C1416.28 560.105 1417.05 563.306 1417.15 566.563C1417.26 569.82 1416.7 573.065 1415.5 576.098L1396.4 634.658C1394.44 640.685 1390.16 645.685 1384.51 648.557C1378.86 651.43 1372.31 651.941 1366.29 649.977Z" fill="#555555"/>
        </g>
        <path d="M1108.78 637.268C1104.79 636.066 1101.29 633.641 1098.75 630.335C1096.22 627.029 1094.79 623.009 1094.67 618.844C1094.54 614.68 1095.73 610.58 1098.06 607.126C1100.39 603.672 1103.75 601.037 1107.65 599.594L1302.35 521.351C1306.71 519.57 1311.55 519.393 1316.02 520.851C1320.49 522.31 1324.3 525.308 1326.77 529.313L1436.76 703.057C1439.57 707.558 1440.47 712.99 1439.28 718.16C1438.08 723.329 1434.88 727.813 1430.38 730.623C1425.88 733.434 1420.45 734.342 1415.29 733.147C1410.12 731.952 1405.64 728.753 1402.84 724.253L1301.89 564.453L1122.42 636.852C1118.07 638.606 1113.23 638.754 1108.78 637.268Z" fill="#1541DF"/>
        <path d="M1295.3 584.652L1136.76 647.564L1099.81 760.857C1098.44 765.033 1098.79 769.579 1100.77 773.5C1102.74 777.421 1106.19 780.398 1110.36 781.78L1226.82 819.762L1256.04 730.17C1256.86 727.871 1258.53 725.98 1260.72 724.894C1262.9 723.808 1265.42 723.613 1267.75 724.348L1307.14 737.195C1309.49 737.962 1311.44 739.633 1312.56 741.841C1313.68 744.048 1313.88 746.611 1313.11 748.966L1283.89 838.558L1327.59 852.811C1331.77 854.15 1336.32 853.779 1340.22 851.778C1344.13 849.777 1347.09 846.309 1348.45 842.133L1385.64 728.107L1295.3 584.652Z" fill="#1541DF"/>
        <path d="M1371.4 658.584C1365.39 656.624 1360.41 652.362 1357.54 646.73C1354.67 641.098 1354.14 634.556 1356.08 628.536L1375.26 569.731C1377.49 564.063 1381.8 559.461 1387.31 556.864C1392.82 554.267 1399.11 553.872 1404.89 555.759C1410.68 557.646 1415.53 561.674 1418.44 567.018C1421.36 572.363 1422.13 578.621 1420.59 584.515L1401.46 643.157C1400.5 646.145 1398.96 648.914 1396.93 651.306C1394.9 653.698 1392.41 655.667 1389.62 657.099C1386.83 658.531 1383.79 659.4 1380.66 659.655C1377.53 659.909 1374.39 659.545 1371.4 658.584Z" fill="#1541DF"/>
    </g>
    <g clip-path="url(#clip6_0_1)" filter="url(#filter6_dd_0_1)">
        <g style="mix-blend-mode:overlay" opacity="0.6">
            <path d="M787.466 1387.24C781.798 1389.06 775.796 1389.59 769.897 1388.8C763.998 1388 758.347 1385.91 753.356 1382.66C748.825 1379.78 744.904 1376.04 741.818 1371.65C738.732 1367.26 736.54 1362.3 735.37 1357.06C734.199 1351.82 734.071 1346.4 734.993 1341.11C735.916 1335.82 737.871 1330.77 740.747 1326.24L972.844 961.654C977.975 953.442 985.866 947.333 995.099 944.424C1004.33 941.515 1014.3 941.998 1023.21 945.786L1415.13 1104.91C1420.12 1106.97 1424.66 1110 1428.48 1113.82C1432.3 1117.64 1435.33 1122.17 1437.4 1127.17C1439.47 1132.16 1440.53 1137.51 1440.54 1142.91C1440.54 1148.31 1439.48 1153.66 1437.42 1158.65C1435.35 1163.64 1432.33 1168.18 1428.51 1172C1424.7 1175.82 1420.17 1178.85 1415.18 1180.92C1410.2 1182.99 1404.85 1184.05 1399.45 1184.05C1394.05 1184.06 1388.71 1182.99 1383.72 1180.93L1023.44 1034.37L809.623 1370.29C804.434 1378.35 796.599 1384.35 787.466 1387.24Z" fill="url(#paint18_linear_0_1)"/>
            <path d="M1036.4 1076.09L846.527 1370.85L920.213 1604.74C922.923 1613.34 928.936 1620.52 936.928 1624.68C944.921 1628.85 954.239 1629.67 962.833 1626.96L1203.25 1551.22L1145.02 1366.39C1144.23 1363.98 1143.94 1361.44 1144.14 1358.91C1144.34 1356.38 1145.04 1353.92 1146.21 1351.67C1147.37 1349.41 1148.96 1347.41 1150.9 1345.78C1152.84 1344.14 1155.08 1342.91 1157.5 1342.15L1238.92 1316.49C1241.34 1315.73 1243.88 1315.46 1246.41 1315.68C1248.93 1315.91 1251.39 1316.64 1253.63 1317.82C1255.87 1319 1257.86 1320.62 1259.48 1322.57C1261.09 1324.53 1262.3 1326.78 1263.04 1329.21L1321.27 1514.04L1411.09 1485.74C1419.65 1483 1426.76 1476.98 1430.89 1469C1435.01 1461.02 1435.81 1451.73 1433.11 1443.16L1359 1207.92L1036.4 1076.09Z" fill="url(#paint19_linear_0_1)"/>
            <path d="M1252.22 1108.58C1239.81 1112.44 1226.38 1111.22 1214.86 1105.19C1203.35 1099.16 1194.69 1088.81 1190.78 1076.4L1152.61 955.257C1150.22 948.997 1149.13 942.313 1149.42 935.618C1149.7 928.922 1151.35 922.356 1154.26 916.323C1157.17 910.289 1161.29 904.917 1166.36 900.535C1171.42 896.153 1177.33 892.855 1183.72 890.842C1190.1 888.83 1196.84 888.146 1203.5 888.833C1210.16 889.52 1216.61 891.564 1222.46 894.837C1228.3 898.111 1233.42 902.546 1237.49 907.87C1241.56 913.194 1244.5 919.294 1246.13 925.796L1284.19 1046.61C1286.18 1052.78 1286.93 1059.28 1286.4 1065.74C1285.87 1072.2 1284.07 1078.5 1281.1 1084.26C1278.13 1090.02 1274.05 1095.13 1269.09 1099.31C1264.13 1103.48 1258.4 1106.63 1252.22 1108.58Z" fill="url(#paint20_linear_0_1)"/>
        </g>
        <g style="mix-blend-mode:overlay" opacity="0.8">
            <path d="M749.043 1367.21C743.374 1369.03 737.373 1369.56 731.473 1368.76C725.574 1367.97 719.924 1365.88 714.933 1362.63C710.401 1359.75 706.481 1356.01 703.394 1351.62C700.308 1347.22 698.117 1342.26 696.946 1337.02C695.775 1331.78 695.647 1326.37 696.57 1321.08C697.493 1315.79 699.448 1310.73 702.323 1306.2L934.421 941.621C939.576 933.436 947.468 927.349 956.692 924.444C965.915 921.538 975.871 922.002 984.787 925.753L1376.71 1084.87C1386.77 1088.93 1394.82 1096.82 1399.07 1106.8C1403.32 1116.79 1403.44 1128.06 1399.39 1138.12C1395.34 1148.19 1387.46 1156.24 1377.49 1160.49C1367.51 1164.74 1356.25 1164.85 1346.19 1160.8L985.013 1014.34L771.146 1350.09C766.081 1358.28 758.232 1364.36 749.043 1367.21Z" fill="#555555"/>
            <path d="M997.973 1056.06L808.103 1350.82L881.79 1584.71C884.5 1593.31 890.512 1600.48 898.505 1604.65C906.497 1608.82 915.815 1609.64 924.409 1606.93L1163.99 1531.45L1105.76 1346.63C1104.21 1341.72 1104.68 1336.41 1107.05 1331.85C1109.42 1327.3 1113.5 1323.87 1118.4 1322.33L1200.67 1296.41C1205.56 1294.86 1210.88 1295.33 1215.43 1297.71C1219.99 1300.08 1223.41 1304.17 1224.96 1309.07L1283.19 1493.9L1372.84 1465.65C1377.12 1464.33 1381.09 1462.18 1384.53 1459.31C1387.97 1456.45 1390.81 1452.93 1392.89 1448.96C1394.96 1445 1396.24 1440.66 1396.63 1436.19C1397.03 1431.73 1396.54 1427.24 1395.19 1422.96L1321.08 1187.73L997.973 1056.06Z" fill="#555555"/>
            <path d="M1213.47 1088.09C1201.06 1091.95 1187.63 1090.73 1176.11 1084.7C1164.6 1078.67 1155.94 1068.32 1152.03 1055.92L1113.97 935.109C1111.58 928.848 1110.49 922.165 1110.77 915.469C1111.05 908.774 1112.7 902.207 1115.62 896.174C1118.53 890.141 1122.65 884.768 1127.71 880.387C1132.78 876.005 1138.69 872.706 1145.07 870.694C1151.46 868.682 1158.19 867.998 1164.85 868.685C1171.52 869.372 1177.97 871.415 1183.81 874.689C1189.66 877.963 1194.77 882.398 1198.84 887.722C1202.91 893.046 1205.85 899.146 1207.48 905.647L1245.54 1026.46C1249.46 1038.89 1248.28 1052.37 1242.27 1063.93C1236.25 1075.49 1225.89 1084.18 1213.47 1088.09Z" fill="#555555"/>
        </g>
        <path d="M767.46 1374.71C759.354 1377.46 750.586 1377.6 742.396 1375.1C734.206 1372.59 727.008 1367.58 721.82 1360.76C716.631 1353.94 713.715 1345.66 713.484 1337.1C713.252 1328.53 715.717 1320.11 720.529 1313.03L952.723 949.339C957.879 941.154 965.771 935.067 974.994 932.161C984.218 929.255 994.174 929.72 1003.09 933.471L1394.84 1092.64C1404.92 1096.82 1412.93 1104.82 1417.11 1114.9C1421.29 1124.98 1421.29 1136.31 1417.13 1146.39C1412.96 1156.47 1404.96 1164.48 1394.89 1168.66C1384.82 1172.84 1373.5 1172.84 1363.43 1168.66L1003.48 1022L789.785 1357.7C784.597 1365.84 776.684 1371.87 767.46 1374.71Z" fill="#1541DF"/>
        <path d="M1016.61 1063.67L826.574 1358.48L900.208 1592.21C902.922 1600.82 908.935 1608.02 916.931 1612.21C924.927 1616.41 934.257 1617.26 942.88 1614.6L1183.13 1538.91L1124.9 1354.08C1123.52 1349.25 1124.07 1344.08 1126.43 1339.65C1128.78 1335.22 1132.76 1331.88 1137.53 1330.33L1218.79 1304.73C1223.65 1303.21 1228.91 1303.67 1233.42 1306.02C1237.94 1308.38 1241.33 1312.43 1242.86 1317.28L1301.09 1502.11L1391.25 1473.71C1399.84 1470.95 1407 1464.9 1411.14 1456.88C1415.29 1448.86 1416.1 1439.52 1413.38 1430.9L1339.27 1195.67L1016.61 1063.67Z" fill="#1541DF"/>
        <path d="M1232.32 1096.38C1219.93 1100.28 1206.49 1099.11 1194.95 1093.12C1183.41 1087.13 1174.72 1076.81 1170.76 1064.42L1132.54 943.109C1129.5 930.958 1131.21 918.105 1137.32 907.175C1143.43 896.246 1153.48 888.065 1165.42 884.304C1177.35 880.543 1190.28 881.486 1201.55 886.94C1212.82 892.393 1221.59 901.946 1226.06 913.647L1264.17 1034.62C1266.13 1040.77 1266.87 1047.25 1266.33 1053.68C1265.79 1060.11 1263.99 1066.37 1261.03 1072.11C1258.07 1077.84 1254.02 1082.94 1249.09 1087.1C1244.16 1091.26 1238.47 1094.42 1232.32 1096.38Z" fill="#1541DF"/>
    </g>
    <g clip-path="url(#clip7_0_1)" filter="url(#filter7_dd_0_1)">
        <g style="mix-blend-mode:overlay" opacity="0.6">
            <path d="M747.235 79.1022C749.548 81.5481 751.288 84.4782 752.328 87.6803C753.368 90.8824 753.683 94.2763 753.249 97.6162C752.891 100.631 751.943 103.546 750.459 106.195C748.975 108.844 746.983 111.176 744.598 113.055C742.213 114.935 739.481 116.327 736.559 117.152C733.637 117.976 730.581 118.216 727.566 117.86L484.853 88.7784C479.41 88.1728 474.362 85.6452 470.619 81.6499C466.876 77.6547 464.682 72.4539 464.431 66.9828L449.609 -171.804C449.442 -174.854 449.876 -177.907 450.888 -180.79C451.9 -183.673 453.47 -186.328 455.508 -188.605C457.546 -190.882 460.013 -192.736 462.766 -194.06C465.52 -195.385 468.507 -196.154 471.557 -196.325C474.607 -196.495 477.661 -196.063 480.543 -195.053C483.425 -194.043 486.08 -192.476 488.355 -190.44C490.63 -188.403 492.482 -185.939 493.804 -183.186C495.127 -180.434 495.894 -177.448 496.062 -174.398L509.543 45.1795L733.166 71.9559C738.546 72.6284 743.521 75.1555 747.235 79.1022Z" fill="url(#paint21_linear_0_1)"/>
            <path d="M527.644 28.3571L724.419 53.0022L825.632 -41.8311C829.354 -45.3183 831.539 -50.14 831.707 -55.2354C831.875 -60.3309 830.012 -65.2827 826.528 -69.0015L729.048 -173.039L649.066 -98.0993C648.028 -97.1088 646.805 -96.3336 645.466 -95.8184C644.127 -95.3033 642.7 -95.0584 641.266 -95.0979C639.832 -95.1375 638.421 -95.4606 637.114 -96.0487C635.806 -96.6368 634.628 -97.4783 633.648 -98.5244L600.633 -133.761C599.653 -134.807 598.89 -136.037 598.388 -137.38C597.886 -138.723 597.656 -140.152 597.709 -141.585C597.763 -143.018 598.1 -144.427 598.701 -145.729C599.302 -147.032 600.156 -148.202 601.212 -149.174L681.194 -224.114L644.775 -262.983C641.283 -266.671 636.472 -268.826 631.393 -268.976C626.314 -269.126 621.381 -267.259 617.672 -263.783L515.877 -168.405L527.644 28.3571Z" fill="url(#paint22_linear_0_1)"/>
            <path d="M491.366 -89.6387C496.372 -84.2574 499.04 -77.1098 498.784 -69.7615C498.529 -62.4132 495.372 -55.4632 490.004 -50.4339L437.579 -1.31411C434.973 1.43856 431.831 3.62956 428.348 5.12423C424.865 6.6189 421.113 7.38565 417.324 7.37735C413.534 7.36905 409.787 6.58586 406.313 5.07594C402.839 3.56602 399.71 1.36127 397.121 -1.40278C394.531 -4.16683 392.534 -7.43178 391.253 -10.9969C389.973 -14.5621 389.435 -18.3521 389.673 -22.1339C389.911 -25.9158 390.92 -29.6097 392.638 -32.9885C394.356 -36.3672 396.747 -39.3595 399.663 -41.7814L451.942 -90.7649C454.6 -93.2916 457.732 -95.2678 461.156 -96.5796C464.581 -97.8914 468.231 -98.5128 471.895 -98.4081C475.56 -98.3035 479.167 -97.4747 482.509 -95.9696C485.85 -94.4646 488.861 -92.313 491.366 -89.6387Z" fill="url(#paint23_linear_0_1)"/>
        </g>
        <g style="mix-blend-mode:overlay" opacity="0.8">
            <path d="M746.428 103.598C748.741 106.044 750.48 108.974 751.521 112.176C752.561 115.378 752.875 118.772 752.442 122.112C752.084 125.127 751.136 128.042 749.652 130.691C748.167 133.34 746.176 135.671 743.791 137.551C741.406 139.431 738.674 140.823 735.752 141.648C732.829 142.472 729.774 142.712 726.759 142.355L484.046 113.274C478.61 112.649 473.574 110.116 469.835 106.125C466.095 102.133 463.894 96.9434 463.624 91.4787L448.802 -147.308C448.406 -153.432 450.459 -159.464 454.509 -164.078C458.56 -168.692 464.276 -171.509 470.4 -171.91C476.525 -172.312 482.556 -170.264 487.167 -166.217C491.778 -162.171 494.59 -156.457 494.987 -150.333L508.736 69.6754L732.286 96.5199C737.7 97.0988 742.722 99.6122 746.428 103.598Z" fill="#555555"/>
            <path d="M526.836 52.8522L723.612 77.4973L824.825 -17.336C828.547 -20.8232 830.732 -25.6449 830.9 -30.7403C831.068 -35.8358 829.205 -40.7876 825.721 -44.5064L728.582 -148.181L648.599 -73.241C646.478 -71.2534 643.655 -70.1893 640.751 -70.2826C637.846 -70.376 635.099 -71.6192 633.113 -73.7387L599.758 -109.338C597.772 -111.458 596.71 -114.28 596.806 -117.184C596.902 -120.088 598.147 -122.836 600.268 -124.824L680.25 -199.764L643.9 -238.56C642.178 -240.417 640.107 -241.915 637.804 -242.967C635.501 -244.02 633.013 -244.607 630.481 -244.695C627.95 -244.783 625.426 -244.37 623.054 -243.48C620.682 -242.589 618.51 -241.239 616.661 -239.506L514.865 -144.128L526.836 52.8522Z" fill="#555555"/>
            <path d="M490.409 -64.8658C495.415 -59.4844 498.082 -52.3368 497.827 -44.9885C497.572 -37.6402 494.414 -30.6902 489.047 -25.6609L436.767 23.3226C434.161 26.0753 431.02 28.2663 427.536 29.7609C424.053 31.2556 420.301 32.0224 416.512 32.0141C412.723 32.0058 408.976 31.2226 405.501 29.7127C402.027 28.2027 398.899 25.998 396.309 23.2339C393.719 20.4699 391.722 17.2049 390.442 13.6398C389.161 10.0747 388.623 6.28466 388.861 2.50277C389.099 -1.27912 390.108 -4.97297 391.826 -8.35174C393.544 -11.7305 395.935 -14.7228 398.851 -17.1447L451.13 -66.1282C456.511 -71.1693 463.672 -73.8684 471.038 -73.6316C478.404 -73.3949 485.372 -70.2417 490.409 -64.8658Z" fill="#555555"/>
        </g>
        <path d="M745.741 92.3727C749.131 95.8314 751.346 100.269 752.075 105.058C752.804 109.846 752.009 114.744 749.802 119.059C747.596 123.374 744.089 126.887 739.779 129.102C735.468 131.317 730.572 132.122 725.781 131.403L483.499 102.053C478.064 101.428 473.028 98.8949 469.288 94.9036C465.549 90.9123 463.348 85.7225 463.078 80.2578L448.324 -158.456C447.985 -164.616 450.107 -170.659 454.223 -175.258C458.339 -179.856 464.112 -182.633 470.272 -182.977C476.432 -183.321 482.474 -181.204 487.07 -177.092C491.665 -172.98 494.437 -167.209 494.776 -161.05L508.122 58.3819L731.604 85.1537C737.025 85.8055 742.036 88.3643 745.741 92.3727Z" fill="#1541DF"/>
        <path d="M526.154 41.4856L722.997 66.2033L824.138 -28.5618C827.867 -32.0553 830.062 -36.8817 830.243 -41.9859C830.425 -47.0901 828.578 -52.0569 825.106 -55.8004L727.695 -159.766L647.713 -84.8255C645.589 -82.9417 642.818 -81.9546 639.983 -82.072C637.148 -82.1894 634.47 -83.4022 632.513 -85.455L599.566 -120.619C597.598 -122.719 596.546 -125.515 596.641 -128.393C596.736 -131.271 597.97 -133.994 600.072 -135.964L680.054 -210.904L643.499 -249.918C639.989 -253.625 635.153 -255.791 630.048 -255.942C624.943 -256.093 619.984 -254.217 616.255 -250.723L514.46 -155.345L526.154 41.4856Z" fill="#1541DF"/>
        <path d="M490.017 -76.5057C495.043 -71.1423 497.736 -64.0044 497.507 -56.6552C497.278 -49.3061 494.146 -42.3448 488.796 -37.2963L436.298 11.8916C430.848 16.418 423.876 18.6941 416.808 18.2548C409.74 17.8155 403.108 14.694 398.268 9.52809C393.428 4.36215 390.744 -2.45844 390.765 -9.54032C390.787 -16.6222 393.511 -23.431 398.382 -28.5756L450.734 -77.6273C453.389 -80.133 456.512 -82.0916 459.923 -83.3912C463.334 -84.6909 466.967 -85.3063 470.615 -85.2021C474.263 -85.098 477.853 -84.2764 481.183 -82.7842C484.512 -81.2921 487.514 -79.1586 490.017 -76.5057Z" fill="#1541DF"/>
    </g>
    <g clip-path="url(#clip8_0_1)" filter="url(#filter8_dd_0_1)">
        <g style="mix-blend-mode:overlay" opacity="0.6">
            <path d="M527.371 581.901C524.518 582.388 521.593 582.234 518.806 581.45C516.02 580.666 513.442 579.271 511.26 577.367C509.275 575.673 507.642 573.604 506.456 571.278C505.269 568.952 504.553 566.415 504.346 563.813C504.14 561.21 504.448 558.592 505.253 556.108C506.058 553.625 507.344 551.325 509.037 549.339L645.657 389.625C648.688 386.021 652.904 383.618 657.548 382.847C662.191 382.076 666.958 382.988 670.991 385.42L848.846 488.766C851.107 490.101 853.083 491.869 854.662 493.969C856.241 496.068 857.391 498.458 858.047 501.003C858.703 503.547 858.852 506.195 858.485 508.797C858.119 511.398 857.243 513.902 855.91 516.164C854.576 518.427 852.81 520.405 850.713 521.984C848.615 523.564 846.227 524.714 843.685 525.37C841.143 526.026 838.497 526.174 835.897 525.806C833.297 525.439 830.796 524.562 828.534 523.227L665.057 428.089L539.196 575.249C536.148 578.775 531.967 581.128 527.371 581.901Z" fill="url(#paint24_linear_0_1)"/>
            <path d="M668.452 449.063L556.927 578.038L576.454 695.68C577.172 700.006 579.578 703.87 583.142 706.422C586.706 708.973 591.137 710.004 595.459 709.286L716.384 689.214L700.953 596.249C700.74 595.034 700.769 593.789 701.04 592.586C701.31 591.383 701.816 590.245 702.529 589.238C703.241 588.232 704.146 587.377 705.19 586.722C706.235 586.068 707.398 585.627 708.614 585.425L749.57 578.627C750.786 578.425 752.03 578.466 753.23 578.748C754.43 579.03 755.562 579.547 756.561 580.269C757.561 580.992 758.407 581.905 759.052 582.956C759.697 584.008 760.127 585.177 760.318 586.395L775.749 679.36L820.927 671.861C825.231 671.124 829.068 668.711 831.599 665.15C834.129 661.589 835.148 657.17 834.433 652.859L814.793 534.54L668.452 449.063Z" fill="url(#paint25_linear_0_1)"/>
            <path d="M770.155 479.422C763.917 480.434 757.532 478.931 752.399 475.242C747.265 471.553 743.801 465.978 742.765 459.74L732.651 398.805C731.926 395.628 731.858 392.336 732.451 389.131C733.044 385.926 734.286 382.877 736.1 380.171C737.914 377.465 740.263 375.159 743 373.394C745.738 371.63 748.808 370.445 752.021 369.912C755.233 369.378 758.521 369.508 761.682 370.293C764.843 371.079 767.811 372.502 770.402 374.477C772.993 376.452 775.153 378.937 776.75 381.778C778.347 384.619 779.346 387.757 779.687 390.998L789.773 451.763C790.312 454.87 790.231 458.053 789.535 461.128C788.839 464.203 787.542 467.11 785.718 469.681C783.894 472.252 781.58 474.436 778.909 476.108C776.238 477.78 773.263 478.906 770.155 479.422Z" fill="url(#paint26_linear_0_1)"/>
        </g>
        <g style="mix-blend-mode:overlay" opacity="0.8">
            <path d="M510.237 569.634C507.384 570.121 504.458 569.967 501.672 569.183C498.885 568.399 496.308 567.004 494.126 565.101C492.14 563.406 490.508 561.337 489.322 559.011C488.135 556.686 487.418 554.149 487.212 551.546C487.005 548.943 487.314 546.325 488.118 543.842C488.923 541.358 490.21 539.058 491.903 537.072L628.523 377.359C631.564 373.769 635.779 371.377 640.418 370.607C645.057 369.837 649.819 370.739 653.856 373.153L831.711 476.499C836.28 479.138 839.615 483.485 840.982 488.584C842.349 493.682 841.636 499.115 839.001 503.687C836.365 508.258 832.023 511.595 826.928 512.961C821.834 514.328 816.405 513.613 811.836 510.975L647.923 415.822L522.048 562.897C519.05 566.493 514.857 568.885 510.237 569.634Z" fill="#555555"/>
            <path d="M651.318 436.796L539.792 565.77L559.32 683.413C560.038 687.739 562.443 691.603 566.008 694.154C569.572 696.706 574.002 697.736 578.325 697.019L698.828 677.016L683.397 584.052C682.987 581.586 683.573 579.059 685.026 577.027C686.479 574.994 688.679 573.623 691.142 573.214L732.52 566.345C734.984 565.936 737.509 566.524 739.541 567.978C741.572 569.432 742.943 571.634 743.352 574.1L758.783 667.064L803.877 659.579C806.026 659.234 808.086 658.467 809.938 657.323C811.79 656.178 813.397 654.678 814.668 652.91C815.939 651.142 816.848 649.139 817.343 647.018C817.837 644.897 817.909 642.698 817.552 640.549L797.912 522.23L651.318 436.796Z" fill="#555555"/>
            <path d="M752.894 466.917C746.656 467.929 740.272 466.426 735.138 462.737C730.004 459.048 726.54 453.474 725.504 447.235L715.418 386.47C714.693 383.292 714.625 380 715.218 376.795C715.812 373.591 717.053 370.541 718.868 367.835C720.682 365.129 723.03 362.823 725.768 361.058C728.506 359.294 731.575 358.109 734.788 357.576C738.001 357.042 741.289 357.172 744.45 357.957C747.611 358.743 750.578 360.167 753.169 362.142C755.76 364.116 757.921 366.601 759.517 369.442C761.114 372.283 762.113 375.421 762.454 378.662L772.54 439.427C773.578 445.681 772.092 452.09 768.407 457.246C764.723 462.401 759.143 465.88 752.894 466.917Z" fill="#555555"/>
        </g>
        <path d="M518.594 574.5C514.503 575.274 510.272 574.741 506.499 572.978C502.726 571.214 499.603 568.308 497.57 564.671C495.537 561.034 494.697 556.849 495.17 552.71C495.643 548.57 497.404 544.684 500.204 541.601L636.809 382.323C639.85 378.734 644.065 376.341 648.704 375.571C653.343 374.801 658.105 375.704 662.143 378.118L839.913 481.478C844.48 484.175 847.79 488.577 849.115 493.715C850.44 498.853 849.671 504.307 846.977 508.877C844.284 513.446 839.887 516.758 834.753 518.082C829.619 519.407 824.169 518.636 819.602 515.939L656.294 420.773L530.503 567.834C527.45 571.4 523.229 573.763 518.594 574.5Z" fill="#1541DF"/>
        <path d="M659.773 441.731L548.163 570.72L567.676 688.278C568.396 692.611 570.8 696.484 574.364 699.05C577.928 701.615 582.362 702.664 586.696 701.968L707.536 681.91L692.105 588.945C691.771 586.527 692.387 584.075 693.824 582.103C695.261 580.131 697.406 578.795 699.809 578.374L740.68 571.59C743.121 571.185 745.623 571.767 747.636 573.208C749.649 574.649 751.008 576.831 751.413 579.274L766.845 672.239L812.191 664.712C816.518 663.971 820.375 661.545 822.919 657.966C825.463 654.387 826.487 649.945 825.768 645.611L806.128 527.292L659.773 441.731Z" fill="#1541DF"/>
        <path d="M761.405 472.191C755.171 473.225 748.781 471.745 743.634 468.075C738.487 464.404 735.003 458.842 733.945 452.607L723.817 391.588C723.181 385.53 724.879 379.458 728.566 374.612C732.254 369.766 737.651 366.513 743.655 365.516C749.66 364.52 755.818 365.855 760.873 369.249C765.928 372.644 769.498 377.842 770.853 383.781L780.953 444.63C781.478 447.725 781.389 450.892 780.691 453.952C779.993 457.012 778.699 459.904 776.884 462.464C775.069 465.023 772.767 467.199 770.112 468.868C767.456 470.537 764.497 471.666 761.405 472.191Z" fill="#1541DF"/>
    </g>
    <circle cx="103" cy="1126" r="44" stroke="#011869" stroke-opacity="0.51" stroke-width="10"/>
    <circle cx="-5.5" cy="341.5" r="58.5" stroke="#011869" stroke-opacity="0.51" stroke-width="10"/>
    <circle cx="42" cy="657" r="30" fill="#011869" fill-opacity="0.3"/>
    <circle cx="354" cy="251" r="30" fill="#011869" fill-opacity="0.3"/>
    <circle cx="439.5" cy="15.5" r="45.5" stroke="#011869" stroke-opacity="0.51" stroke-width="10"/>
    <path d="M638 1152.5C638 1173.71 620.593 1191 599 1191C577.407 1191 560 1173.71 560 1152.5C560 1131.29 577.407 1114 599 1114C620.593 1114 638 1131.29 638 1152.5Z" stroke="#011869" stroke-opacity="0.51" stroke-width="10"/>
    <ellipse cx="690.5" cy="1197" rx="28.5" ry="28" fill="#011869" fill-opacity="0.3"/>
    <ellipse cx="320.5" rx="41.5" ry="41" fill="#011869" fill-opacity="0.3"/>
    <path d="M852 293.5C852 325.772 825.622 352 793 352C760.378 352 734 325.772 734 293.5C734 261.228 760.378 235 793 235C825.622 235 852 261.228 852 293.5Z" stroke="white" stroke-opacity="0.51" stroke-width="10"/>
    <path d="M1212 1224.5C1212 1256.77 1185.62 1283 1153 1283C1120.38 1283 1094 1256.77 1094 1224.5C1094 1192.23 1120.38 1166 1153 1166C1185.62 1166 1212 1192.23 1212 1224.5Z" stroke="white" stroke-opacity="0.51" stroke-width="10"/>
    <path d="M1454 296C1454 328.622 1427.77 355 1395.5 355C1363.23 355 1337 328.622 1337 296C1337 263.378 1363.23 237 1395.5 237C1427.77 237 1454 263.378 1454 296Z" stroke="white" stroke-opacity="0.51" stroke-width="10"/>
    <ellipse cx="1363.5" cy="949" rx="41.5" ry="41" fill="white" fill-opacity="0.3"/>
    <ellipse cx="354.5" cy="736" rx="41.5" ry="41" fill="white" fill-opacity="0.3"/>
    <ellipse cx="1005.5" cy="97" rx="41.5" ry="41" fill="white" fill-opacity="0.3"/>
    <circle cx="699.5" cy="156.5" r="29.5" fill="#011869" fill-opacity="0.3"/>
    <defs>
        <filter id="filter0_dd_0_1" x="351.997" y="1133.03" width="336" height="301" filterUnits="userSpaceOnUse" color-interpolation-filters="sRGB">
            <feFlood flood-opacity="0" result="BackgroundImageFix"/>
            <feColorMatrix in="SourceAlpha" type="matrix" values="0 0 0 0 0 0 0 0 0 0 0 0 0 0 0 0 0 0 127 0" result="hardAlpha"/>
            <feOffset dx="10" dy="10"/>
            <feGaussianBlur stdDeviation="10"/>
            <feColorMatrix type="matrix" values="0 0 0 0 0.823529 0 0 0 0 0.823529 0 0 0 0 0.823529 0 0 0 0.4 0"/>
            <feBlend mode="normal" in2="BackgroundImageFix" result="effect1_dropShadow_0_1"/>
            <feColorMatrix in="SourceAlpha" type="matrix" values="0 0 0 0 0 0 0 0 0 0 0 0 0 0 0 0 0 0 127 0" result="hardAlpha"/>
            <feOffset dx="-10" dy="-10"/>
            <feGaussianBlur stdDeviation="10"/>
            <feColorMatrix type="matrix" values="0 0 0 0 0.054902 0 0 0 0 0.188235 0 0 0 0 0.654902 0 0 0 0.06 0"/>
            <feBlend mode="normal" in2="effect1_dropShadow_0_1" result="effect2_dropShadow_0_1"/>
            <feBlend mode="normal" in="SourceGraphic" in2="effect2_dropShadow_0_1" result="shape"/>
        </filter>
        <filter id="filter1_dd_0_1" x="-310.003" y="702.021" width="841.232" height="782.107" filterUnits="userSpaceOnUse" color-interpolation-filters="sRGB">
            <feFlood flood-opacity="0" result="BackgroundImageFix"/>
            <feColorMatrix in="SourceAlpha" type="matrix" values="0 0 0 0 0 0 0 0 0 0 0 0 0 0 0 0 0 0 127 0" result="hardAlpha"/>
            <feOffset dx="10" dy="10"/>
            <feGaussianBlur stdDeviation="10"/>
            <feColorMatrix type="matrix" values="0 0 0 0 0.823529 0 0 0 0 0.823529 0 0 0 0 0.823529 0 0 0 0.4 0"/>
            <feBlend mode="normal" in2="BackgroundImageFix" result="effect1_dropShadow_0_1"/>
            <feColorMatrix in="SourceAlpha" type="matrix" values="0 0 0 0 0 0 0 0 0 0 0 0 0 0 0 0 0 0 127 0" result="hardAlpha"/>
            <feOffset dx="-10" dy="-10"/>
            <feGaussianBlur stdDeviation="10"/>
            <feColorMatrix type="matrix" values="0 0 0 0 0.054902 0 0 0 0 0.188235 0 0 0 0 0.654902 0 0 0 0.06 0"/>
            <feBlend mode="normal" in2="effect1_dropShadow_0_1" result="effect2_dropShadow_0_1"/>
            <feBlend mode="normal" in="SourceGraphic" in2="effect2_dropShadow_0_1" result="shape"/>
        </filter>
        <filter id="filter2_dd_0_1" x="819.001" y="-270.98" width="841.182" height="885.889" filterUnits="userSpaceOnUse" color-interpolation-filters="sRGB">
            <feFlood flood-opacity="0" result="BackgroundImageFix"/>
            <feColorMatrix in="SourceAlpha" type="matrix" values="0 0 0 0 0 0 0 0 0 0 0 0 0 0 0 0 0 0 127 0" result="hardAlpha"/>
            <feOffset dx="10" dy="10"/>
            <feGaussianBlur stdDeviation="10"/>
            <feColorMatrix type="matrix" values="0 0 0 0 0.823529 0 0 0 0 0.823529 0 0 0 0 0.823529 0 0 0 0.4 0"/>
            <feBlend mode="normal" in2="BackgroundImageFix" result="effect1_dropShadow_0_1"/>
            <feColorMatrix in="SourceAlpha" type="matrix" values="0 0 0 0 0 0 0 0 0 0 0 0 0 0 0 0 0 0 127 0" result="hardAlpha"/>
            <feOffset dx="-10" dy="-10"/>
            <feGaussianBlur stdDeviation="10"/>
            <feColorMatrix type="matrix" values="0 0 0 0 0.054902 0 0 0 0 0.188235 0 0 0 0 0.654902 0 0 0 0.06 0"/>
            <feBlend mode="normal" in2="effect1_dropShadow_0_1" result="effect2_dropShadow_0_1"/>
            <feBlend mode="normal" in="SourceGraphic" in2="effect2_dropShadow_0_1" result="shape"/>
        </filter>
        <filter id="filter3_dd_0_1" x="-162.461" y="-99.3926" width="495" height="458.416" filterUnits="userSpaceOnUse" color-interpolation-filters="sRGB">
            <feFlood flood-opacity="0" result="BackgroundImageFix"/>
            <feColorMatrix in="SourceAlpha" type="matrix" values="0 0 0 0 0 0 0 0 0 0 0 0 0 0 0 0 0 0 127 0" result="hardAlpha"/>
            <feOffset dx="10" dy="10"/>
            <feGaussianBlur stdDeviation="10"/>
            <feColorMatrix type="matrix" values="0 0 0 0 0.823529 0 0 0 0 0.823529 0 0 0 0 0.823529 0 0 0 0.4 0"/>
            <feBlend mode="normal" in2="BackgroundImageFix" result="effect1_dropShadow_0_1"/>
            <feColorMatrix in="SourceAlpha" type="matrix" values="0 0 0 0 0 0 0 0 0 0 0 0 0 0 0 0 0 0 127 0" result="hardAlpha"/>
            <feOffset dx="-10" dy="-10"/>
            <feGaussianBlur stdDeviation="10"/>
            <feColorMatrix type="matrix" values="0 0 0 0 0.054902 0 0 0 0 0.188235 0 0 0 0 0.654902 0 0 0 0.06 0"/>
            <feBlend mode="normal" in2="effect1_dropShadow_0_1" result="effect2_dropShadow_0_1"/>
            <feBlend mode="normal" in="SourceGraphic" in2="effect2_dropShadow_0_1" result="shape"/>
        </filter>
        <filter id="filter4_dd_0_1" x="2.99731" y="113.018" width="789.926" height="734.885" filterUnits="userSpaceOnUse" color-interpolation-filters="sRGB">
            <feFlood flood-opacity="0" result="BackgroundImageFix"/>
            <feColorMatrix in="SourceAlpha" type="matrix" values="0 0 0 0 0 0 0 0 0 0 0 0 0 0 0 0 0 0 127 0" result="hardAlpha"/>
            <feOffset dx="10" dy="10"/>
            <feGaussianBlur stdDeviation="10"/>
            <feColorMatrix type="matrix" values="0 0 0 0 0.823529 0 0 0 0 0.823529 0 0 0 0 0.823529 0 0 0 0.4 0"/>
            <feBlend mode="normal" in2="BackgroundImageFix" result="effect1_dropShadow_0_1"/>
            <feColorMatrix in="SourceAlpha" type="matrix" values="0 0 0 0 0 0 0 0 0 0 0 0 0 0 0 0 0 0 127 0" result="hardAlpha"/>
            <feOffset dx="-10" dy="-10"/>
            <feGaussianBlur stdDeviation="10"/>
            <feColorMatrix type="matrix" values="0 0 0 0 0.054902 0 0 0 0 0.188235 0 0 0 0 0.654902 0 0 0 0.06 0"/>
            <feBlend mode="normal" in2="effect1_dropShadow_0_1" result="effect2_dropShadow_0_1"/>
            <feBlend mode="normal" in="SourceGraphic" in2="effect2_dropShadow_0_1" result="shape"/>
        </filter>
        <filter id="filter5_dd_0_1" x="1007.69" y="426.623" width="517.249" height="486.654" filterUnits="userSpaceOnUse" color-interpolation-filters="sRGB">
            <feFlood flood-opacity="0" result="BackgroundImageFix"/>
            <feColorMatrix in="SourceAlpha" type="matrix" values="0 0 0 0 0 0 0 0 0 0 0 0 0 0 0 0 0 0 127 0" result="hardAlpha"/>
            <feOffset dx="10" dy="10"/>
            <feGaussianBlur stdDeviation="10"/>
            <feColorMatrix type="matrix" values="0 0 0 0 0.823529 0 0 0 0 0.823529 0 0 0 0 0.823529 0 0 0 0.4 0"/>
            <feBlend mode="normal" in2="BackgroundImageFix" result="effect1_dropShadow_0_1"/>
            <feColorMatrix in="SourceAlpha" type="matrix" values="0 0 0 0 0 0 0 0 0 0 0 0 0 0 0 0 0 0 127 0" result="hardAlpha"/>
            <feOffset dx="-10" dy="-10"/>
            <feGaussianBlur stdDeviation="10"/>
            <feColorMatrix type="matrix" values="0 0 0 0 0.054902 0 0 0 0 0.188235 0 0 0 0 0.654902 0 0 0 0.06 0"/>
            <feBlend mode="normal" in2="effect1_dropShadow_0_1" result="effect2_dropShadow_0_1"/>
            <feBlend mode="normal" in="SourceGraphic" in2="effect2_dropShadow_0_1" result="shape"/>
        </filter>
        <filter id="filter6_dd_0_1" x="571.997" y="775.021" width="996.189" height="932.033" filterUnits="userSpaceOnUse" color-interpolation-filters="sRGB">
            <feFlood flood-opacity="0" result="BackgroundImageFix"/>
            <feColorMatrix in="SourceAlpha" type="matrix" values="0 0 0 0 0 0 0 0 0 0 0 0 0 0 0 0 0 0 127 0" result="hardAlpha"/>
            <feOffset dx="10" dy="10"/>
            <feGaussianBlur stdDeviation="10"/>
            <feColorMatrix type="matrix" values="0 0 0 0 0.823529 0 0 0 0 0.823529 0 0 0 0 0.823529 0 0 0 0.4 0"/>
            <feBlend mode="normal" in2="BackgroundImageFix" result="effect1_dropShadow_0_1"/>
            <feColorMatrix in="SourceAlpha" type="matrix" values="0 0 0 0 0 0 0 0 0 0 0 0 0 0 0 0 0 0 127 0" result="hardAlpha"/>
            <feOffset dx="-10" dy="-10"/>
            <feGaussianBlur stdDeviation="10"/>
            <feColorMatrix type="matrix" values="0 0 0 0 0.054902 0 0 0 0 0.188235 0 0 0 0 0.654902 0 0 0 0.06 0"/>
            <feBlend mode="normal" in2="effect1_dropShadow_0_1" result="effect2_dropShadow_0_1"/>
            <feBlend mode="normal" in="SourceGraphic" in2="effect2_dropShadow_0_1" result="shape"/>
        </filter>
        <filter id="filter7_dd_0_1" x="285.997" y="-347.979" width="634.995" height="637.55" filterUnits="userSpaceOnUse" color-interpolation-filters="sRGB">
            <feFlood flood-opacity="0" result="BackgroundImageFix"/>
            <feColorMatrix in="SourceAlpha" type="matrix" values="0 0 0 0 0 0 0 0 0 0 0 0 0 0 0 0 0 0 127 0" result="hardAlpha"/>
            <feOffset dx="10" dy="10"/>
            <feGaussianBlur stdDeviation="10"/>
            <feColorMatrix type="matrix" values="0 0 0 0 0.823529 0 0 0 0 0.823529 0 0 0 0 0.823529 0 0 0 0.4 0"/>
            <feBlend mode="normal" in2="BackgroundImageFix" result="effect1_dropShadow_0_1"/>
            <feColorMatrix in="SourceAlpha" type="matrix" values="0 0 0 0 0 0 0 0 0 0 0 0 0 0 0 0 0 0 127 0" result="hardAlpha"/>
            <feOffset dx="-10" dy="-10"/>
            <feGaussianBlur stdDeviation="10"/>
            <feColorMatrix type="matrix" values="0 0 0 0 0.054902 0 0 0 0 0.188235 0 0 0 0 0.654902 0 0 0 0.06 0"/>
            <feBlend mode="normal" in2="effect1_dropShadow_0_1" result="effect2_dropShadow_0_1"/>
            <feBlend mode="normal" in="SourceGraphic" in2="effect2_dropShadow_0_1" result="shape"/>
        </filter>
        <filter id="filter8_dd_0_1" x="432" y="309" width="482.851" height="443.559" filterUnits="userSpaceOnUse" color-interpolation-filters="sRGB">
            <feFlood flood-opacity="0" result="BackgroundImageFix"/>
            <feColorMatrix in="SourceAlpha" type="matrix" values="0 0 0 0 0 0 0 0 0 0 0 0 0 0 0 0 0 0 127 0" result="hardAlpha"/>
            <feOffset dx="10" dy="10"/>
            <feGaussianBlur stdDeviation="10"/>
            <feColorMatrix type="matrix" values="0 0 0 0 0.823529 0 0 0 0 0.823529 0 0 0 0 0.823529 0 0 0 0.4 0"/>
            <feBlend mode="normal" in2="BackgroundImageFix" result="effect1_dropShadow_0_1"/>
            <feColorMatrix in="SourceAlpha" type="matrix" values="0 0 0 0 0 0 0 0 0 0 0 0 0 0 0 0 0 0 127 0" result="hardAlpha"/>
            <feOffset dx="-10" dy="-10"/>
            <feGaussianBlur stdDeviation="10"/>
            <feColorMatrix type="matrix" values="0 0 0 0 0.054902 0 0 0 0 0.188235 0 0 0 0 0.654902 0 0 0 0.06 0"/>
            <feBlend mode="normal" in2="effect1_dropShadow_0_1" result="effect2_dropShadow_0_1"/>
            <feBlend mode="normal" in="SourceGraphic" in2="effect2_dropShadow_0_1" result="shape"/>
        </filter>
        <linearGradient id="paint0_linear_0_1" x1="393.002" y1="1238.51" x2="515.517" y2="1370.59" gradientUnits="userSpaceOnUse">
            <stop stop-color="#1541DF"/>
            <stop offset="1" stop-color="#0E30A7"/>
        </linearGradient>
        <linearGradient id="paint1_linear_0_1" x1="429.574" y1="1313.74" x2="576.19" y2="1396" gradientUnits="userSpaceOnUse">
            <stop stop-color="#1541DF"/>
            <stop offset="1" stop-color="#0E30A7"/>
        </linearGradient>
        <linearGradient id="paint2_linear_0_1" x1="578.964" y1="1216.89" x2="612.463" y2="1224.46" gradientUnits="userSpaceOnUse">
            <stop stop-color="#1541DF"/>
            <stop offset="1" stop-color="#0E30A7"/>
        </linearGradient>
        <linearGradient id="paint3_linear_0_1" x1="-153.096" y1="911.827" x2="46.538" y2="1290.07" gradientUnits="userSpaceOnUse">
            <stop stop-color="#1541DF"/>
            <stop offset="1" stop-color="#0E30A7"/>
        </linearGradient>
        <linearGradient id="paint4_linear_0_1" x1="-115.393" y1="1106.75" x2="170.246" y2="1385.65" gradientUnits="userSpaceOnUse">
            <stop stop-color="#1541DF"/>
            <stop offset="1" stop-color="#0E30A7"/>
        </linearGradient>
        <linearGradient id="paint5_linear_0_1" x1="286.828" y1="976.567" x2="359.02" y2="1014.54" gradientUnits="userSpaceOnUse">
            <stop stop-color="#1541DF"/>
            <stop offset="1" stop-color="#0E30A7"/>
        </linearGradient>
        <linearGradient id="paint6_linear_0_1" x1="1221.25" y1="-147.501" x2="1044.65" y2="242.028" gradientUnits="userSpaceOnUse">
            <stop stop-color="#1541DF"/>
            <stop offset="1" stop-color="#0E30A7"/>
        </linearGradient>
        <linearGradient id="paint7_linear_0_1" x1="1090.31" y1="1.72518" x2="1044.91" y2="398.357" gradientUnits="userSpaceOnUse">
            <stop stop-color="#1541DF"/>
            <stop offset="1" stop-color="#0E30A7"/>
        </linearGradient>
        <linearGradient id="paint8_linear_0_1" x1="1439.64" y1="239.839" x2="1453.86" y2="320.158" gradientUnits="userSpaceOnUse">
            <stop stop-color="#1541DF"/>
            <stop offset="1" stop-color="#0E30A7"/>
        </linearGradient>
        <linearGradient id="paint9_linear_0_1" x1="-70.4524" y1="33.7689" x2="53.978" y2="243.981" gradientUnits="userSpaceOnUse">
            <stop stop-color="#1541DF"/>
            <stop offset="1" stop-color="#0E30A7"/>
        </linearGradient>
        <linearGradient id="paint10_linear_0_1" x1="-43.51" y1="143.913" x2="127.215" y2="295.057" gradientUnits="userSpaceOnUse">
            <stop stop-color="#1541DF"/>
            <stop offset="1" stop-color="#0E30A7"/>
        </linearGradient>
        <linearGradient id="paint11_linear_0_1" x1="182.316" y1="58.4374" x2="224.558" y2="78.0867" gradientUnits="userSpaceOnUse">
            <stop stop-color="#1541DF"/>
            <stop offset="1" stop-color="#0E30A7"/>
        </linearGradient>
        <linearGradient id="paint12_linear_0_1" x1="100.107" y1="457.501" x2="438.42" y2="669.574" gradientUnits="userSpaceOnUse">
            <stop stop-color="#1541DF"/>
            <stop offset="1" stop-color="#0E30A7"/>
        </linearGradient>
        <linearGradient id="paint13_linear_0_1" x1="221.804" y1="597.295" x2="583.085" y2="688.867" gradientUnits="userSpaceOnUse">
            <stop stop-color="#1541DF"/>
            <stop offset="1" stop-color="#0E30A7"/>
        </linearGradient>
        <linearGradient id="paint14_linear_0_1" x1="485.758" y1="303.862" x2="561.845" y2="300.74" gradientUnits="userSpaceOnUse">
            <stop stop-color="#1541DF"/>
            <stop offset="1" stop-color="#0E30A7"/>
        </linearGradient>
        <linearGradient id="paint15_linear_0_1" x1="1121.44" y1="558.528" x2="1223.76" y2="780.348" gradientUnits="userSpaceOnUse">
            <stop stop-color="#1541DF"/>
            <stop offset="1" stop-color="#0E30A7"/>
        </linearGradient>
        <linearGradient id="paint16_linear_0_1" x1="1137" y1="670.847" x2="1291.39" y2="838.636" gradientUnits="userSpaceOnUse">
            <stop stop-color="#1541DF"/>
            <stop offset="1" stop-color="#0E30A7"/>
        </linearGradient>
        <linearGradient id="paint17_linear_0_1" x1="1370.37" y1="608.881" x2="1410.39" y2="632.741" gradientUnits="userSpaceOnUse">
            <stop stop-color="#1541DF"/>
            <stop offset="1" stop-color="#0E30A7"/>
        </linearGradient>
        <linearGradient id="paint18_linear_0_1" x1="694.501" y1="1227.83" x2="1130.88" y2="1476.62" gradientUnits="userSpaceOnUse">
            <stop stop-color="#1541DF"/>
            <stop offset="1" stop-color="#0E30A7"/>
        </linearGradient>
        <linearGradient id="paint19_linear_0_1" x1="854.811" y1="1397.15" x2="1313.73" y2="1493.27" gradientUnits="userSpaceOnUse">
            <stop stop-color="#1541DF"/>
            <stop offset="1" stop-color="#0E30A7"/>
        </linearGradient>
        <linearGradient id="paint20_linear_0_1" x1="1171.17" y1="1014.45" x2="1266.64" y2="1006.53" gradientUnits="userSpaceOnUse">
            <stop stop-color="#1541DF"/>
            <stop offset="1" stop-color="#0E30A7"/>
        </linearGradient>
        <linearGradient id="paint21_linear_0_1" x1="688.715" y1="165.531" x2="708.728" y2="-117.878" gradientUnits="userSpaceOnUse">
            <stop stop-color="#1541DF"/>
            <stop offset="1" stop-color="#0E30A7"/>
        </linearGradient>
        <linearGradient id="paint22_linear_0_1" x1="735.798" y1="42.3402" x2="672.452" y2="-215.184" gradientUnits="userSpaceOnUse">
            <stop stop-color="#1541DF"/>
            <stop offset="1" stop-color="#0E30A7"/>
        </linearGradient>
        <linearGradient id="paint23_linear_0_1" x1="463.218" y1="-25.269" x2="435.805" y2="-72.0088" gradientUnits="userSpaceOnUse">
            <stop stop-color="#1541DF"/>
            <stop offset="1" stop-color="#0E30A7"/>
        </linearGradient>
        <linearGradient id="paint24_linear_0_1" x1="493.482" y1="498.803" x2="686.628" y2="648.357" gradientUnits="userSpaceOnUse">
            <stop stop-color="#1541DF"/>
            <stop offset="1" stop-color="#0E30A7"/>
        </linearGradient>
        <linearGradient id="paint25_linear_0_1" x1="559.122" y1="591.264" x2="773.534" y2="668.847" gradientUnits="userSpaceOnUse">
            <stop stop-color="#1541DF"/>
            <stop offset="1" stop-color="#0E30A7"/>
        </linearGradient>
        <linearGradient id="paint26_linear_0_1" x1="737.549" y1="428.574" x2="784.059" y2="431.271" gradientUnits="userSpaceOnUse">
            <stop stop-color="#1541DF"/>
            <stop offset="1" stop-color="#0E30A7"/>
        </linearGradient>
        <clipPath id="clip0_0_1">
            <rect width="276" height="241" fill="white" transform="translate(381.997 1163.03)"/>
        </clipPath>
        <clipPath id="clip1_0_1">
            <rect width="655.544" height="571.928" fill="white" transform="translate(-131.977 732.021) rotate(15)"/>
        </clipPath>
        <clipPath id="clip2_0_1">
            <rect width="655.544" height="571.928" fill="white" transform="translate(1376.29 -240.98) rotate(67.2136)"/>
        </clipPath>
        <clipPath id="clip3_0_1">
            <rect width="374.415" height="326.658" fill="white" transform="translate(-63.4177 -69.3926) rotate(12.2022)"/>
        </clipPath>
        <clipPath id="clip4_0_1">
            <rect width="612.003" height="533.941" fill="white" transform="translate(32.9973 302.381) rotate(-15.0936)"/>
        </clipPath>
        <clipPath id="clip5_0_1">
            <rect width="374.415" height="326.658" fill="white" transform="translate(1138.98 456.623) rotate(18.0636)"/>
        </clipPath>
        <clipPath id="clip6_0_1">
            <rect width="769.926" height="671.721" fill="white" transform="translate(601.997 1036.38) rotate(-17.487)"/>
        </clipPath>
        <clipPath id="clip7_0_1">
            <rect width="435.475" height="379.929" fill="white" transform="translate(613.745 259.57) rotate(-133.136)"/>
        </clipPath>
        <clipPath id="clip8_0_1">
            <rect width="374.415" height="326.658" fill="white" transform="translate(462 400.311) rotate(-9.42456)"/>
        </clipPath>
    </defs>
</svg>
